# This file uses centimeters as units for non-parametric coordinates.

mtllib nevera.mtl
g default
v -0.750000 -2.158750 0.750000
v -0.750000 2.158750 0.750000
v -0.750000 2.158750 -0.750000
v -0.750000 -2.158750 -0.750000
v 0.750000 -2.158750 0.675008
v 0.739953 -2.158750 0.712504
v 0.712504 -2.158750 0.739953
v 0.675008 -2.158750 0.750000
v 0.750000 2.158750 0.675008
v 0.675008 2.158750 0.750000
v 0.712504 2.158750 0.739953
v 0.739953 2.158750 0.712504
v 0.739953 2.158750 -0.712504
v 0.712504 2.158750 -0.739953
v 0.675008 2.158750 -0.750000
v 0.750000 2.158750 -0.675007
v 0.750000 -2.158750 -0.675007
v 0.675008 -2.158750 -0.750000
v 0.712504 -2.158750 -0.739953
v 0.739953 -2.158750 -0.712504
v -0.750000 0.037826 0.750000
v 0.675008 0.037826 0.750000
v 0.712504 0.037826 0.739953
v 0.739953 0.037826 0.712504
v 0.750000 0.037826 0.675008
v 0.750000 0.037826 -0.675007
v 0.739953 0.037826 -0.712504
v 0.712504 0.037826 -0.739953
v 0.675008 0.037826 -0.750000
v -0.750000 0.037826 -0.750000
v -0.750000 -0.037991 0.750000
v 0.675008 -0.037991 0.750000
v 0.712504 -0.037991 0.739953
v 0.739953 -0.037991 0.712504
v 0.750000 -0.037992 0.675008
v 0.750000 -0.037991 -0.675007
v 0.739953 -0.037992 -0.712504
v 0.712504 -0.037992 -0.739953
v 0.675008 -0.037992 -0.750000
v -0.750000 -0.037992 -0.750000
v -0.700000 -0.035464 0.700000
v 0.630007 -0.035464 0.700000
v 0.630007 0.035298 0.700000
v -0.700000 0.035298 0.700000
v 0.665004 -0.035464 0.690623
v 0.665004 0.035298 0.690623
v 0.690623 -0.035464 0.665003
v 0.690623 0.035298 0.665003
v 0.700000 -0.035465 0.630007
v 0.700000 0.035298 0.630007
v 0.700000 0.035298 -0.630007
v 0.700000 -0.035464 -0.630007
v 0.690623 0.035298 -0.665003
v 0.690623 -0.035465 -0.665003
v 0.665004 0.035298 -0.690623
v 0.665004 -0.035465 -0.690623
v 0.630007 0.035298 -0.700000
v 0.630007 -0.035465 -0.700000
v -0.700000 0.035298 -0.700000
v -0.700000 -0.035465 -0.700000
vt 0.018881 0.889968
vt 0.018881 0.454547
vt 0.310590 0.479943
vt 0.296036 0.454547
vt 0.296036 0.889968
vt 0.616413 0.479943
vt 0.616413 0.935119
vt 0.005548 0.454547
vt 0.011183 0.454547
vt 0.101820 0.892486
vt 0.000746 0.892486
vt 0.004293 0.896033
vt 0.098628 0.896033
vt 0.104479 0.893199
vt 0.101110 0.896698
vt 0.106426 0.895146
vt 0.102927 0.898515
vt 0.107139 0.897805
vt 0.103592 0.900997
vt 0.107139 0.993560
vt 0.109225 0.892503
vt 0.210299 0.892503
vt 0.207107 0.896050
vt 0.112772 0.896050
vt 0.212958 0.893216
vt 0.209589 0.896715
vt 0.214905 0.895163
vt 0.211406 0.898532
vt 0.215618 0.897823
vt 0.212071 0.901014
vt 0.215618 0.993577
vt 0.103592 0.990368
vt 0.106426 0.996219
vt 0.212071 0.990385
vt 0.102927 0.992850
vt 0.214905 0.996236
vt 0.104479 0.998166
vt 0.211406 0.992867
vt 0.101110 0.994667
vt 0.101820 0.998879
vt 0.212958 0.998183
vt 0.098628 0.995332
vt 0.209589 0.994684
vt 0.000746 0.998879
vt 0.004293 0.995332
vt 0.210299 0.998896
vt 0.207107 0.995350
vt 0.971305 0.006516
vt 0.109225 0.998896
vt 0.971305 0.461656
vt 0.112772 0.995350
vt 0.011183 0.889968
vt 0.005548 0.889968
vt 0.309370 0.889968
vt 0.303734 0.889968
vt 0.303734 0.454547
vt 0.309370 0.454547
vt 0.015675 0.439500
vt 0.020935 0.439500
vt 0.020935 0.454028
vt 0.015675 0.454028
vt 0.028120 0.439500
vt 0.028120 0.454028
vt 0.286798 0.454028
vt 0.286798 0.439500
vt 0.293983 0.454028
vt 0.293983 0.439500
vt 0.299242 0.454028
vt 0.299242 0.439500
vt 0.011183 0.003594
vt 0.018881 0.003594
vt 0.018881 0.438981
vt 0.011183 0.438982
vt 0.296036 0.438982
vt 0.296036 0.003594
vt 0.303734 0.438981
vt 0.303734 0.003594
vt 0.309370 0.438981
vt 0.309370 0.003594
vt 0.310590 0.935119
vt 0.624460 0.479943
vt 0.624460 0.935119
vt 0.321320 0.464214
vt 0.606755 0.464214
vt 0.606755 0.479401
vt 0.321320 0.479401
vt 0.614266 0.464214
vt 0.614266 0.479401
vt 0.310590 0.008532
vt 0.616413 0.008532
vt 0.616413 0.463672
vt 0.310590 0.463672
vt 0.624460 0.008532
vt 0.624460 0.463672
vt 0.655318 0.008532
vt 0.655318 0.463672
vt 0.971305 0.933103
vt 0.665482 0.933103
vt 0.665482 0.477928
vt 0.971305 0.477928
vt 0.657434 0.933103
vt 0.657434 0.477928
vt 0.675139 0.477385
vt 0.667628 0.477385
vt 0.667628 0.462199
vt 0.675139 0.462199
vt 0.960574 0.477385
vt 0.960574 0.462199
vt 0.665482 0.461656
vt 0.657434 0.461656
vt 0.657434 0.006516
vt 0.665482 0.006516
vn 0.000000 0.000000 1.000000
vn 0.006870 0.000000 0.999976
vn 0.006870 0.000000 0.999976
vn 0.000000 0.000000 1.000000
vn 0.000000 0.000000 -1.000000
vn 0.006870 0.000000 -0.999976
vn 0.006870 0.000000 -0.999976
vn 0.000000 0.000000 -1.000000
vn 0.999974 0.000000 0.007241
vn 0.999974 0.000000 0.007241
vn 0.999974 0.000000 -0.007241
vn 0.999974 0.000000 -0.007241
vn 0.258819 0.000000 0.965926
vn 0.258819 0.000000 0.965926
vn 0.707106 0.000000 0.707107
vn 0.707106 0.000000 0.707107
vn 0.707106 0.000000 0.707107
vn 0.707106 0.000000 0.707107
vn 0.965926 0.000000 0.258819
vn 0.965926 0.000000 0.258819
vn 0.258819 0.000000 -0.965926
vn 0.258819 0.000000 -0.965926
vn 0.707108 0.000000 -0.707105
vn 0.866026 0.000000 -0.500000
vn 0.866026 0.000000 -0.500000
vn 0.707108 0.000000 -0.707105
vn 0.000000 0.000000 1.000000
vn 0.006870 0.000000 0.999976
vn 0.006870 0.000000 0.999976
vn 0.000000 0.000000 1.000000
vn 0.258818 0.000000 0.965926
vn 0.258818 0.000000 0.965926
vn 0.707108 0.000000 0.707106
vn 0.707108 0.000000 0.707106
vn 0.707108 0.000000 0.707106
vn 0.707108 0.000000 0.707106
vn 0.965926 0.000000 0.258819
vn 0.999974 0.000000 0.007241
vn 0.999974 0.000000 0.007241
vn 0.965926 0.000000 0.258819
vn 0.999974 0.000000 -0.007241
vn 0.999974 0.000000 -0.007241
vn 0.866026 0.000000 -0.500000
vn 0.866025 0.000000 -0.500001
vn 0.707110 0.000000 -0.707104
vn 0.707110 0.000000 -0.707104
vn 0.006870 0.000000 -0.999976
vn 0.258818 0.000000 -0.965926
vn 0.258818 0.000000 -0.965926
vn 0.006870 0.000000 -0.999976
vn 0.000000 0.000000 -1.000000
vn 0.000000 0.000000 -1.000000
vn 0.000000 0.000000 1.000000
vn 0.006870 0.000000 0.999976
vn 0.006870 0.000000 0.999976
vn 0.000000 0.000000 1.000000
vn 0.258819 0.000000 0.965926
vn 0.258819 0.000000 0.965926
vn 0.707106 0.000000 0.707107
vn 0.707106 0.000000 0.707107
vn 0.707106 0.000000 0.707107
vn 0.707106 0.000000 0.707107
vn 0.965926 0.000000 0.258819
vn 0.999974 0.000000 0.007241
vn 0.999974 0.000000 0.007241
vn 0.965926 0.000000 0.258819
vn 0.999974 0.000000 -0.007241
vn 0.999974 0.000000 -0.007241
vn 0.866027 0.000000 -0.499998
vn 0.866026 0.000000 -0.499999
vn 0.707108 0.000000 -0.707105
vn 0.707108 0.000000 -0.707105
vn 0.006870 0.000000 -0.999976
vn 0.258819 0.000000 -0.965926
vn 0.258819 0.000000 -0.965926
vn 0.006870 0.000000 -0.999976
vn 0.000000 0.000000 -1.000000
vn 0.000000 0.000000 -1.000000
vn 0.000000 0.998725 0.050481
vn 0.000803 0.998761 0.049760
vn 0.000167 0.998733 0.050331
vn 0.000000 0.998725 0.050481
vn 0.000803 -0.998761 0.049758
vn 0.000000 -0.998725 0.050479
vn 0.000000 -0.998725 0.050479
vn 0.000167 -0.998733 0.050328
vn 0.020380 0.999294 0.031572
vn 0.017986 0.999264 0.033875
vn 0.020380 -0.999294 0.031570
vn 0.017986 -0.999264 0.033874
vn 0.031576 0.999294 0.020375
vn 0.033882 0.999264 0.017978
vn 0.031571 -0.999294 0.020377
vn 0.033874 -0.999264 0.017984
vn 0.049724 0.998763 0.000843
vn 0.050322 0.998733 0.000177
vn 0.049723 -0.998763 0.000844
vn 0.050322 -0.998733 0.000177
vn 0.049723 -0.998763 -0.000844
vn 0.050322 -0.998733 -0.000177
vn 0.049722 0.998763 -0.000844
vn 0.050322 0.998733 -0.000176
vn 0.031571 -0.999294 -0.020379
vn 0.033874 -0.999264 -0.017985
vn 0.031565 0.999294 -0.020385
vn 0.033866 0.999264 -0.017994
vn 0.020380 -0.999294 -0.031570
vn 0.017986 -0.999264 -0.033874
vn 0.020380 0.999294 -0.031570
vn 0.017986 0.999264 -0.033874
vn 0.000803 -0.998761 -0.049759
vn 0.000167 -0.998733 -0.050329
vn 0.000803 0.998761 -0.049760
vn 0.000167 0.998733 -0.050330
vn 0.000000 -0.998725 -0.050479
vn 0.000000 -0.998725 -0.050479
vn 0.000000 0.998725 -0.050481
vn 0.000000 0.998725 -0.050481
s 1
g nevera_cerrada
usemtl initialShadingGroup
f 21/3/1 22/6/2 10/7/3 2/80/4
s 2
f 3/97/5 15/98/6 29/99/7 30/100/8
s 3
f 9/1/9 25/2/10 26/4/11 16/5/12
s 1
f 22/6/2 23/81/13 11/82/14 10/7/3
s off
f 23/8/15 24/9/16 12/52/17 11/53/18
s 3
f 24/9/19 25/2/10 9/1/9 12/52/20
s 2
f 15/98/6 14/101/21 28/102/22 29/99/7
s 3
f 14/54/23 13/55/24 27/56/25 28/57/26
f 13/55/24 16/5/12 26/4/11 27/56/25
s 4
f 41/83/27 42/84/28 43/85/29 44/86/30
f 42/84/28 45/87/31 46/88/32 43/85/29
s off
f 45/58/33 47/59/34 48/60/35 46/61/36
s 5
f 47/59/37 49/62/38 50/63/39 48/60/40
f 51/64/41 50/63/39 49/62/38 52/65/42
f 53/66/43 51/64/41 52/65/42 54/67/44
f 55/68/45 53/66/43 54/67/44 56/69/46
s 6
f 57/103/47 55/104/48 56/105/49 58/106/50
f 59/107/51 57/103/47 58/106/50 60/108/52
s 7
f 1/89/53 8/90/54 32/91/55 31/92/56
f 8/90/54 7/93/57 33/94/58 32/91/55
s off
f 7/93/59 6/95/60 34/96/61 33/94/62
s 8
f 6/70/63 5/71/64 35/72/65 34/73/66
f 36/74/67 35/72/65 5/71/64 17/75/68
f 37/76/69 36/74/67 17/75/68 20/77/70
f 38/78/71 37/76/69 20/77/70 19/79/72
s 9
f 39/109/73 38/110/74 19/111/75 18/112/76
f 40/50/77 39/109/73 18/112/76 4/48/78
s 10
f 31/21/79 32/22/80 42/23/81 41/24/82
s 11
f 22/10/83 21/11/84 44/12/85 43/13/86
s 10
f 32/22/80 33/25/87 45/26/88 42/23/81
s 11
f 23/14/89 22/10/83 43/13/86 46/15/90
s 10
f 33/25/87 34/27/91 47/28/92 45/26/88
s 11
f 24/16/93 23/14/89 46/15/90 48/17/94
s 10
f 34/27/91 35/29/95 49/30/96 47/28/92
s 11
f 25/18/97 24/16/93 48/17/94 50/19/98
f 26/20/99 25/18/97 50/19/98 51/32/100
s 10
f 35/29/95 36/31/101 52/34/102 49/30/96
s 11
f 27/33/103 26/20/99 51/32/100 53/35/104
s 10
f 36/31/101 37/36/105 54/38/106 52/34/102
s 11
f 28/37/107 27/33/103 53/35/104 55/39/108
s 10
f 37/36/105 38/41/109 56/43/110 54/38/106
s 11
f 29/40/111 28/37/107 55/39/108 57/42/112
s 10
f 38/41/109 39/46/113 58/47/114 56/43/110
s 11
f 30/44/115 29/40/111 57/42/112 59/45/116
s 10
f 39/46/113 40/49/117 60/51/118 58/47/114
