# This file uses centimeters as units for non-parametric coordinates.

mtllib columna_1.mtl
g default
v -0.307915 -4.848498 0.402623
v 0.307915 -4.848498 0.402623
v -0.307915 4.848498 0.402623
v 0.307915 4.848498 0.402623
v -0.307915 4.848498 -0.402623
v 0.307915 4.848498 -0.402623
v -0.307915 -4.848498 -0.402623
v 0.307915 -4.848498 -0.402623
vt 0.220000 0.001992
vt 0.322714 0.001992
vt 0.322714 0.998008
vt 0.220000 0.998008
vt 0.329259 0.001992
vt 0.431973 0.001992
vt 0.431973 0.998008
vt 0.329259 0.998008
vt 0.438517 0.104706
vt 0.438517 0.001992
vt 0.541231 0.001992
vt 0.541231 0.104706
vt 0.547776 0.104706
vt 0.547776 0.001992
vt 0.650490 0.001992
vt 0.650490 0.104706
vt 0.001298 0.001992
vt 0.104012 0.001992
vt 0.104012 0.998008
vt 0.001298 0.998008
vt 0.110742 0.001992
vt 0.213456 0.001992
vt 0.213456 0.998008
vt 0.110742 0.998008
vn 0.000000 0.000000 1.000000
vn 0.000000 0.000000 1.000000
vn 0.000000 0.000000 1.000000
vn 0.000000 0.000000 1.000000
vn 0.000000 1.000000 0.000000
vn 0.000000 1.000000 0.000000
vn 0.000000 1.000000 0.000000
vn 0.000000 1.000000 0.000000
vn 0.000000 0.000000 -1.000000
vn 0.000000 0.000000 -1.000000
vn 0.000000 0.000000 -1.000000
vn 0.000000 0.000000 -1.000000
vn 0.000000 -1.000000 0.000000
vn 0.000000 -1.000000 0.000000
vn 0.000000 -1.000000 0.000000
vn 0.000000 -1.000000 0.000000
vn 1.000000 0.000000 0.000000
vn 1.000000 0.000000 0.000000
vn 1.000000 0.000000 0.000000
vn 1.000000 0.000000 0.000000
vn -1.000000 0.000000 0.000000
vn -1.000000 0.000000 0.000000
vn -1.000000 0.000000 0.000000
vn -1.000000 0.000000 0.000000
s off
g pCube214
usemtl initialShadingGroup
f 1/17/1 2/18/2 4/19/3 3/20/4
f 3/9/5 4/10/6 6/11/7 5/12/8
f 5/21/9 6/22/10 8/23/11 7/24/12
f 7/13/13 8/14/14 2/15/15 1/16/16
f 2/1/17 8/2/18 6/3/19 4/4/20
f 7/5/21 1/6/22 3/7/23 5/8/24
