# This file uses centimeters as units for non-parametric coordinates.

mtllib canaleta.mtl
g default
v -0.089177 -0.003014 2.228971
v 0.089177 -0.003014 2.228971
v -0.089177 -0.003014 -2.761253
v 0.089177 -0.003014 -2.761253
v -0.089177 0.006946 2.228971
v -0.059430 0.025759 2.228971
v -0.089177 0.006946 -2.761253
v -0.059430 0.025759 -2.761253
v 0.059430 0.025759 2.228971
v 0.089177 0.006946 2.228971
v 0.089177 0.006946 -2.761253
v 0.059430 0.025759 -2.761253
vt 0.016842 0.441215
vt 0.588512 0.439965
vt 0.987805 0.722785
vt 0.398956 0.441215
vt 0.012195 0.722785
vt 0.653598 0.695122
vt 0.335226 0.691057
vt 0.080572 0.691057
vt 0.012195 0.827222
vt 0.987805 0.827222
vt 0.016842 0.308943
vt 0.913670 0.695122
vt 0.398956 0.308943
vt 0.978756 0.439965
vt 0.182839 0.969573
vt 0.182839 0.892190
vt 0.817161 0.892190
vt 0.817161 0.969573
vt 0.024093 0.892190
vt 0.024093 0.969573
vt 0.975907 0.892190
vt 0.975907 0.969573
vt 0.987805 0.885001
vt 0.012195 0.885001
vt 0.012195 0.802103
vt 0.987805 0.802103
vt 0.978756 0.304878
vt 0.588512 0.304878
vn 0.000000 0.000000 1.000000
vn 0.000000 0.000000 1.000000
vn 0.000000 0.000000 1.000000
vn 0.000000 0.000000 1.000000
vn 0.000000 1.000000 0.000000
vn 0.000000 1.000000 0.000000
vn 0.000000 1.000000 0.000000
vn 0.000000 1.000000 0.000000
vn 1.000000 0.000000 0.000000
vn 1.000000 0.000000 0.000000
vn 1.000000 0.000000 0.000000
vn 1.000000 0.000000 0.000000
vn -1.000000 0.000000 0.000000
vn -1.000000 0.000000 0.000000
vn -1.000000 0.000000 0.000000
vn -1.000000 0.000000 0.000000
vn 0.000000 0.000000 -1.000000
vn 0.000000 0.000000 -1.000000
vn 0.000000 0.000000 -1.000000
vn 0.000000 0.000000 -1.000000
vn -0.534512 0.845161 0.000000
vn -0.534512 0.845161 0.000000
vn -0.534512 0.845161 0.000000
vn -0.534512 0.845161 0.000000
vn 0.534512 0.845161 0.000000
vn 0.534512 0.845161 0.000000
vn 0.534512 0.845161 0.000000
vn 0.534512 0.845161 0.000000
vn 0.000000 0.000000 1.000000
vn 0.000000 0.000000 1.000000
vn 0.000000 0.000000 -1.000000
vn 0.000000 0.000000 -1.000000
s 1
g pCube23
usemtl initialShadingGroup
f 5/1/1 10/4/2 9/7/3 6/8/4
s off
f 8/15/5 6/16/6 9/17/7 12/18/8
f 2/9/9 4/10/10 11/23/11 10/24/12
f 3/3/13 1/5/14 5/25/15 7/26/16
s 2
f 7/2/17 8/6/18 12/12/19 11/14/20
s off
f 5/19/21 6/16/22 8/15/23 7/20/24
f 9/17/25 10/21/26 11/22/27 12/18/28
s 1
f 1/11/29 2/13/30 10/4/2 5/1/1
s 2
f 7/2/17 11/14/20 4/27/31 3/28/32
