# This file uses centimeters as units for non-parametric coordinates.

mtllib barandilla.mtl
g default
v -0.128188 0.769621 -1.117331
v 0.128188 0.769621 -1.117331
v -0.128188 0.535205 -1.117331
v 0.128188 0.535205 -1.117331
v -0.128188 0.769621 1.117331
v -0.128188 0.769621 -0.773734
v 0.128188 0.769621 1.117331
v 0.128188 0.769621 -0.773734
v 0.128188 0.535205 -0.773734
v 0.128188 0.535205 1.117331
v -0.128188 0.535205 -0.773734
v -0.128188 0.535205 1.117331
v -0.128188 -0.769621 -1.117331
v 0.128188 -0.769621 -1.117331
v 0.128188 -0.769621 -0.773734
v -0.128188 -0.769621 -0.773734
v -0.128188 0.250461 1.117331
v 0.128188 0.250461 1.117331
v -0.128188 0.250461 -0.773735
v 0.128188 0.250461 -0.773735
v 0.128188 0.250461 -1.117331
v -0.128188 0.250461 -1.117331
v -0.128188 0.053673 1.117331
v 0.128188 0.053673 1.117331
v -0.128188 0.053673 -0.773735
v -0.128188 0.053673 -1.117331
v 0.128188 0.053673 -1.117331
v 0.128188 0.053673 -0.773735
vt 0.600813 0.906603
vt 0.600887 0.961475
vt 0.528672 0.906603
vt 0.472938 0.905329
vt 0.399976 0.905328
vt 0.399976 0.856323
vt 0.528288 0.856323
vt 0.601223 0.856396
vt 0.996075 0.856323
vt 0.529057 0.961475
vt 0.996150 0.906603
vt 0.472938 0.856322
vt 0.996224 0.961475
vt 0.138791 0.513026
vt 0.004639 0.905328
vt 0.138791 0.442921
vt 0.004639 0.856323
vt 0.655897 0.442921
vt 0.655897 0.513026
vt 0.648027 0.227117
vt 0.648026 0.297222
vt 0.554071 0.297222
vt 0.554071 0.227117
vt 0.142074 0.416865
vt 0.142074 0.346760
vt 0.659181 0.346760
vt 0.659181 0.416865
vt 0.036964 0.297222
vt 0.036964 0.227117
vt 0.554071 0.227117
vt 0.472938 0.796795
vt 0.528288 0.796795
vt 0.554071 0.297222
vt 0.601223 0.796869
vt 0.600739 0.755656
vt 0.528288 0.755656
vt 0.528288 0.583542
vt 0.600739 0.583542
vt 0.996076 0.755656
vt 0.996076 0.796795
vt 0.399976 0.796795
vt 0.472938 0.755656
vt 0.399745 0.755066
vt 0.399745 0.582953
vt 0.472938 0.583542
vt 0.004639 0.796795
vt 0.004639 0.755656
vt 0.345919 0.754477
vt 0.345919 0.582364
vt 0.655303 0.856469
vt 0.655303 0.796942
vn 0.000000 1.000000 0.000000
vn 0.000000 1.000000 0.000000
vn 0.000000 1.000000 0.000000
vn 0.000000 1.000000 0.000000
vn 0.000000 0.000000 -1.000000
vn 0.000000 0.000000 -1.000000
vn 0.000000 0.000000 -1.000000
vn 0.000000 0.000000 -1.000000
vn 0.000000 -1.000000 0.000000
vn 0.000000 -1.000000 0.000000
vn 0.000000 -1.000000 0.000000
vn 0.000000 -1.000000 0.000000
vn 1.000000 0.000000 0.000000
vn 1.000000 0.000000 0.000000
vn 1.000000 0.000000 0.000000
vn 1.000000 0.000000 0.000000
vn 0.000000 -1.000000 0.000000
vn 0.000000 -1.000000 0.000000
vn 0.000000 -1.000000 0.000000
vn 0.000000 -1.000000 0.000000
vn 1.000000 0.000000 0.000000
vn 1.000000 0.000000 0.000000
vn 0.000000 1.000000 0.000000
vn 0.000000 1.000000 0.000000
vn -1.000000 -0.000000 0.000000
vn -1.000000 -0.000000 0.000000
vn -1.000000 -0.000000 0.000000
vn -1.000000 -0.000000 0.000000
vn -1.000000 -0.000000 0.000000
vn -1.000000 -0.000000 0.000000
vn 0.000000 0.000000 -1.000000
vn 0.000000 0.000000 -1.000000
vn 1.000000 0.000000 0.000000
vn 1.000000 0.000000 0.000000
vn 0.000000 -0.000001 1.000000
vn 0.000000 -0.000001 1.000000
vn 0.000000 -0.000001 1.000000
vn 0.000000 -0.000001 1.000000
vn -1.000000 0.000000 0.000000
vn -1.000000 0.000000 0.000000
vn 0.000000 0.000000 1.000000
vn 0.000000 0.000000 1.000000
vn 0.000000 0.000000 1.000000
vn 0.000000 0.000000 1.000000
vn 1.000000 -0.000000 0.000000
vn 1.000000 -0.000000 0.000000
vn 1.000000 -0.000000 0.000000
vn 1.000000 -0.000000 0.000000
vn 0.000000 0.000000 -1.000000
vn 0.000000 0.000000 -1.000000
vn 0.000000 0.000000 -1.000000
vn 0.000000 0.000000 -1.000000
vn -1.000000 -0.000000 0.000000
vn -1.000000 -0.000000 0.000000
vn -1.000000 -0.000000 0.000000
vn -1.000000 -0.000000 0.000000
vn -1.000000 0.000000 0.000000
vn -1.000000 0.000000 0.000000
vn -1.000000 0.000000 0.000000
vn -1.000000 0.000000 0.000000
vn 0.000000 1.000000 0.000000
vn 0.000000 1.000000 0.000000
vn 0.000000 1.000000 0.000000
vn 0.000000 1.000000 0.000000
vn 1.000000 0.000000 0.000000
vn 1.000000 0.000000 0.000000
vn 1.000000 0.000000 0.000000
vn 1.000000 0.000000 0.000000
vn 0.000000 -1.000000 0.000000
vn 0.000000 -1.000000 0.000000
vn 0.000000 -1.000000 0.000000
vn 0.000000 -1.000000 0.000000
s 1
g pCube207 group25
usemtl initialShadingGroup
f 6/1/1 8/2/2 2/10/3 1/3/4
s 2
f 1/3/5 2/4/6 4/12/7 3/7/8
s off
f 13/20/9 14/21/10 15/22/11 16/23/12
s 3
f 8/5/13 9/6/14 4/12/15 2/4/16
s off
f 11/14/17 9/16/18 10/18/19 12/19/20
s 3
f 7/15/21 10/17/22 9/6/14 8/5/13
s 1
f 6/1/1 5/11/23 7/13/24 8/2/2
s 4
f 3/7/25 11/8/26 12/9/27 5/11/28 6/1/29 1/3/30
s 2
f 3/7/8 4/12/7 21/31/31 22/32/32
s 3
f 4/12/15 9/6/14 20/41/33 21/31/34
s off
f 9/50/35 11/8/36 19/34/37 20/51/38
s 4
f 11/8/26 3/7/25 22/32/39 19/34/40
s off
f 28/43/41 25/48/42 16/49/43 15/44/44
s 3
f 27/42/45 28/43/46 15/44/47 14/45/48
s 2
f 26/36/49 27/42/50 14/45/51 13/37/52
s 4
f 25/35/53 26/36/54 13/37/55 16/38/56
f 19/34/40 22/32/39 26/36/54 25/35/53
s 2
f 22/32/32 21/31/31 27/42/50 26/36/49
s 3
f 21/31/34 20/41/33 28/43/46 27/42/45
s off
f 23/39/57 17/40/58 19/34/59 25/35/60
f 17/24/61 18/25/62 20/26/63 19/27/64
f 18/46/65 24/47/66 28/43/67 20/41/68
f 24/28/69 23/29/70 25/30/71 28/33/72
