# This file uses centimeters as units for non-parametric coordinates.

mtllib prop_estanteria.mtl
g default
v -0.207294 0.359310 -1.381960
v -0.207294 0.359310 1.381960
v -0.207294 0.317847 -1.381960
v -0.207294 0.288534 -1.369818
v -0.207294 0.276392 -1.340505
v -0.207294 0.317847 1.381960
v -0.207294 0.276392 1.340505
v -0.207294 0.288534 1.369818
v 0.195152 0.288534 -1.183270
v 0.186022 0.288534 -1.240917
v 0.159525 0.288534 -1.292920
v 0.118254 0.288534 -1.334191
v 0.066251 0.288534 -1.360688
v 0.008604 0.288534 -1.369818
v 0.165839 0.276392 -1.153958
v -0.020709 0.276392 -1.340505
v 0.036938 0.276392 -1.331375
v 0.088941 0.276392 -1.304878
v 0.130212 0.276392 -1.263608
v 0.156709 0.276392 -1.211604
v -0.020709 0.276392 1.340505
v 0.165839 0.276392 1.153958
v 0.156709 0.276392 1.211604
v 0.130212 0.276392 1.263608
v 0.088941 0.276392 1.304878
v 0.036938 0.276392 1.331375
v 0.195152 0.288534 1.178599
v 0.186251 0.288534 1.237689
v 0.160419 0.288534 1.290995
v 0.120184 0.288534 1.333299
v 0.069485 0.288534 1.360459
v 0.013285 0.288534 1.369818
v 0.207294 0.317847 -1.195412
v 0.198164 0.317847 -1.253059
v 0.171667 0.317847 -1.305062
v 0.130396 0.317847 -1.346333
v 0.078393 0.317847 -1.372830
v 0.020746 0.317847 -1.381960
v 0.020746 0.317847 1.381960
v 0.078393 0.317847 1.372830
v 0.130396 0.317847 1.346333
v 0.171667 0.317847 1.305062
v 0.198164 0.317847 1.253059
v 0.207294 0.317847 1.195412
v 0.078393 0.359310 1.372830
v 0.130396 0.359310 1.346333
v 0.171667 0.359310 1.305062
v 0.198164 0.359310 1.253059
v 0.207294 0.359310 1.195412
v 0.020746 0.359310 1.381960
v 0.198164 0.359310 -1.253059
v 0.171667 0.359310 -1.305062
v 0.130396 0.359310 -1.346333
v 0.078393 0.359310 -1.372830
v 0.020746 0.359310 -1.381960
v 0.207294 0.359310 -1.195412
vt 0.193105 0.098103
vt 0.182425 0.115422
vt 0.170886 0.113069
vt 0.181811 0.093853
vt 0.176995 0.135243
vt 0.165264 0.134425
vt 0.156824 0.108172
vt 0.168951 0.085658
vt 0.237510 0.029941
vt 0.247072 0.037413
vt 0.177605 0.156189
vt 0.165504 0.156567
vt 0.150479 0.133109
vt 0.225383 0.020519
vt 0.150924 0.159116
vt 0.980419 0.774750
vt 0.915066 0.830994
vt 0.906919 0.818354
vt 0.971071 0.762553
vt 0.887754 0.829379
vt 0.892936 0.843244
vt 0.903910 0.805990
vt 0.963644 0.752947
vt 0.886283 0.817290
vt 0.866455 0.835249
vt 0.868161 0.849936
vt 0.866244 0.823372
vt 0.844293 0.835210
vt 0.842116 0.849830
vt 0.845295 0.823289
vt 0.887444 0.801771
vt 0.905176 0.789645
vt 0.866989 0.808199
vt 0.210622 0.095520
vt 0.256811 0.045248
vt 0.955924 0.743129
vt 0.845757 0.808304
vt 0.825666 0.801925
vt 0.808496 0.789482
vt 0.211249 0.192221
vt 0.198814 0.175057
vt 0.192392 0.154935
vt 0.192375 0.133656
vt 0.198633 0.113183
vt 0.825183 0.817122
vt 0.807977 0.805402
vt 0.196540 0.193947
vt 0.184309 0.176474
vt 0.805681 0.845791
vt 0.812298 0.866168
vt 0.812290 0.887591
vt 0.805659 0.907961
vt 0.793054 0.925285
vt 0.733822 0.984437
vt 0.016282 0.266712
vt 0.075502 0.207559
vt 0.092841 0.194977
vt 0.113223 0.188368
vt 0.134653 0.188380
vt 0.155034 0.195011
vt 0.172371 0.207612
vt 0.793088 0.828453
vt 0.171910 0.178038
vt 0.183661 0.197476
vt 0.158457 0.184335
vt 0.803229 0.817086
vt 0.822708 0.828924
vt 0.816661 0.842471
vn 0.024295 -0.643206 -0.765308
vn 0.195691 -0.769006 -0.608552
vn 0.000233 -1.000000 -0.000832
vn 0.000036 -0.999998 -0.002146
vn 0.195691 -0.769006 -0.608552
vn 0.355251 -0.795970 -0.490131
vn 0.000498 -1.000000 -0.000705
vn 0.000233 -1.000000 -0.000832
vn 0.355251 -0.795970 -0.490131
vn 0.490132 -0.795969 -0.355251
vn 0.000705 -1.000000 -0.000498
vn 0.000498 -1.000000 -0.000705
vn 0.490132 -0.795969 -0.355251
vn 0.608553 -0.769005 -0.195691
vn 0.000832 -1.000000 -0.000233
vn 0.000705 -1.000000 -0.000498
vn 0.608553 -0.769005 -0.195691
vn 0.809111 -0.587648 -0.002899
vn 0.021408 -0.999771 -0.000035
vn 0.000832 -1.000000 -0.000233
vn 0.027412 -0.645525 0.763247
vn 0.204617 -0.770375 0.603866
vn 0.311227 -0.198959 0.929276
vn 0.034672 -0.162434 0.986110
vn 0.204617 -0.770375 0.603866
vn 0.363859 -0.796034 0.483671
vn 0.577501 -0.221938 0.785643
vn 0.311227 -0.198959 0.929276
vn 0.363859 -0.796034 0.483671
vn 0.496338 -0.795931 0.346615
vn 0.786632 -0.230446 0.572805
vn 0.577501 -0.221938 0.785643
vn 0.496338 -0.795931 0.346615
vn 0.613092 -0.767530 0.187128
vn 0.925318 -0.216775 0.311120
vn 0.786632 -0.230446 0.572805
vn 0.613092 -0.767530 0.187128
vn 0.806060 -0.591828 0.002483
vn 0.990568 -0.136940 0.004660
vn 0.925318 -0.216775 0.311120
vn 0.021408 -0.999771 -0.000035
vn 0.809111 -0.587648 -0.002899
vn 0.806060 -0.591828 0.002483
vn 0.020687 -0.999786 0.000037
vn 0.809111 -0.587648 -0.002899
vn 0.989331 -0.145617 -0.004396
vn 0.990568 -0.136940 0.004660
vn 0.806060 -0.591828 0.002483
vn 0.989331 -0.145617 -0.004396
vn 0.999993 0.000000 -0.003729
vn 0.999993 0.000000 0.003729
vn 0.990568 -0.136940 0.004660
vn 0.034672 -0.162434 0.986110
vn 0.031943 0.000000 0.999490
vn 0.000000 0.000000 1.000000
vn 0.000000 -0.167495 0.985873
vn -0.000000 0.000000 -1.000000
vn 0.031943 0.000000 -0.999490
vn 0.036509 -0.158810 -0.986634
vn -0.000000 -0.166490 -0.986043
vn 0.036509 -0.158810 -0.986634
vn 0.024295 -0.643206 -0.765308
vn -0.000000 -0.692619 -0.721304
vn -0.000000 -0.166490 -0.986043
vn 0.024295 -0.643206 -0.765308
vn 0.000036 -0.999998 -0.002146
vn 0.000000 -0.999997 -0.002467
vn -0.000000 -0.692619 -0.721304
vn 0.000034 -0.999998 0.002210
vn 0.027412 -0.645525 0.763247
vn 0.000000 -0.692779 0.721150
vn 0.000000 -0.999997 0.002496
vn 0.027412 -0.645525 0.763247
vn 0.034672 -0.162434 0.986110
vn 0.000000 -0.167495 0.985873
vn 0.000000 -0.692779 0.721150
vn 0.000034 -0.999998 0.002210
vn 0.000000 -0.999997 0.002496
vn 0.000000 -0.999997 -0.002467
vn 0.000036 -0.999998 -0.002146
vn 0.000233 -1.000000 -0.000832
vn 0.000498 -1.000000 -0.000705
vn 0.000705 -1.000000 -0.000498
vn 0.000832 -1.000000 -0.000233
vn 0.021408 -0.999771 -0.000035
vn 0.020687 -0.999786 0.000037
vn 0.000840 -1.000000 0.000234
vn 0.000712 -1.000000 0.000494
vn 0.000501 -1.000000 0.000699
vn 0.000231 -1.000000 0.000823
vn 0.000000 1.000000 -0.000000
vn 0.000000 1.000000 -0.000000
vn 0.000000 1.000000 -0.000000
vn 0.000000 1.000000 -0.000000
vn 0.000000 1.000000 -0.000000
vn 0.000000 1.000000 -0.000000
vn 0.000000 1.000000 -0.000000
vn 0.000000 1.000000 -0.000000
vn 0.000000 1.000000 -0.000000
vn 0.000000 1.000000 -0.000000
vn 0.000000 1.000000 -0.000000
vn 0.000000 1.000000 -0.000000
vn 0.000000 1.000000 -0.000000
vn 0.000000 1.000000 -0.000000
vn 0.195691 -0.769006 -0.608552
vn 0.024295 -0.643206 -0.765308
vn 0.036509 -0.158810 -0.986634
vn 0.311313 -0.208143 -0.927233
vn 0.355251 -0.795970 -0.490131
vn 0.195691 -0.769006 -0.608552
vn 0.311313 -0.208143 -0.927233
vn 0.575113 -0.226713 -0.786032
vn 0.490132 -0.795969 -0.355251
vn 0.355251 -0.795970 -0.490131
vn 0.575113 -0.226713 -0.786032
vn 0.786033 -0.226713 -0.575112
vn 0.809111 -0.587648 -0.002899
vn 0.608553 -0.769005 -0.195691
vn 0.927233 -0.208142 -0.311313
vn 0.989331 -0.145617 -0.004396
vn 0.608553 -0.769005 -0.195691
vn 0.490132 -0.795969 -0.355251
vn 0.786033 -0.226713 -0.575112
vn 0.927233 -0.208142 -0.311313
vn 0.000034 -0.999998 0.002210
vn 0.000231 -1.000000 0.000823
vn 0.204617 -0.770375 0.603866
vn 0.027412 -0.645525 0.763247
vn 0.000231 -1.000000 0.000823
vn 0.000501 -1.000000 0.000699
vn 0.363859 -0.796034 0.483671
vn 0.204617 -0.770375 0.603866
vn 0.000501 -1.000000 0.000699
vn 0.000712 -1.000000 0.000494
vn 0.496338 -0.795931 0.346615
vn 0.363859 -0.796034 0.483671
vn 0.000712 -1.000000 0.000494
vn 0.000840 -1.000000 0.000234
vn 0.613092 -0.767530 0.187128
vn 0.496338 -0.795931 0.346615
vn 0.000840 -1.000000 0.000234
vn 0.020687 -0.999786 0.000037
vn 0.806060 -0.591828 0.002483
vn 0.613092 -0.767530 0.187128
vn 0.311313 -0.208143 -0.927233
vn 0.036509 -0.158810 -0.986634
vn 0.031943 0.000000 -0.999490
vn 0.309017 0.000000 -0.951057
vn 0.575113 -0.226713 -0.786032
vn 0.311313 -0.208143 -0.927233
vn 0.309017 0.000000 -0.951057
vn 0.587786 0.000000 -0.809017
vn 0.786033 -0.226713 -0.575112
vn 0.575113 -0.226713 -0.786032
vn 0.587786 0.000000 -0.809017
vn 0.809017 0.000000 -0.587785
vn 0.989331 -0.145617 -0.004396
vn 0.927233 -0.208142 -0.311313
vn 0.951056 0.000000 -0.309017
vn 0.999993 0.000000 -0.003729
vn 0.927233 -0.208142 -0.311313
vn 0.786033 -0.226713 -0.575112
vn 0.809017 0.000000 -0.587785
vn 0.951056 0.000000 -0.309017
vn 0.925318 -0.216775 0.311120
vn 0.990568 -0.136940 0.004660
vn 0.999993 0.000000 0.003729
vn 0.951056 0.000000 0.309017
vn 0.786632 -0.230446 0.572805
vn 0.925318 -0.216775 0.311120
vn 0.951056 0.000000 0.309017
vn 0.809017 0.000000 0.587785
vn 0.577501 -0.221938 0.785643
vn 0.786632 -0.230446 0.572805
vn 0.809017 0.000000 0.587785
vn 0.587786 0.000000 0.809017
vn 0.034672 -0.162434 0.986110
vn 0.311227 -0.198959 0.929276
vn 0.309017 0.000000 0.951057
vn 0.031943 0.000000 0.999490
vn 0.311227 -0.198959 0.929276
vn 0.577501 -0.221938 0.785643
vn 0.587786 0.000000 0.809017
vn 0.309017 0.000000 0.951057
s off
g estanteria
usemtl pCube1SG
f 14/22/1 13/24/2 17/31/3 16/32/4
f 13/24/5 12/27/6 18/33/7 17/31/8
f 12/27/9 11/30/10 19/37/11 18/33/12
f 11/30/13 10/45/14 20/38/15 19/37/16
f 10/45/17 9/46/18 15/39/19 20/38/20
f 32/1/21 31/2/22 40/3/23 39/4/24
f 31/2/25 30/5/26 41/6/27 40/3/28
f 30/5/29 29/11/30 42/12/31 41/6/32
f 29/11/33 28/48/34 43/63/35 42/12/36
f 28/48/37 27/47/38 44/64/39 43/63/40
f 15/39/41 9/46/42 27/47/43 22/40/44
f 9/46/45 33/66/46 44/64/47 27/47/48
f 33/66/49 56/62/50 49/61/51 44/64/52
f 39/4/53 50/8/54 2/14/55 6/9/56
f 1/16/57 55/17/58 38/18/59 3/19/60
f 38/18/61 14/22/62 4/23/63 3/19/64
f 14/22/65 16/32/66 5/36/67 4/23/68
f 21/34/69 32/1/70 8/10/71 7/35/72
f 32/1/73 39/4/74 6/9/75 8/10/76
f 21/34/77 7/35/78 5/36/79 16/32/80 17/31/81 18/33/82 19/37/83 20/38/84 15/39/85 22/40/86 23/41/87 24/42/88 25/43/89 26/44/90
f 51/49/91 52/50/92 53/51/93 54/52/94 55/53/95 1/54/96 2/55/97 50/56/98 45/57/99 46/58/100 47/59/101 48/60/102 49/61/103 56/62/104
f 13/24/105 14/22/106 38/18/107 37/20/108
f 12/27/109 13/24/110 37/20/111 36/25/112
f 11/30/113 12/27/114 36/25/115 35/28/116
f 9/46/117 10/45/118 34/67/119 33/66/120
f 10/45/121 11/30/122 35/28/123 34/67/124
f 21/34/125 26/44/126 31/2/127 32/1/128
f 26/44/129 25/43/130 30/5/131 31/2/132
f 25/43/133 24/42/134 29/11/135 30/5/136
f 24/42/137 23/41/138 28/48/139 29/11/140
f 23/41/141 22/40/142 27/47/143 28/48/144
f 37/20/145 38/18/146 55/17/147 54/21/148
f 36/25/149 37/20/150 54/21/151 53/26/152
f 35/28/153 36/25/154 53/26/155 52/29/156
f 33/66/157 34/67/158 51/68/159 56/62/160
f 34/67/161 35/28/162 52/29/163 51/68/164
f 43/63/165 44/64/166 49/61/167 48/65/168
f 42/12/169 43/63/170 48/65/171 47/15/172
f 41/6/173 42/12/174 47/15/175 46/13/176
f 39/4/177 40/3/178 45/7/179 50/8/180
f 40/3/181 41/6/182 46/13/183 45/7/184
g default
v -0.207294 0.276392 -1.105570
v -0.207294 0.276392 -1.050292
v 0.049556 0.276392 -1.105569
v 0.069098 0.276392 -1.091751
v -0.207294 0.019542 -1.105570
v -0.207294 0.000000 -1.091752
v 0.049556 0.276392 -1.050292
v 0.069098 0.276392 -1.064110
v -0.207294 0.019542 -1.050292
v -0.207294 -0.000000 -1.064110
vt 0.781963 0.458178
vt 0.768742 0.029395
vt 0.986243 0.246677
vt 0.745548 0.012773
vt 0.759774 0.474179
vt 0.486983 0.239835
vt 0.691263 0.028333
vt 0.704484 0.457116
vt 0.713451 0.012333
vt 0.727678 0.473739
vn 0.689598 -0.689597 0.221158
vn 0.689598 -0.689597 0.221159
vn 0.689597 -0.689596 -0.221163
vn 0.689598 -0.689596 -0.221162
vn 0.206538 -0.206537 0.956391
vn 0.206538 -0.206537 0.956391
vn 0.000000 0.000000 1.000000
vn 0.000006 0.000000 -1.000000
vn 0.206543 -0.206537 -0.956390
vn 0.206542 -0.206537 -0.956391
s 1
g estanteria pCube3
usemtl pCube1SG
f 64/72/185 66/73/186 62/78/187 60/77/188
f 65/69/189 63/70/190 58/71/191
f 57/74/192 59/75/193 61/76/194
f 59/75/193 60/77/188 62/78/187 61/76/194
f 64/72/185 63/70/190 65/69/189 66/73/186
