# This file uses centimeters as units for non-parametric coordinates.

mtllib suelo_1.mtl
g default
v -25.852480 -0.645401 26.192925
v -25.852480 0.116227 26.192925
v 25.838584 0.116227 26.192925
v 25.838584 -0.645401 26.192925
v -19.569175 0.116227 26.192925
v 19.555273 0.116227 26.192925
v 19.555273 -0.645401 26.192925
v -19.569175 -0.645401 26.192925
v -25.852480 -0.645401 20.737908
v -19.569175 -0.645401 20.737908
v 19.555273 -0.645401 20.737908
v 25.838584 -0.645401 20.737908
v 25.838584 0.116227 20.737908
v 19.555273 0.116227 20.737908
v -19.569175 0.116227 20.737908
v -25.852480 0.116227 20.737908
vt 0.849834 0.082646
vt 0.849833 0.060968
vt 0.981508 0.222991
vt 0.870438 0.275740
vt 0.990395 0.275740
vt 0.966343 0.060968
vt 0.966864 0.083637
vt 0.124357 0.082646
vt 0.007845 0.060968
vt 0.124357 0.226149
vt 0.124357 0.060968
vt 0.990396 0.500808
vt 0.870438 0.500808
vt 0.007845 0.082646
vt 0.123493 0.275740
vt 0.849834 0.248249
vt 0.124357 0.248249
vt 0.123493 0.500808
vt 0.966864 0.223179
vt 0.849834 0.226149
vt 0.007845 0.223362
vt 0.981508 0.084634
vt 0.003536 0.275740
vt 0.003532 0.500808
vn 0.000000 0.000000 1.000000
vn 0.000000 0.000000 1.000000
vn 0.000000 0.000000 1.000000
vn 0.000000 0.000000 1.000000
vn 0.000000 0.000000 1.000000
vn 0.000000 0.000000 1.000000
vn 0.000000 0.000000 1.000000
vn 0.000000 0.000000 1.000000
vn 0.000000 1.000000 0.000000
vn 0.000000 1.000000 0.000000
vn 0.000000 1.000000 0.000000
vn 0.000000 1.000000 0.000000
vn 0.000000 1.000000 0.000000
vn 0.000000 1.000000 0.000000
vn 0.000000 1.000000 0.000000
vn 0.000000 1.000000 0.000000
vn 1.000000 0.000000 -0.000000
vn 1.000000 0.000000 -0.000000
vn 1.000000 0.000000 -0.000000
vn 1.000000 0.000000 -0.000000
vn 0.000000 -1.000000 0.000000
vn 0.000000 -1.000000 0.000000
vn 0.000000 -1.000000 0.000000
vn 0.000000 -1.000000 0.000000
vn 0.000000 -1.000000 0.000000
vn 0.000000 -1.000000 0.000000
vn 0.000000 -1.000000 0.000000
vn 0.000000 -1.000000 0.000000
vn -0.000000 0.000000 -1.000000
vn -0.000000 0.000000 -1.000000
vn -0.000000 0.000000 -1.000000
vn -0.000000 0.000000 -1.000000
s 1
g textureEditorIsolateSelectSet pCube22
usemtl initialShadingGroup
f 6/1/1 7/2/2 4/6/3 3/7/4
f 1/9/5 8/11/6 5/8/7 2/14/8
f 5/8/7 8/11/6 7/2/2 6/1/1
s 2
f 5/8/9 15/10/10 16/21/11 2/14/12
f 14/20/13 15/10/10 5/8/9 6/1/14
f 13/19/15 14/20/13 6/1/14 3/7/16
s off
f 12/3/17 13/19/18 3/7/19 4/22/20
s 3
f 11/4/21 12/5/22 4/12/23 7/13/24
f 10/15/25 11/4/21 7/13/24 8/18/26
f 9/23/27 10/15/25 8/18/26 1/24/28
s off
f 11/16/29 10/17/30 15/10/31 14/20/32
