# This file uses centimeters as units for non-parametric coordinates.

mtllib prop_peonLow.mtl
g default
v 0.013854 0.000000 -0.008233
v -0.013854 0.000000 -0.008233
v -0.013854 0.000000 0.008233
v 0.013854 0.000000 0.008233
v 0.015419 0.006324 -0.009163
v -0.015419 0.006324 -0.009163
v -0.015419 0.006324 0.009163
v 0.015419 0.006324 0.009163
v 0.010624 0.011775 -0.006313
v -0.010624 0.011775 -0.006313
v -0.010624 0.011775 0.006313
v 0.010624 0.011775 0.006313
v 0.004745 0.043305 -0.003533
v -0.004745 0.043305 -0.003533
v -0.004745 0.043305 0.003533
v 0.004745 0.043305 0.003533
v 0.009278 0.056823 -0.005514
v -0.009278 0.056823 -0.005514
v -0.009278 0.056823 0.005514
v 0.009278 0.056823 0.005514
v 0.002930 0.066735 -0.002181
v -0.002930 0.066735 -0.002181
v -0.002930 0.066735 0.002181
v 0.002930 0.066735 0.002181
v 0.000000 0.000000 -0.014946
v 0.000000 0.006324 -0.016634
v 0.000000 0.011775 -0.011461
v 0.000000 0.043305 -0.006413
v 0.000000 0.056823 -0.010009
v 0.000000 0.066735 -0.003546
v 0.000000 0.066735 0.003546
v 0.000000 0.056823 0.010009
v -0.000000 0.043305 0.006413
v 0.000000 0.011775 0.011461
v 0.000000 0.006324 0.016634
v 0.000000 0.000000 0.014946
vt 0.815088 0.203112
vt 0.022154 0.204689
vt 0.048328 0.272123
vt 0.198030 0.193159
vt 0.171877 0.125692
vt 0.344876 0.080520
vt 0.355675 0.149536
vt 0.507022 0.147046
vt 0.507944 0.077638
vt 0.671894 0.085644
vt 0.657135 0.157596
vt 0.779693 0.278903
vt 0.112865 0.325760
vt 0.230463 0.265946
vt 0.370439 0.233207
vt 0.506097 0.224573
vt 0.641880 0.237260
vt 0.281493 0.622243
vt 0.652187 0.610239
vt 0.428117 0.587792
vt 0.342019 0.602004
vt 0.568416 0.588009
vt 0.498367 0.585774
vt 0.558391 0.958198
vt 0.543598 0.912155
vt 0.589355 0.878780
vt 0.626150 0.900094
vt 0.643469 0.947602
vt 0.600238 0.982440
vt 0.254027 0.793783
vt 0.651412 0.759474
vt 0.425255 0.733839
vt 0.343854 0.760485
vt 0.568175 0.741845
vt 0.497225 0.727765
vt 0.370710 0.892358
vt 0.456333 0.862693
vt 0.401261 0.872874
vt 0.539196 0.861700
vt 0.497809 0.854532
vt 0.843078 0.140307
vt 0.989346 0.223770
vt 0.961077 0.290563
vt 0.894874 0.342570
vt 0.712464 0.631350
vt 0.740205 0.796259
vn 0.840256 0.216938 -0.496898
vn 0.823867 -0.276597 -0.494709
vn -0.000000 -0.257903 -0.966171
vn -0.000000 0.213998 -0.976834
vn -0.840258 0.216934 -0.496897
vn -0.823865 -0.276602 -0.494711
vn -0.823864 -0.276605 0.494709
vn -0.840257 0.216931 0.496899
vn 0.000000 0.213993 0.976835
vn 0.000000 -0.257912 0.966168
vn 0.823863 -0.276603 0.494712
vn 0.840257 0.216935 0.496897
vn 0.803847 0.389094 -0.449929
vn -0.000000 0.355839 -0.934547
vn -0.803847 0.389093 -0.449930
vn -0.803848 0.389093 0.449928
vn -0.000000 0.355839 0.934547
vn 0.803847 0.389094 0.449929
vn -0.000000 0.038477 -0.999260
vn 0.871239 0.039880 -0.489237
vn -0.871239 0.039880 0.489237
vn -0.871238 0.039880 -0.489239
vn 0.871238 0.039880 0.489238
vn -0.000001 0.038478 0.999259
vn -0.000001 0.052220 -0.998636
vn 0.881512 0.034147 -0.470925
vn -0.881511 0.034146 0.470927
vn -0.881511 0.034146 -0.470926
vn 0.881511 0.034147 0.470927
vn -0.000000 0.052220 0.998636
vn -0.000001 0.705983 -0.708229
vn 0.602412 0.713505 -0.357784
vn -0.602409 0.713506 0.357788
vn -0.602410 0.713506 -0.357787
vn 0.602411 0.713506 0.357786
vn 0.000000 0.705984 0.708228
s 1
g PeonLow
usemtl PeonLowSG
f 5/1/1 1/41/2 25/42/3 26/43/4
f 6/4/5 2/5/6 3/6/7 7/7/8
f 35/8/9 36/9/10 4/10/11 8/11/12
f 8/11/12 4/10/11 1/41/2 5/1/1
f 9/12/13 5/1/1 26/43/4 27/44/14
f 10/14/15 6/4/5 7/7/8 11/15/16
f 34/16/17 35/8/9 8/11/12 12/17/18
f 12/17/18 8/11/12 5/1/1 9/12/13
f 27/44/14 28/45/19 13/19/20 9/12/13
f 11/15/16 15/20/21 14/21/22 10/14/15
f 12/17/18 16/22/23 33/23/24 34/16/17
f 9/12/13 13/19/20 16/22/23 12/17/18
f 28/45/19 29/46/25 17/31/26 13/19/20
f 15/20/21 19/32/27 18/33/28 14/21/22
f 16/22/23 20/34/29 32/35/30 33/23/24
f 13/19/20 17/31/26 20/34/29 16/22/23
f 29/46/25 30/27/31 21/26/32 17/31/26
f 19/32/27 23/37/33 22/38/34 18/33/28
f 20/34/29 24/39/35 31/40/36 32/35/30
f 17/31/26 21/26/32 24/39/35 20/34/29
f 31/24/36 24/25/35 21/26/32 30/27/31 22/28/34 23/29/33
f 26/3/4 25/2/3 2/5/6 6/4/5
f 27/13/14 26/3/4 6/4/5 10/14/15
f 10/14/15 14/21/22 28/18/19 27/13/14
f 14/21/22 18/33/28 29/30/25 28/18/19
f 18/33/28 22/38/34 30/36/31 29/30/25
f 31/40/36 23/37/33 19/32/27 32/35/30
f 32/35/30 19/32/27 15/20/21 33/23/24
f 33/23/24 15/20/21 11/15/16 34/16/17
f 11/15/16 7/7/8 35/8/9 34/16/17
f 7/7/8 3/6/7 36/9/10 35/8/9
