# This file uses centimeters as units for non-parametric coordinates.

mtllib prop_cajaTailandesa.mtl
g default
v -0.069082 0.116492 0.069082
v 0.069082 0.116492 0.069082
v -0.085592 0.203919 0.085592
v 0.085592 0.203919 0.085592
v -0.085592 0.203919 -0.085592
v 0.085592 0.203919 -0.085592
v -0.069082 0.116492 -0.069082
v 0.069082 0.116492 -0.069082
v -0.086490 0.238697 0.102102
v 0.086490 0.238697 0.102102
v -0.086490 0.238697 -0.102102
v 0.086490 0.238697 -0.102102
v -0.102102 0.238697 0.086490
v -0.102102 0.238697 -0.086490
v 0.102102 0.238697 0.086490
v 0.102102 0.238697 -0.086490
v -0.040340 0.291978 0.141331
v 0.040340 0.291978 0.141331
v -0.040340 0.291978 -0.141331
v 0.040340 0.291978 -0.141331
v -0.141331 0.291978 0.040340
v -0.141331 0.291978 -0.040340
v 0.141331 0.291978 0.040340
v 0.141331 0.291978 -0.040340
v -0.070925 0.000000 0.070925
v 0.070925 0.000000 0.070925
v 0.087555 0.203392 0.087555
v -0.087555 0.203392 0.087555
v -0.087555 0.203392 -0.087555
v 0.087555 0.203392 -0.087555
v 0.070925 0.000000 -0.070925
v -0.070925 0.000000 -0.070925
v 0.086490 0.237665 0.103826
v -0.086490 0.237665 0.103826
v -0.086490 0.237665 -0.103827
v 0.086490 0.237666 -0.103827
v -0.103827 0.237666 0.086490
v -0.103827 0.237666 -0.086490
v 0.103827 0.237665 -0.086490
v 0.103827 0.237665 0.086490
v 0.040340 0.290792 0.142942
v -0.040340 0.290792 0.142942
v -0.040340 0.290792 -0.142942
v 0.040340 0.290792 -0.142942
v -0.142942 0.290792 0.040340
v -0.142942 0.290792 -0.040340
v 0.142942 0.290792 -0.040340
v 0.142942 0.290792 0.040340
vt 0.427138 0.575756
vt 0.391620 0.575756
vt 0.575756 0.391620
vt 0.575755 0.427138
vt 0.575755 0.759891
vt 0.575755 0.724373
vt 0.724373 0.575755
vt 0.759891 0.575755
vt 0.372894 0.558962
vt 0.558962 0.372894
vt 0.778616 0.592549
vt 0.592549 0.778617
vt 0.558962 0.778617
vt 0.372894 0.592549
vt 0.592549 0.372895
vt 0.778616 0.558962
vt 0.841235 0.159796
vt 0.991715 0.310275
vt 0.879427 0.457848
vt 0.693663 0.272085
vt 0.310275 0.991715
vt 0.159796 0.841236
vt 0.380339 0.467123
vt 0.467123 0.380340
vt 0.771172 0.684388
vt 0.684388 0.771172
vt 0.272085 0.693663
vt 0.457848 0.879426
vt 0.295109 0.672899
vt 0.478613 0.856402
vt 0.856402 0.478612
vt 0.672899 0.295110
vt 0.467123 0.771172
vt 0.380339 0.684388
vt 0.684388 0.380339
vt 0.771171 0.467123
vt 0.557107 0.371040
vt 0.575756 0.387396
vt 0.387396 0.575756
vt 0.371040 0.557107
vt 0.594404 0.780471
vt 0.575755 0.764115
vt 0.764115 0.575755
vt 0.780471 0.594404
vt 0.371039 0.594404
vt 0.557107 0.780471
vt 0.780471 0.557107
vt 0.594404 0.371040
vt 0.464492 0.378306
vt 0.378306 0.464492
vt 0.687019 0.773205
vt 0.773205 0.687019
vt 0.378306 0.687019
vt 0.464492 0.773205
vt 0.773205 0.464492
vt 0.687019 0.378306
vt 0.856401 0.672898
vt 0.672899 0.856401
vt 0.295109 0.478612
vt 0.478612 0.295109
vt 0.841235 0.991715
vt 0.991715 0.841235
vt 0.879426 0.693663
vt 0.693663 0.879426
vt 0.008036 0.159014
vt 0.159013 0.008036
vt 0.310133 0.159405
vt 0.159405 0.310133
vt 0.272085 0.457848
vt 0.457848 0.272085
vn 0.000000 -0.081492 0.996674
vn 0.000000 -0.081492 0.996674
vn 0.000000 -0.143473 0.989654
vn 0.000000 -0.143473 0.989654
vn -0.000000 -0.143475 -0.989654
vn -0.000000 -0.143475 -0.989654
vn 0.000000 -0.081493 -0.996674
vn 0.000000 -0.081493 -0.996674
vn 0.000000 -1.000000 0.000000
vn 0.000000 -1.000000 0.000000
vn 0.000000 -1.000000 0.000000
vn 0.000000 -1.000000 0.000000
vn 0.996674 -0.081492 0.000000
vn 0.996674 -0.081492 0.000000
vn 0.989654 -0.143474 0.000000
vn 0.989654 -0.143474 0.000000
vn -0.996674 -0.081492 -0.000001
vn -0.996674 -0.081492 -0.000001
vn -0.989654 -0.143474 -0.000000
vn -0.989654 -0.143474 -0.000000
vn 0.000000 -0.143473 0.989654
vn 0.000000 -0.143473 0.989654
vn 0.000000 -0.502016 0.864858
vn 0.000000 -0.502016 0.864858
vn -0.000000 -0.143475 -0.989654
vn -0.000000 -0.143475 -0.989654
vn 0.000000 -0.502016 -0.864859
vn 0.000000 -0.502016 -0.864859
vn -0.989654 -0.143474 -0.000000
vn -0.989654 -0.143474 -0.000000
vn -0.864858 -0.502016 -0.000000
vn -0.864858 -0.502016 -0.000000
vn 0.989654 -0.143474 0.000000
vn 0.989654 -0.143474 0.000000
vn 0.864859 -0.502015 0.000000
vn 0.864859 -0.502015 0.000000
vn 0.000000 -0.502016 0.864858
vn 0.000000 -0.502016 0.864858
vn 0.000000 -0.592897 0.805278
vn 0.000000 -0.592897 0.805278
vn 0.000000 -0.502016 -0.864859
vn 0.000000 -0.502016 -0.864859
vn 0.000000 -0.592898 -0.805277
vn 0.000000 -0.592898 -0.805277
vn -0.864858 -0.502016 -0.000000
vn -0.864858 -0.502016 -0.000000
vn -0.805278 -0.592897 -0.000000
vn -0.805278 -0.592897 -0.000000
vn 0.864859 -0.502015 0.000000
vn 0.864859 -0.502015 0.000000
vn 0.805279 -0.592897 0.000000
vn 0.805278 -0.592897 0.000000
vn 0.000000 0.185559 -0.982633
vn 0.000000 0.274281 -0.961650
vn 0.000000 0.274281 -0.961650
vn 0.000000 0.185559 -0.982633
vn 0.000000 0.274281 0.961650
vn 0.000000 0.185560 0.982633
vn 0.000000 0.185560 0.982633
vn 0.000000 0.274281 0.961650
vn 0.000000 1.000000 0.000000
vn 0.000000 1.000000 0.000000
vn 0.000000 1.000000 0.000000
vn 0.000000 1.000000 0.000000
vn -0.982633 0.185560 0.000000
vn -0.961650 0.274281 0.000000
vn -0.961650 0.274281 0.000000
vn -0.982633 0.185560 0.000000
vn 0.982633 0.185559 0.000000
vn 0.961650 0.274281 0.000000
vn 0.961650 0.274281 0.000000
vn 0.982633 0.185559 0.000000
vn 0.000000 0.274281 -0.961650
vn 0.000000 0.503394 -0.864057
vn 0.000000 0.503394 -0.864057
vn 0.000000 0.274281 -0.961650
vn 0.000000 0.274281 0.961650
vn 0.000000 0.503394 0.864057
vn 0.000000 0.503394 0.864057
vn 0.000000 0.274281 0.961650
vn 0.961650 0.274281 0.000000
vn 0.864057 0.503394 0.000000
vn 0.864057 0.503394 0.000000
vn 0.961650 0.274281 0.000000
vn -0.961650 0.274281 0.000000
vn -0.864057 0.503393 0.000000
vn -0.864057 0.503393 0.000000
vn -0.961650 0.274281 0.000000
vn 0.000000 0.503394 -0.864057
vn 0.000000 0.592897 -0.805278
vn 0.000000 0.592897 -0.805278
vn 0.000000 0.503394 -0.864057
vn 0.000000 0.503394 0.864057
vn 0.000000 0.592898 0.805277
vn 0.000000 0.592898 0.805277
vn 0.000000 0.503394 0.864057
vn 0.864057 0.503394 0.000000
vn 0.805278 0.592897 0.000000
vn 0.805278 0.592897 0.000000
vn 0.864057 0.503394 0.000000
vn -0.864057 0.503393 0.000000
vn -0.805279 0.592897 0.000000
vn -0.805279 0.592897 0.000000
vn -0.864057 0.503393 0.000000
vn 0.897640 0.190789 -0.397293
vn 0.897640 0.190789 -0.397293
vn 0.897640 0.190789 -0.397293
vn 0.897640 0.190789 -0.397293
vn -0.897640 0.190788 -0.397295
vn -0.897640 0.190788 -0.397295
vn -0.897639 0.190788 -0.397295
vn -0.897640 0.190788 -0.397295
vn -0.897645 0.190784 0.397283
vn -0.897645 0.190784 0.397283
vn -0.897645 0.190784 0.397283
vn -0.897645 0.190784 0.397283
vn 0.897630 0.190798 0.397312
vn 0.897630 0.190798 0.397312
vn 0.897630 0.190798 0.397312
vn 0.897630 0.190798 0.397312
vn 0.397299 0.190793 0.897636
vn 0.397299 0.190793 0.897637
vn 0.397299 0.190793 0.897637
vn 0.397299 0.190793 0.897636
vn 0.397284 0.190781 -0.897646
vn 0.397284 0.190781 -0.897646
vn 0.397284 0.190781 -0.897646
vn 0.397284 0.190781 -0.897646
vn -0.397276 0.190778 -0.897650
vn -0.397276 0.190778 -0.897650
vn -0.397276 0.190778 -0.897650
vn -0.397276 0.190778 -0.897650
vn -0.397307 0.190797 0.897632
vn -0.397307 0.190797 0.897632
vn -0.397307 0.190797 0.897632
vn -0.397307 0.190797 0.897632
vn 0.819495 0.477240 0.317287
vn 0.819494 0.477240 0.317287
vn 0.819494 0.477240 0.317287
vn 0.819495 0.477240 0.317287
vn 0.000000 0.805299 0.592869
vn 0.000000 0.805299 0.592869
vn 0.000000 0.805299 0.592869
vn 0.000000 0.805299 0.592869
vn -0.819494 0.477229 0.317304
vn -0.819494 0.477229 0.317304
vn -0.819494 0.477229 0.317304
vn -0.819494 0.477229 0.317304
vn -0.819494 0.477239 -0.317290
vn -0.819494 0.477239 -0.317290
vn -0.819494 0.477239 -0.317290
vn -0.819494 0.477239 -0.317290
vn 0.000000 0.805269 -0.592910
vn 0.000000 0.805269 -0.592910
vn 0.000000 0.805269 -0.592910
vn 0.000000 0.805269 -0.592910
vn 0.819492 0.477291 -0.317216
vn 0.819492 0.477291 -0.317216
vn 0.819492 0.477291 -0.317216
vn 0.819492 0.477291 -0.317216
vn -0.317242 0.477271 0.819494
vn -0.317242 0.477271 0.819494
vn -0.317242 0.477271 0.819494
vn -0.317242 0.477271 0.819494
vn -0.592891 0.805283 0.000000
vn -0.592891 0.805283 0.000000
vn -0.592891 0.805283 0.000000
vn -0.592891 0.805283 0.000000
vn -0.317232 0.477281 -0.819492
vn -0.317232 0.477281 -0.819492
vn -0.317232 0.477281 -0.819492
vn -0.317232 0.477281 -0.819492
vn 0.317274 0.477251 -0.819493
vn 0.317274 0.477251 -0.819493
vn 0.317274 0.477251 -0.819493
vn 0.317274 0.477251 -0.819493
vn 0.592886 0.805287 0.000000
vn 0.592886 0.805287 0.000000
vn 0.592886 0.805287 0.000000
vn 0.592886 0.805287 0.000000
vn 0.317262 0.477255 0.819495
vn 0.317262 0.477255 0.819495
vn 0.317262 0.477255 0.819495
vn 0.317262 0.477255 0.819495
s off
g CajaTailandesa_01
usemtl CajaTailandesa_01SG
f 25/68/1 26/67/2 27/70/3 28/69/4
f 29/64/5 30/63/6 31/62/7 32/61/8
f 32/65/9 31/66/10 26/67/11 25/68/12
f 26/17/13 31/18/14 30/19/15 27/20/16
f 32/21/17 25/22/18 28/27/19 29/28/20
f 28/69/21 27/70/22 33/60/23 34/59/24
f 30/63/25 29/64/26 35/58/27 36/57/28
f 29/28/29 28/27/30 37/29/31 38/30/32
f 27/20/33 30/19/34 39/31/35 40/32/36
f 34/59/37 33/60/38 41/49/39 42/50/40
f 36/57/41 35/58/42 43/51/43 44/52/44
f 38/30/45 37/29/46 45/53/47 46/54/48
f 40/32/49 39/31/50 47/55/51 48/56/52
f 1/1/53 3/2/54 4/3/55 2/4/56
f 5/5/57 7/6/58 8/7/59 6/8/60
f 7/6/61 1/1/62 2/4/63 8/7/64
f 2/4/65 4/3/66 6/8/67 8/7/68
f 7/6/69 5/5/70 3/2/71 1/1/72
f 3/2/73 9/9/74 10/10/75 4/3/76
f 6/8/77 12/11/78 11/12/79 5/5/80
f 5/5/81 14/13/82 13/14/83 3/2/84
f 4/3/85 15/15/86 16/16/87 6/8/88
f 9/9/89 17/23/90 18/24/91 10/10/92
f 12/11/93 20/25/94 19/26/95 11/12/96
f 14/13/97 22/33/98 21/34/99 13/14/100
f 15/15/101 23/35/102 24/36/103 16/16/104
f 4/3/105 10/10/106 33/37/107 27/38/108
f 9/9/109 3/2/110 28/39/111 34/40/112
f 5/5/113 11/12/114 35/41/115 29/42/116
f 12/11/117 6/8/118 30/43/119 36/44/120
f 3/2/121 13/14/122 37/45/123 28/39/124
f 14/13/125 5/5/126 29/42/127 38/46/128
f 6/8/129 16/16/130 39/47/131 30/43/132
f 15/15/133 4/3/134 27/38/135 40/48/136
f 10/10/137 18/24/138 41/49/139 33/37/140
f 18/24/141 17/23/142 42/50/143 41/49/144
f 17/23/145 9/9/146 34/40/147 42/50/148
f 11/12/149 19/26/150 43/51/151 35/41/152
f 19/26/153 20/25/154 44/52/155 43/51/156
f 20/25/157 12/11/158 36/44/159 44/52/160
f 13/14/161 21/34/162 45/53/163 37/45/164
f 21/34/165 22/33/166 46/54/167 45/53/168
f 22/33/169 14/13/170 38/46/171 46/54/172
f 16/16/173 24/36/174 47/55/175 39/47/176
f 24/36/177 23/35/178 48/56/179 47/55/180
f 23/35/181 15/15/182 40/48/183 48/56/184
g default
v -0.066742 0.114410 0.001448
v -0.063729 0.114410 0.001448
v -0.067820 0.337112 0.172719
v -0.062651 0.337112 0.172719
v -0.067820 0.340247 0.168609
v -0.062651 0.340247 0.168609
v -0.066742 0.116238 -0.000948
v -0.063729 0.116238 -0.000948
vt 0.035683 0.253075
vt 0.049855 0.253146
vt 0.049855 0.969449
vt 0.035644 0.969514
vt 0.064178 0.253146
vt 0.075194 0.253146
vt 0.077942 0.969449
vt 0.064178 0.969449
vt 0.022058 0.969514
vt 0.035627 0.983118
vt 0.022088 0.983118
vt 0.024819 0.242120
vt 0.035704 0.242120
vt 0.024797 0.253075
vn 0.000000 -0.609623 0.792691
vn 0.000000 -0.609623 0.792691
vn 0.000000 -0.609623 0.792691
vn 0.000000 -0.609623 0.792691
vn 0.000000 0.795021 0.606582
vn 0.000000 0.795021 0.606582
vn 0.000000 0.795021 0.606582
vn 0.000000 0.795021 0.606582
vn 0.000000 0.603525 -0.797344
vn 0.000000 0.603525 -0.797344
vn 0.000000 0.603525 -0.797344
vn 0.000000 0.603525 -0.797344
vn 0.000000 -0.795026 -0.606576
vn 0.000000 -0.795026 -0.606576
vn 0.000000 -0.795026 -0.606576
vn 0.000000 -0.795026 -0.606576
vn 0.999993 -0.003049 -0.002326
vn 0.999993 -0.003049 -0.002326
vn 0.999993 -0.003049 -0.002326
vn 0.999993 -0.003049 -0.002326
vn -0.999993 -0.003050 -0.002326
vn -0.999993 -0.003050 -0.002326
vn -0.999993 -0.003050 -0.002326
vn -0.999993 -0.003050 -0.002326
s off
g CajaTailandesa_01 PalilloChino_01
usemtl CajaTailandesa_01SG
f 49/84/185 50/71/186 52/74/187 51/79/188
f 51/79/189 52/74/190 54/80/191 53/81/192
f 53/78/193 54/73/194 56/72/195 55/75/196
f 55/82/197 56/83/198 50/71/199 49/84/200
f 50/71/201 56/72/202 54/73/203 52/74/204
f 55/75/205 49/76/206 51/77/207 53/78/208
g default
v -0.039768 0.113802 0.027876
v -0.036979 0.114782 0.028460
v -0.147141 0.336269 0.161705
v -0.142357 0.337950 0.162707
v -0.147141 0.338915 0.157265
v -0.142357 0.340596 0.158267
v -0.039768 0.115345 0.025287
v -0.036979 0.116325 0.025871
vt 0.035683 0.253075
vt 0.049855 0.253146
vt 0.049855 0.969449
vt 0.035644 0.969514
vt 0.064178 0.253146
vt 0.075194 0.253146
vt 0.077942 0.969448
vt 0.064178 0.969449
vt 0.022058 0.969514
vt 0.035627 0.983118
vt 0.022088 0.983118
vt 0.024819 0.242120
vt 0.035704 0.242120
vt 0.024797 0.253075
vn 0.001447 -0.514971 0.857207
vn 0.001447 -0.514970 0.857207
vn 0.001447 -0.514970 0.857207
vn 0.001447 -0.514970 0.857207
vn -0.378637 0.795074 0.473806
vn -0.378637 0.795074 0.473806
vn -0.378637 0.795074 0.473806
vn -0.378637 0.795074 0.473806
vn 0.001454 0.508873 -0.860841
vn 0.001454 0.508873 -0.860841
vn 0.001454 0.508873 -0.860841
vn 0.001454 0.508873 -0.860841
vn 0.378638 -0.795071 -0.473810
vn 0.378638 -0.795071 -0.473810
vn 0.378638 -0.795071 -0.473810
vn 0.378638 -0.795071 -0.473810
vn 0.926990 0.322212 0.192015
vn 0.926990 0.322212 0.192015
vn 0.926990 0.322212 0.192015
vn 0.926990 0.322212 0.192015
vn -0.924085 -0.328311 -0.195650
vn -0.924085 -0.328311 -0.195650
vn -0.924085 -0.328311 -0.195650
vn -0.924085 -0.328311 -0.195650
s off
g CajaTailandesa_01 PalilloChino_02
usemtl CajaTailandesa_01SG
f 57/98/209 58/85/210 60/88/211 59/93/212
f 59/93/213 60/88/214 62/94/215 61/95/216
f 61/92/217 62/87/218 64/86/219 63/89/220
f 63/96/221 64/97/222 58/85/223 57/98/224
f 58/85/225 64/86/226 62/87/227 60/88/228
f 63/89/229 57/90/230 59/91/231 61/92/232
