# This file uses centimeters as units for non-parametric coordinates.

mtllib prop_estantería02.mtl
g default
v -1.312500 0.743750 0.474115
v -1.312500 0.656250 0.474115
v 1.312500 0.743750 0.474115
v 1.312500 0.656250 0.474115
v 1.312500 0.743750 -0.413727
v 1.312500 0.656250 -0.413727
v -1.312500 0.743750 -0.413727
v -1.312500 0.656250 -0.413727
v 0.481250 0.087500 0.410838
v 0.568750 0.087500 0.410838
v 0.481250 1.312500 0.410838
v 0.568750 1.312500 0.410838
v 0.481250 1.312500 -0.413727
v 0.568750 1.312500 -0.413727
v 0.481250 0.087500 -0.413727
v 0.568750 0.087500 -0.413727
v -1.312509 1.400000 0.525000
v -1.356254 1.388278 0.525000
v -1.388278 1.356254 0.525000
v -1.400000 1.312509 0.525000
v -1.400000 1.312509 -0.525000
v -1.388278 1.356254 -0.525000
v -1.356254 1.388278 -0.525000
v -1.312509 1.400000 -0.525000
v 1.400000 1.312509 0.525000
v 1.388278 1.356254 0.525000
v 1.356254 1.388278 0.525000
v 1.312509 1.400000 0.525000
v 1.400000 1.312509 -0.525000
v 1.312509 1.400000 -0.525000
v 1.356254 1.388278 -0.525000
v 1.388278 1.356254 -0.525000
v -1.400000 0.087491 0.525000
v -1.388278 0.043746 0.525000
v -1.356254 0.011722 0.525000
v -1.312509 -0.000000 0.525000
v -1.356254 0.011722 -0.525000
v -1.388278 0.043746 -0.525000
v -1.400000 0.087491 -0.525000
v -1.312509 -0.000000 -0.525000
v 1.312509 -0.000000 0.525000
v 1.356254 0.011722 0.525000
v 1.388278 0.043746 0.525000
v 1.400000 0.087491 0.525000
v 1.388278 0.043746 -0.525000
v 1.356254 0.011722 -0.525000
v 1.312509 -0.000000 -0.525000
v 1.400000 0.087491 -0.525000
v -1.268754 0.099222 0.525000
v -1.300778 0.131246 0.525000
v -1.312500 0.174991 0.525000
v -1.225009 0.087500 0.525000
v -1.312500 0.174991 -0.413727
v -1.300778 0.131246 -0.413727
v -1.268754 0.099222 -0.413727
v -1.225009 0.087500 -0.413727
v 1.300778 0.131246 0.525000
v 1.268754 0.099222 0.525000
v 1.225009 0.087500 0.525000
v 1.312500 0.174991 0.525000
v 1.312500 0.174991 -0.413727
v 1.225009 0.087500 -0.413727
v 1.268754 0.099222 -0.413727
v 1.300778 0.131246 -0.413727
v 1.268754 1.300778 0.525000
v 1.300778 1.268754 0.525000
v 1.312500 1.225009 0.525000
v 1.225009 1.312500 0.525000
v 1.225009 1.312500 -0.413727
v 1.312500 1.225009 -0.413727
v 1.300778 1.268754 -0.413727
v 1.268754 1.300778 -0.413727
v -1.300778 1.268754 0.525000
v -1.268754 1.300778 0.525000
v -1.225009 1.312500 0.525000
v -1.312500 1.225009 0.525000
v -1.312500 1.225009 -0.413727
v -1.225009 1.312500 -0.413727
v -1.268754 1.300778 -0.413727
v -1.300778 1.268754 -0.413727
v -0.568750 0.087500 0.410838
v -0.481250 0.087500 0.410838
v -0.568750 1.312500 0.410838
v -0.481250 1.312500 0.410838
v -0.568750 1.312500 -0.413727
v -0.481250 1.312500 -0.413727
v -0.568750 0.087500 -0.413727
v -0.481250 0.087500 -0.413727
vt 0.820103 0.407925
vt 0.891867 0.479689
vt 0.679689 0.691867
vt 0.607925 0.620103
vt 0.741267 0.329089
vt 0.813030 0.400853
vt 0.600853 0.613031
vt 0.529089 0.541267
vt 0.473783 0.313945
vt 0.463945 0.323783
vt 0.326217 0.186055
vt 0.336055 0.176217
vt 0.371238 0.416489
vt 0.233510 0.278762
vt 0.566490 0.221239
vt 0.428762 0.083511
vt 0.702119 0.140750
vt 0.788714 0.227345
vt 0.574597 0.441462
vt 0.488002 0.354867
vt 0.224412 0.791647
vt 0.137817 0.705052
vt 0.365916 0.476953
vt 0.452511 0.563548
vt 0.463593 0.552465
vt 0.376998 0.465871
vt 0.476920 0.365949
vt 0.563515 0.452544
vt 0.813123 0.029746
vt 0.899718 0.116341
vt 0.799796 0.216263
vt 0.713201 0.129668
vt 0.308766 0.817995
vt 0.232457 0.794130
vt 0.453555 0.573892
vt 0.471411 0.645815
vt 0.481369 0.643750
vt 0.484240 0.572258
vt 0.622235 0.710254
vt 0.554450 0.706235
vt 0.554672 0.716008
vt 0.632700 0.737085
vt 0.401089 0.968665
vt 0.389372 0.892805
vt 0.379250 0.893564
vt 0.375087 0.962058
vt 0.237858 0.824829
vt 0.307867 0.828070
vt 0.796102 0.219957
vt 0.709507 0.133362
vt 0.792408 0.223651
vt 0.705813 0.137056
vt 0.570903 0.445156
vt 0.484308 0.358561
vt 0.567209 0.448850
vt 0.480614 0.362255
vt 0.220718 0.795341
vt 0.134123 0.708746
vt 0.907106 0.108953
vt 0.903412 0.112647
vt 0.816817 0.026052
vt 0.820511 0.022358
vt 0.459899 0.556160
vt 0.373304 0.469565
vt 0.456205 0.559854
vt 0.369610 0.473259
vt 0.235799 0.813097
vt 0.307035 0.824571
vt 0.231790 0.803695
vt 0.306207 0.820883
vt 0.463233 0.573217
vt 0.474704 0.643769
vt 0.473292 0.573349
vt 0.478381 0.641045
vt 0.628218 0.718212
vt 0.556971 0.709021
vt 0.632664 0.727486
vt 0.557542 0.712832
vt 0.391668 0.968571
vt 0.386084 0.894728
vt 0.381942 0.967706
vt 0.382234 0.896321
vt 0.390448 0.986214
vt 0.399332 0.984013
vt 0.366340 0.469742
vt 0.367248 0.475621
vt 0.137113 0.702734
vt 0.133462 0.700492
vt 0.129724 0.696754
vt 0.029445 0.596475
vt 0.026062 0.593092
vt 0.029142 0.587513
vt 0.032368 0.584287
vt 0.249561 0.367094
vt 0.253411 0.363244
vt 0.260945 0.364348
vt 0.264643 0.368045
vt 0.363103 0.466505
vt 0.385042 0.983195
vt 0.380317 0.978470
vt 0.220826 0.818979
vt 0.647843 0.735502
vt 0.650213 0.725668
vt 0.645000 0.720454
vt 0.639670 0.715124
vt 0.479256 0.554710
vt 0.469557 0.555160
vt 0.460155 0.555904
vt 0.214989 0.813143
vt 0.216926 0.799133
vt 0.473783 0.313945
vt 0.463945 0.323783
vt 0.326217 0.186055
vt 0.336055 0.176217
vt 0.371238 0.416489
vt 0.233510 0.278762
vt 0.566489 0.221239
vt 0.428762 0.083511
vn 0.000000 0.000000 1.000000
vn 0.000000 0.000000 1.000000
vn 0.000000 0.000000 1.000000
vn 0.000000 0.000000 1.000000
vn 0.000000 -1.000000 0.000000
vn 0.000000 -1.000000 0.000000
vn 0.000000 -1.000000 0.000000
vn 0.000000 -1.000000 0.000000
vn 0.000000 1.000000 0.000000
vn 0.000000 1.000000 0.000000
vn 0.000000 1.000000 0.000000
vn 0.000000 1.000000 0.000000
vn 0.000000 0.000000 1.000000
vn 0.000000 0.000000 1.000000
vn 0.000000 0.000000 1.000000
vn 0.000000 0.000000 1.000000
vn 1.000000 0.000000 0.000000
vn 1.000000 0.000000 0.000000
vn 1.000000 0.000000 0.000000
vn 1.000000 0.000000 0.000000
vn -1.000000 0.000000 0.000000
vn -1.000000 0.000000 0.000000
vn -1.000000 0.000000 0.000000
vn -1.000000 0.000000 0.000000
vn -0.004392 0.999990 0.000000
vn -0.004392 0.999990 0.000000
vn 0.004392 0.999990 0.000000
vn 0.004392 0.999990 0.000000
vn -0.004392 -0.999990 0.000000
vn -0.004392 -0.999990 0.000000
vn 0.004392 -0.999990 0.000000
vn 0.004392 -0.999990 0.000000
vn 0.999957 -0.009238 0.000000
vn 0.999957 -0.009238 0.000000
vn 0.999957 0.009238 0.000000
vn 0.999957 0.009238 0.000000
vn -0.999957 -0.009238 0.000000
vn -0.999957 -0.009238 0.000000
vn -0.999957 0.009238 0.000000
vn -0.999957 0.009238 0.000000
vn 0.004700 0.999989 0.000000
vn 0.004700 0.999989 0.000000
vn -0.004700 0.999989 0.000000
vn -0.004700 0.999989 0.000000
vn -0.999943 0.010716 -0.000000
vn -0.999943 0.010716 -0.000000
vn -0.999943 -0.010716 0.000000
vn -0.999943 -0.010716 0.000000
vn -0.004700 -0.999989 0.000000
vn -0.004700 -0.999989 0.000000
vn 0.004700 -0.999989 0.000000
vn 0.004700 -0.999989 0.000000
vn 0.999943 -0.010716 0.000000
vn 0.999943 -0.010716 0.000000
vn 0.999943 0.010716 0.000000
vn 0.999943 0.010716 0.000000
vn -0.965926 0.258818 0.000000
vn -0.965926 0.258818 0.000000
vn -0.707107 0.707107 0.000000
vn -0.707107 0.707107 0.000000
vn -0.707107 0.707107 0.000000
vn -0.707107 0.707107 0.000000
vn -0.258819 0.965926 0.000000
vn -0.258819 0.965926 0.000000
vn 0.258819 0.965926 0.000000
vn 0.258819 0.965926 0.000000
vn 0.707107 0.707107 0.000000
vn 0.707107 0.707107 0.000000
vn 0.707107 0.707107 0.000000
vn 0.707107 0.707107 0.000000
vn 0.965926 0.258818 0.000000
vn 0.965926 0.258818 0.000000
vn -0.500000 -0.866025 0.000000
vn -0.500000 -0.866025 0.000000
vn -0.707106 -0.707108 0.000000
vn -0.707106 -0.707108 0.000000
vn -0.965926 -0.258818 0.000000
vn -0.965926 -0.258818 0.000000
vn 0.965926 -0.258818 0.000000
vn 0.965926 -0.258818 0.000000
vn 0.707106 -0.707108 0.000000
vn 0.500000 -0.866025 0.000000
vn 0.500000 -0.866025 0.000000
vn 0.707106 -0.707108 0.000000
vn 0.965926 0.258819 0.000000
vn 0.965926 0.258819 0.000000
vn 0.707106 0.707108 0.000000
vn 0.500000 0.866025 0.000000
vn 0.500000 0.866025 0.000000
vn 0.707106 0.707108 0.000000
vn -0.500000 0.866025 0.000000
vn -0.500000 0.866025 0.000000
vn -0.707106 0.707108 0.000000
vn -0.707106 0.707108 0.000000
vn -0.965926 0.258819 -0.000000
vn -0.965926 0.258819 -0.000000
vn -0.965926 -0.258820 0.000000
vn -0.965926 -0.258820 0.000000
vn -0.707107 -0.707107 0.000000
vn -0.707107 -0.707107 0.000000
vn -0.707107 -0.707107 0.000000
vn -0.707107 -0.707107 0.000000
vn -0.258819 -0.965926 0.000000
vn -0.258819 -0.965926 0.000000
vn 0.258819 -0.965926 0.000000
vn 0.258819 -0.965926 0.000000
vn 0.707107 -0.707107 0.000000
vn 0.707107 -0.707107 0.000000
vn 0.707107 -0.707107 0.000000
vn 0.707107 -0.707107 0.000000
vn 0.965926 -0.258820 0.000000
vn 0.965926 -0.258820 0.000000
vn 0.000000 0.000000 1.000000
vn 0.000000 0.000000 1.000000
vn 0.000000 0.000000 1.000000
vn 0.000000 0.000000 1.000000
vn 0.000000 0.000000 -1.000000
vn 0.000000 0.000000 -1.000000
vn 0.000000 0.000000 -1.000000
vn 0.000000 0.000000 -1.000000
vn 0.000000 0.000000 -1.000000
vn 0.000000 0.000000 -1.000000
vn 0.000000 0.000000 -1.000000
vn 0.000000 0.000000 -1.000000
vn 0.000000 0.000000 -1.000000
vn 0.000000 0.000000 -1.000000
vn 0.000000 0.000000 -1.000000
vn 0.000000 0.000000 -1.000000
vn 0.000000 0.000000 -1.000000
vn 0.000000 0.000000 -1.000000
vn 0.000000 0.000000 -1.000000
vn 0.000000 0.000000 -1.000000
vn -0.000000 0.000000 1.000000
vn -0.000000 0.000000 1.000000
vn -0.000000 0.000000 1.000000
vn -0.000000 0.000000 1.000000
vn -0.000000 0.000000 1.000000
vn -0.000000 0.000000 1.000000
vn -0.000000 0.000000 1.000000
vn -0.000000 0.000000 1.000000
vn -0.000000 0.000000 1.000000
vn -0.000000 0.000000 1.000000
vn -0.000000 0.000000 1.000000
vn -0.000000 0.000000 1.000000
vn -0.000000 0.000000 1.000000
vn -0.000000 0.000000 1.000000
vn -0.000000 0.000000 1.000000
vn -0.000000 0.000000 1.000000
vn 0.000000 0.000000 1.000000
vn 0.000000 0.000000 1.000000
vn 0.000000 0.000000 1.000000
vn 0.000000 0.000000 1.000000
vn 0.000000 0.000000 1.000000
vn 0.000000 0.000000 1.000000
vn 0.000000 0.000000 1.000000
vn 0.000000 0.000000 1.000000
vn 0.000000 0.000000 1.000000
vn 0.000000 0.000000 1.000000
vn 0.000000 0.000000 1.000000
vn 0.000000 0.000000 1.000000
vn 0.000000 0.000000 1.000000
vn 0.000000 0.000000 1.000000
vn 0.000000 0.000000 1.000000
vn 0.000000 0.000000 1.000000
vn 0.000000 0.000000 1.000000
vn 0.000000 0.000000 1.000000
vn 0.000000 0.000000 1.000000
vn 0.000000 0.000000 1.000000
vn 0.000000 0.000000 1.000000
vn 0.000000 0.000000 1.000000
vn 0.000000 0.000000 1.000000
vn 0.000000 0.000000 1.000000
vn -0.000001 0.000000 1.000000
vn -0.000001 0.000000 1.000000
vn -0.000001 0.000000 1.000000
vn -0.000001 0.000000 1.000000
vn 0.000001 0.000000 1.000000
vn 0.000001 0.000000 1.000000
vn 0.000001 0.000000 1.000000
vn 0.000001 0.000000 1.000000
vn 0.000000 0.000000 1.000000
vn 0.000000 0.000000 1.000000
vn 0.000000 0.000000 1.000000
vn 0.000000 0.000000 1.000000
vn 0.000001 0.000000 1.000000
vn 0.000001 0.000000 1.000000
vn 0.000001 0.000000 1.000000
vn 0.000001 0.000000 1.000000
vn 0.000000 0.000000 1.000000
vn 0.000000 0.000000 1.000000
vn 0.000000 0.000000 1.000000
vn 0.000000 0.000000 1.000000
vn 0.000000 0.000000 1.000000
vn 0.000000 0.000000 1.000000
vn 0.000000 0.000000 1.000000
vn 0.000000 0.000000 1.000000
vn 0.000000 0.000000 1.000000
vn 0.000000 0.000000 1.000000
vn 0.000000 0.000000 1.000000
vn 0.000000 0.000000 1.000000
vn 0.000000 0.000000 1.000000
vn 0.000000 0.000000 1.000000
vn 0.000000 0.000000 1.000000
vn 0.000000 0.000000 1.000000
vn 1.000000 0.000000 0.000000
vn 1.000000 0.000000 0.000000
vn 1.000000 0.000000 0.000000
vn 1.000000 0.000000 0.000000
vn -1.000000 0.000000 0.000000
vn -1.000000 0.000000 0.000000
vn -1.000000 0.000000 0.000000
vn -1.000000 0.000000 0.000000
s off
g pCube6
usemtl initialShadingGroup
f 1/6/1 2/1/2 4/4/3 3/7/4
f 2/1/5 8/2/6 6/3/7 4/4/8
f 7/5/9 1/6/10 3/7/11 5/8/12
f 9/9/13 10/10/14 12/11/15 11/12/16
f 10/10/17 16/13/18 14/14/19 12/11/20
f 15/15/21 9/9/22 11/12/23 13/16/24
s 1
f 24/17/25 17/18/26 28/19/27 30/20/28
s 2
f 36/21/29 40/22/30 47/23/31 41/24/32
s 3
f 44/25/33 48/26/34 29/27/35 25/28/36
s 4
f 39/29/37 33/30/38 20/31/39 21/32/40
s 5
f 56/33/41 52/34/42 59/35/43 62/36/44
s 6
f 61/37/45 60/38/46 67/39/47 70/40/48
s 7
f 69/41/49 68/42/50 75/43/51 78/44/52
s 8
f 77/45/53 76/46/54 51/47/55 53/48/56
s 4
f 20/31/39 19/49/57 22/50/58 21/32/40
s off
f 19/49/59 18/51/60 23/52/61 22/50/62
s 1
f 18/51/63 17/18/26 24/17/25 23/52/64
f 28/19/27 27/53/65 31/54/66 30/20/28
s off
f 27/53/67 26/55/68 32/56/69 31/54/70
s 3
f 26/55/71 25/28/36 29/27/35 32/56/72
s 2
f 36/21/29 35/57/73 37/58/74 40/22/30
f 35/59/73 34/60/75 38/61/76 37/62/74
s 4
f 34/60/77 33/30/38 39/29/37 38/61/78
s 3
f 44/25/33 43/63/79 45/64/80 48/26/34
s 2
f 43/63/81 42/65/82 46/66/83 45/64/84
f 42/65/82 41/24/32 47/23/31 46/66/83
s 8
f 51/47/55 50/67/85 54/68/86 53/48/56
s 5
f 50/67/87 49/69/88 55/70/89 54/68/90
f 49/69/88 52/34/42 56/33/41 55/70/89
f 59/35/43 58/71/91 63/72/92 62/36/44
f 58/71/91 57/73/93 64/74/94 63/72/92
s 6
f 57/73/95 60/38/46 61/37/45 64/74/96
f 67/39/47 66/75/97 71/76/98 70/40/48
s off
f 66/75/99 65/77/100 72/78/101 71/76/102
s 7
f 65/77/103 68/42/50 69/41/49 72/78/104
f 75/43/51 74/79/105 79/80/106 78/44/52
s off
f 74/79/107 73/81/108 80/82/109 79/80/110
s 8
f 73/81/111 76/46/54 77/45/53 80/82/112
s 9
f 18/83/113 74/79/114 75/43/115 17/84/116
s off
f 45/85/117 46/86/118 47/23/119 40/22/120 37/87/121 38/88/122 39/89/123 21/90/124 22/91/125 23/92/126 24/93/127 30/94/128 31/95/129 32/96/130 29/97/131 48/98/132
f 77/45/133 53/48/134 54/68/135 55/70/136 56/33/137 62/36/138 63/72/139 64/74/140 61/37/141 70/40/142 71/76/143 72/78/144 69/41/145 78/44/146 79/80/147 80/82/148
s 9
f 19/99/149 20/100/150 76/46/151 73/81/152
f 19/99/149 73/81/152 74/79/114 18/83/113
f 33/101/153 51/47/154 76/46/151 20/100/150
f 68/42/155 28/102/156 17/84/116 75/43/115
s off
f 65/77/157 27/103/158 28/102/159 68/42/160
f 66/75/161 26/104/162 27/103/163 65/77/164
f 66/75/165 67/39/166 25/105/167 26/104/168
f 25/105/169 67/39/170 60/38/171 44/106/172
f 44/106/173 60/38/174 57/73/175 43/107/176
f 43/107/177 57/73/178 58/71/179 42/108/180
f 42/108/181 58/71/182 59/35/183 41/24/184
f 34/109/185 50/67/186 51/47/187 33/101/188
f 35/110/189 49/69/190 50/67/191 34/109/192
f 36/21/193 52/34/194 49/69/195 35/110/196
f 41/24/197 59/35/198 52/34/199 36/21/200
f 81/111/201 82/112/202 84/113/203 83/114/204
f 82/112/205 88/115/206 86/116/207 84/113/208
f 87/117/209 81/111/210 83/114/211 85/118/212
