# This file uses centimeters as units for non-parametric coordinates.

mtllib prop_tableroAjedrez.mtl
g default
v -0.350000 0.000000 0.350000
v 0.350000 0.000000 0.350000
v -0.350000 0.024000 0.350000
v 0.350000 0.024000 0.350000
v -0.350000 0.024000 -0.350000
v 0.350000 0.024000 -0.350000
v -0.350000 0.000000 -0.350000
v 0.350000 0.000000 -0.350000
vt 0.331825 0.633677
vt 0.633677 0.331825
vt 0.650926 0.349074
vt 0.349074 0.650926
vt 0.970026 0.668175
vt 0.668175 0.970026
vt 0.650926 0.952778
vt 0.952778 0.650926
vt 0.331825 0.029974
vt 0.029974 0.331825
vt 0.633677 0.970027
vt 0.331825 0.668175
vt 0.668175 0.331825
vt 0.970027 0.633677
vn 0.000000 0.000000 1.000000
vn 0.000000 0.000000 1.000000
vn 0.000000 0.000000 1.000000
vn 0.000000 0.000000 1.000000
vn 0.000000 1.000000 0.000000
vn 0.000000 1.000000 0.000000
vn 0.000000 1.000000 0.000000
vn 0.000000 1.000000 0.000000
vn 0.000000 0.000000 -1.000000
vn 0.000000 0.000000 -1.000000
vn 0.000000 0.000000 -1.000000
vn 0.000000 0.000000 -1.000000
vn 0.000000 -1.000000 0.000000
vn 0.000000 -1.000000 0.000000
vn 0.000000 -1.000000 0.000000
vn 0.000000 -1.000000 0.000000
vn 1.000000 0.000000 0.000000
vn 1.000000 0.000000 0.000000
vn 1.000000 0.000000 0.000000
vn 1.000000 0.000000 0.000000
vn -1.000000 0.000000 0.000000
vn -1.000000 0.000000 0.000000
vn -1.000000 0.000000 0.000000
vn -1.000000 0.000000 0.000000
s off
g tableroAjedrez
usemtl tableroAjedrezSG
f 1/11/1 2/12/2 4/4/3 3/7/4
f 3/7/5 4/4/6 6/3/7 5/8/8
f 5/8/9 6/3/10 8/13/11 7/14/12
f 7/9/13 8/2/14 2/1/15 1/10/16
f 2/1/17 8/2/18 6/3/19 4/4/20
f 7/5/21 1/6/22 3/7/23 5/8/24
