# This file uses centimeters as units for non-parametric coordinates.

mtllib prop_botella02.mtl
g default
v -0.309690 7.329546 -0.178807
v -0.309693 7.329546 0.178796
v -0.178802 7.329546 0.309689
v 0.178801 7.329546 0.309691
v 0.309693 7.329546 0.178801
v 0.309696 7.329546 -0.178802
v 0.178805 7.329546 -0.309695
v -0.178798 7.329546 -0.309698
v -0.329529 5.249127 -0.190247
v -0.329523 5.249127 0.190257
v -0.190247 5.249128 0.329529
v 0.190257 5.249128 0.329524
v 0.329529 5.249128 0.190247
v 0.329523 5.249127 -0.190257
v 0.190247 5.249127 -0.329528
v -0.190257 5.249127 -0.329523
v -0.968927 4.246150 -0.713301
v -0.968416 4.246150 0.715177
v -0.558820 4.246150 1.237640
v 0.559706 4.246150 1.236557
v 0.968927 4.246150 0.713302
v 0.968416 4.246150 -0.715177
v 0.558820 4.246150 -1.237640
v -0.559706 4.246150 -1.236557
v -0.248521 7.476717 -0.143589
v -0.248609 7.476717 0.143430
v -0.143584 7.476717 0.248519
v 0.143435 7.476717 0.248607
v 0.248524 7.476717 0.143582
v 0.248612 7.476718 -0.143437
v 0.143588 7.476717 -0.248526
v -0.143432 7.476717 -0.248614
v -0.248521 7.369396 -0.143589
v -0.248608 7.369396 0.143432
v -0.143583 7.369396 0.248519
v 0.143436 7.369396 0.248606
v 0.248524 7.369396 0.143581
v 0.248611 7.369396 -0.143438
v 0.143587 7.369396 -0.248527
v -0.143432 7.369396 -0.248613
v -0.346564 7.404800 -0.200053
v -0.346529 7.404800 0.200106
v -0.200048 7.404800 0.346562
v 0.200112 7.404800 0.346527
v 0.346567 7.404800 0.200047
v 0.346533 7.404800 -0.200113
v 0.200052 7.404800 -0.346569
v -0.200108 7.404800 -0.346534
v -0.968927 0.000000 -0.713301
v -0.968416 0.000000 0.715177
v -0.558820 0.000000 1.237640
v 0.559706 0.000000 1.236557
v 0.968927 0.000000 0.713302
v 0.968416 0.000000 -0.715177
v 0.558820 0.000000 -1.237640
v -0.559706 0.000000 -1.236557
vt 0.428449 0.676025
vt 0.433676 0.930475
vt 0.391271 0.932624
vt 0.375918 0.682498
vt 0.457926 0.673859
vt 0.455482 0.929924
vt 0.516456 0.674446
vt 0.497302 0.930672
vt 0.547038 0.674805
vt 0.518945 0.931634
vt 0.602475 0.681995
vt 0.560474 0.935342
vt 0.582152 0.937752
vt 0.352605 0.688351
vt 0.368960 0.933971
vt 0.338111 0.542671
vt 0.189286 0.572132
vt 0.402586 0.531744
vt 0.511832 0.526529
vt 0.575941 0.531186
vt 0.718316 0.546890
vt 0.114328 0.590107
vt 0.435418 0.939832
vt 0.435661 0.952610
vt 0.398238 0.954642
vt 0.392199 0.942379
vt 0.454793 0.939821
vt 0.456991 0.952412
vt 0.497463 0.940242
vt 0.495471 0.953147
vt 0.516728 0.941490
vt 0.516938 0.954244
vt 0.559157 0.944758
vt 0.554963 0.957418
vt 0.578360 0.947173
vt 0.369892 0.945364
vt 0.379733 0.957769
vt 0.436870 0.965570
vt 0.400766 0.967866
vt 0.456575 0.965589
vt 0.494690 0.966208
vt 0.514756 0.967354
vt 0.552302 0.970305
vt 0.571213 0.972806
vt 0.383201 0.970383
vt 0.020672 0.061732
vt 0.100295 0.053003
vt 0.273602 0.033945
vt 0.356149 0.027598
vt 0.496769 0.020721
vt 0.580637 0.020672
vt 0.759790 0.025297
vt 0.675597 0.699214
vt 0.630100 0.686178
vt 0.907975 0.584548
vt 0.575661 0.959941
vt 0.622932 0.954751
vt 0.605689 0.979328
vt 0.610607 0.966612
vt 0.623906 0.944032
vt 0.841882 0.030944
vt 0.979328 0.041109
vt 0.788059 0.556129
vn -0.896305 0.395650 0.200244
vn -0.966065 -0.011731 0.258033
vn -0.966066 -0.011730 -0.258030
vn -0.896379 0.395585 -0.200044
vn -0.252747 0.465537 0.848171
vn -0.258030 -0.011729 0.966066
vn 0.253304 0.465466 0.848044
vn 0.258033 -0.011731 0.966065
vn 0.896379 0.395584 0.200045
vn 0.966066 -0.011731 0.258030
vn 0.896306 0.395650 -0.200244
vn 0.966065 -0.011734 -0.258033
vn 0.252747 0.465536 -0.848172
vn 0.258031 -0.011732 -0.966065
vn -0.253304 0.465464 -0.848045
vn -0.258033 -0.011734 -0.966065
vn -0.973788 0.083038 0.211761
vn -0.973952 0.083027 -0.211007
vn -0.317628 0.108780 0.941955
vn 0.319278 0.108762 0.941399
vn 0.973952 0.083027 0.211007
vn 0.973788 0.083038 -0.211761
vn 0.317628 0.108780 -0.941955
vn -0.319279 0.108762 -0.941399
vn -0.904398 0.334158 0.265334
vn 0.002989 0.999887 -0.014719
vn 0.003241 0.999885 0.014813
vn -0.904457 0.334228 -0.265045
vn -0.265045 0.334228 0.904457
vn 0.014813 0.999885 -0.003243
vn 0.265336 0.334160 0.904397
vn -0.014720 0.999887 -0.002989
vn 0.904458 0.334226 0.265045
vn -0.003240 0.999885 -0.014814
vn 0.904399 0.334155 -0.265335
vn -0.002987 0.999887 0.014719
vn 0.265046 0.334225 -0.904458
vn -0.014814 0.999885 0.003241
vn -0.265335 0.334156 -0.904399
vn 0.014720 0.999887 0.002987
vn 0.966004 0.000001 -0.258528
vn 0.965847 0.000001 0.259111
vn 0.259110 0.000002 -0.965848
vn -0.258527 0.000002 -0.966004
vn -0.965848 0.000000 -0.259110
vn -0.966004 0.000001 0.258526
vn -0.259110 0.000000 0.965848
vn 0.258525 0.000001 0.966005
vn -0.324623 0.000000 -0.945843
vn -0.978770 0.000000 -0.204963
vn -0.978612 0.000000 0.205714
vn -0.322912 0.000000 0.946429
vn 0.324623 0.000000 0.945844
vn 0.978770 0.000000 0.204963
vn 0.978612 0.000000 -0.205714
vn 0.322912 0.000000 -0.946429
s 1
g pCylinder3
usemtl initialShadingGroup
f 10/1/1 2/2/2 1/3/3 9/4/4
f 2/2/2 10/1/1 11/5/5 3/6/6
f 12/7/7 4/8/8 3/6/6 11/5/5
f 4/8/8 12/7/7 13/9/9 5/10/10
f 14/11/11 6/12/12 5/10/10 13/9/9
f 6/12/12 14/11/11 15/54/13 7/13/14
f 16/53/15 8/60/16 7/13/14 15/54/13
f 8/15/16 16/14/15 9/4/4 1/3/3
f 18/16/17 10/1/1 9/4/4 17/17/18
f 11/5/5 10/1/1 18/16/17 19/18/19
f 20/19/20 12/7/7 11/5/5 19/18/19
f 13/9/9 12/7/7 20/19/20 21/20/21
f 22/21/22 14/11/11 13/9/9 21/20/21
f 15/54/13 14/11/11 22/21/22 23/63/23
f 24/55/24 16/53/15 15/54/13 23/63/23
f 9/4/4 16/14/15 24/22/24 17/17/18
f 42/23/25 26/24/26 25/25/27 41/26/28
f 43/27/29 27/28/30 26/24/26 42/23/25
f 44/29/31 28/30/32 27/28/30 43/27/29
f 45/31/33 29/32/34 28/30/32 44/29/31
f 46/33/35 30/34/36 29/32/34 45/31/33
f 47/35/37 31/56/38 30/34/36 46/33/35
f 48/57/39 32/59/40 31/56/38 47/35/37
f 26/24/26 34/38/41 33/39/42 25/25/27
f 35/40/43 34/38/41 26/24/26 27/28/30
f 28/30/32 36/41/44 35/40/43 27/28/30
f 37/42/45 36/41/44 28/30/32 29/32/34
f 30/34/36 38/43/46 37/42/45 29/32/34
f 39/44/47 38/43/46 30/34/36 31/56/38
f 32/59/40 40/58/48 39/44/47 31/56/38
f 33/39/42 40/45/48 32/37/40 25/25/27
f 2/2/2 42/23/25 41/26/28 1/3/3
f 43/27/29 42/23/25 2/2/2 3/6/6
f 4/8/8 44/29/31 43/27/29 3/6/6
f 45/31/33 44/29/31 4/8/8 5/10/10
f 6/12/12 46/33/35 45/31/33 5/10/10
f 47/35/37 46/33/35 6/12/12 7/13/14
f 8/60/16 48/57/39 47/35/37 7/13/14
f 48/36/39 8/15/16 1/3/3 41/26/28
f 48/36/39 41/26/28 25/25/27 32/37/40
f 56/46/49 49/47/50 17/17/18 24/22/24
f 49/47/50 50/48/51 18/16/17 17/17/18
f 50/48/51 51/49/52 19/18/19 18/16/17
f 51/49/52 52/50/53 20/19/20 19/18/19
f 52/50/53 53/51/54 21/20/21 20/19/20
f 53/51/54 54/52/55 22/21/22 21/20/21
f 54/52/55 55/61/56 23/63/23 22/21/22
f 55/61/56 56/62/49 24/55/24 23/63/23
