# This file uses centimeters as units for non-parametric coordinates.

mtllib prop_vhs.mtl
g default
v -0.093500 0.098325 0.011500
v -0.088825 0.103000 0.011500
v -0.092131 0.101631 0.011500
v -0.093500 0.098325 -0.011500
v -0.092131 0.101631 -0.011500
v -0.088825 0.103000 -0.011500
v 0.093500 0.098325 0.011500
v 0.092131 0.101631 0.011500
v 0.088825 0.103000 0.011500
v 0.093500 0.098325 -0.011500
v 0.088825 0.103000 -0.011500
v 0.092131 0.101631 -0.011500
v -0.093500 0.004675 -0.011500
v -0.088825 -0.000000 -0.011500
v -0.092131 0.001369 -0.011500
v -0.093500 0.004675 0.011500
v -0.092131 0.001369 0.011500
v -0.088825 -0.000000 0.011500
v 0.093500 0.004675 -0.011500
v 0.092131 0.001369 -0.011500
v 0.088825 -0.000000 -0.011500
v 0.093500 0.004675 0.011500
v 0.088825 -0.000000 0.011500
v 0.092131 0.001369 0.011500
vt 0.518391 0.134038
vt 0.518415 0.044028
vt 0.884918 0.044127
vt 0.884894 0.134137
vt 0.504413 0.044024
vt 0.504389 0.134035
vt 0.898895 0.134141
vt 0.898919 0.044131
vt 0.884696 0.865962
vt 0.884672 0.955972
vt 0.518169 0.955873
vt 0.518193 0.865863
vt 0.898697 0.865965
vt 0.898673 0.955976
vt 0.504167 0.955869
vt 0.504192 0.865859
vt 0.499904 0.847564
vt 0.409894 0.847540
vt 0.410081 0.152303
vt 0.500092 0.152327
vt 0.409890 0.861541
vt 0.499901 0.861565
vt 0.410085 0.138301
vt 0.500096 0.138326
vt 0.993005 0.847697
vt 0.902995 0.847673
vt 0.903182 0.152436
vt 0.993193 0.152460
vt 0.902991 0.861674
vt 0.993001 0.861699
vt 0.903186 0.138435
vt 0.993197 0.138459
vt 0.897633 0.860607
vt 0.505259 0.860501
vt 0.505454 0.139393
vt 0.897828 0.139499
vt 0.025290 0.133905
vt 0.391793 0.134004
vt 0.404727 0.139366
vt 0.404532 0.860474
vt 0.391595 0.865829
vt 0.025092 0.865730
vt 0.012158 0.860368
vt 0.006803 0.847431
vt 0.006991 0.152194
vt 0.012353 0.139260
vn -0.007566 0.999971 0.000000
vn -0.007566 0.999971 0.000000
vn 0.007566 0.999971 0.000000
vn 0.007566 0.999971 0.000000
vn -0.007566 -0.999971 0.000000
vn -0.007566 -0.999971 0.000000
vn 0.007566 -0.999971 0.000000
vn 0.007566 -0.999971 0.000000
vn 0.999900 0.014120 0.000000
vn 0.999900 0.014120 0.000000
vn 0.999900 -0.014120 0.000000
vn 0.999900 -0.014120 0.000000
vn -0.999900 -0.014120 0.000000
vn -0.999900 -0.014120 0.000000
vn -0.999900 0.014120 0.000000
vn -0.999900 0.014120 0.000000
vn -0.999900 0.014120 0.000000
vn -0.923879 0.382685 0.000000
vn -0.923879 0.382685 0.000000
vn -0.999900 0.014120 0.000000
vn -0.382685 0.923879 0.000000
vn -0.007566 0.999971 0.000000
vn -0.007566 0.999971 0.000000
vn -0.382685 0.923879 0.000000
vn 0.007566 0.999971 0.000000
vn 0.382685 0.923879 0.000000
vn 0.382685 0.923879 0.000000
vn 0.007566 0.999971 0.000000
vn 0.923879 0.382685 0.000000
vn 0.999900 0.014120 0.000000
vn 0.999900 0.014120 0.000000
vn 0.923879 0.382685 0.000000
vn -0.999900 -0.014120 0.000000
vn -0.923879 -0.382685 0.000000
vn -0.923879 -0.382685 0.000000
vn -0.999900 -0.014120 0.000000
vn -0.382684 -0.923879 0.000000
vn -0.007566 -0.999971 0.000000
vn -0.007566 -0.999971 0.000000
vn -0.382684 -0.923879 0.000000
vn 0.007566 -0.999971 0.000000
vn 0.382684 -0.923879 0.000000
vn 0.382684 -0.923879 0.000000
vn 0.007566 -0.999971 0.000000
vn 0.923879 -0.382685 0.000000
vn 0.999900 -0.014120 0.000000
vn 0.999900 -0.014120 0.000000
vn 0.923879 -0.382685 0.000000
vn -0.000000 0.000000 -1.000000
vn -0.000000 0.000000 -1.000000
vn -0.000000 0.000000 -1.000000
vn -0.000000 0.000000 -1.000000
vn -0.000000 0.000000 -1.000000
vn -0.000000 0.000000 -1.000000
vn -0.000000 0.000000 -1.000000
vn -0.000000 0.000000 -1.000000
vn -0.000000 0.000000 -1.000000
vn -0.000000 0.000000 -1.000000
vn -0.000000 0.000000 -1.000000
vn -0.000000 0.000000 -1.000000
vn 0.000000 -0.000000 1.000000
vn 0.000000 -0.000000 1.000000
vn 0.000000 -0.000000 1.000000
vn 0.000000 -0.000000 1.000000
vn 0.000000 -0.000000 1.000000
vn 0.000000 -0.000000 1.000000
vn 0.000000 -0.000000 1.000000
vn 0.000000 -0.000000 1.000000
vn 0.000000 -0.000000 1.000000
vn 0.000000 -0.000000 1.000000
vn 0.000000 -0.000000 1.000000
vn 0.000000 -0.000000 1.000000
s off
g VHS
usemtl VHSSG
f 6/17/1 2/18/2 9/19/3 11/20/4
f 18/25/5 14/26/6 21/27/7 23/28/8
f 10/1/9 7/2/10 22/3/11 19/4/12
f 13/9/13 16/10/14 1/11/15 4/12/16
f 1/11/17 3/15/18 5/16/19 4/12/20
f 3/21/21 2/18/22 6/17/23 5/22/24
f 9/19/25 8/23/26 12/24/27 11/20/28
f 8/5/29 7/2/30 10/1/31 12/6/32
f 13/9/33 15/13/34 17/14/35 16/10/36
f 15/29/37 14/26/38 18/25/39 17/30/40
f 21/27/41 20/31/42 24/32/43 23/28/44
f 20/7/45 19/4/46 22/3/47 24/8/48
f 14/26/49 15/33/50 13/9/51 4/12/52 5/34/53 6/17/54 11/20/55 12/35/56 10/1/57 19/4/58 20/36/59 21/27/60
f 22/37/61 7/38/62 8/39/63 9/19/64 2/18/65 3/40/66 1/41/67 16/42/68 17/43/69 18/44/70 23/45/71 24/46/72
