# This file uses meters as units for non-parametric coordinates.

mtllib TROFEU.mtl
g default
v 8.124730 2.172773 -8.288995
v -0.436011 2.172773 -11.834981
v -8.996754 2.172773 -8.289006
v -12.542739 2.172773 0.271737
v -8.996762 2.172773 8.832481
v -0.436019 2.172773 12.378465
v 8.124725 2.172773 8.832484
v 11.670705 2.172773 0.271741
v 11.911180 2.172777 -12.075442
v -0.436008 2.172777 -17.189813
v -12.783202 2.172777 -12.075454
v -17.897568 2.172777 0.271735
v -12.783212 2.172777 12.618931
v -0.436019 2.172777 17.733295
v 11.911173 2.172777 12.618937
v 17.025535 2.172777 0.271741
v 6.673324 19.503164 -6.837587
v -0.436012 19.503164 -9.782361
v -7.545344 19.503164 -6.837599
v -10.490121 19.503164 0.271738
v -7.545355 19.503164 7.381073
v -0.436018 19.503164 10.325845
v 6.673316 19.503164 7.381075
v 9.618087 19.503164 0.271742
v 7.658229 37.369551 -7.822488
v -0.436011 37.369551 -11.175240
v -8.530247 37.369551 -7.822503
v -11.883000 37.369551 0.271738
v -8.530261 37.369551 8.365975
v -0.436018 37.369551 11.718726
v 7.658219 37.369551 8.365980
v 11.010967 37.369551 0.271742
v 11.652480 53.973169 -11.816744
v -0.436008 53.973169 -16.823966
v -12.524505 53.973169 -11.816757
v -17.531720 53.973169 0.271735
v -12.524511 53.973169 12.360232
v -0.436019 53.973169 17.367448
v 11.652478 53.973169 12.360237
v 16.659690 53.973169 0.271741
v 22.197702 70.474016 -22.361977
v -0.436000 70.474016 -31.737174
v -23.069735 70.474016 -22.361977
v -32.444935 70.474016 0.271728
v -23.069735 70.474016 22.905460
v -0.436021 70.474016 32.280660
v 22.197702 70.474016 22.905460
v 31.572902 70.474016 0.271740
v 14.857113 70.474031 -15.021351
v -0.436006 70.474031 -21.355950
v -15.729109 70.474031 -15.021390
v -22.063710 70.474031 0.271732
v -15.729147 70.474031 15.564864
v -0.436020 70.474031 21.899432
v 14.857108 70.474031 15.564867
v 21.191676 70.474031 0.271740
v 6.382638 35.495958 -6.546663
v -0.435972 35.495958 -9.370901
v -7.254421 35.495958 -6.546663
v -10.078914 35.495958 0.271754
v -7.254421 35.495958 7.090141
v -0.435982 35.495958 9.914379
v 6.382382 35.495958 7.090141
v 9.206875 35.495958 0.271766
vt 0.573657 0.082593
vt 0.500000 0.052083
vt 0.426343 0.082593
vt 0.395833 0.156250
vt 0.426343 0.229907
vt 0.500000 0.260417
vt 0.573657 0.229907
vt 0.604167 0.156250
vt 0.610485 0.045765
vt 0.500000 0.000000
vt 0.389515 0.045765
vt 0.343750 0.156250
vt 0.389515 0.266735
vt 0.500000 0.312500
vt 0.610485 0.266735
vt 0.656250 0.156250
vt 1.679768 0.796336
vt 1.679768 0.667115
vt 1.241216 0.667115
vt 1.241216 0.796336
vt 1.303866 0.667115
vt 1.303866 0.796336
vt 1.366516 0.667115
vt 1.366516 0.796336
vt 1.429167 0.667115
vt 1.429167 0.796336
vt 1.491817 0.667115
vt 1.491817 0.796336
vt 1.554468 0.667115
vt 1.554468 0.796336
vt 1.617118 0.667115
vt 1.617118 0.796336
vt 1.598194 0.955929
vt 1.598194 0.899031
vt 1.406088 0.899031
vt 1.406088 0.955929
vt 1.433532 0.899031
vt 1.433532 0.955929
vt 1.460976 0.899031
vt 1.460976 0.955929
vt 1.756717 1.265812
vt 1.756717 1.198694
vt 1.419778 1.198694
vt 1.419778 1.265812
vt 1.467912 1.198694
vt 1.467912 1.265812
vt 1.516046 1.198694
vt 1.516046 1.265812
vt 1.564180 1.198694
vt 1.564180 1.265812
vt 1.612315 1.198694
vt 1.612315 1.265812
vt 1.660449 1.198694
vt 1.660449 1.265812
vt 1.708583 1.198694
vt 1.708583 1.265812
vt 0.610485 0.733265
vt 0.500000 0.687500
vt 0.389515 0.733265
vt 0.343750 0.843750
vt 0.389515 0.954235
vt 0.500000 1.000000
vt 0.610485 0.954235
vt 0.656250 0.843750
vt 0.573657 0.770093
vt 0.500000 0.739583
vt 0.426343 0.770093
vt 0.395833 0.843750
vt 0.426343 0.917407
vt 0.500000 0.947917
vt 0.573657 0.917407
vt 0.604167 0.843750
vt 0.900031 -0.350000
vt -0.849968 -0.350000
vt -0.849970 -0.862115
vt -0.599969 -0.350000
vt -0.599968 -0.862115
vt -0.349968 -0.350000
vt -0.349968 -0.862115
vt -0.099968 -0.350000
vt -0.099968 -0.862115
vt 0.150032 -0.350000
vt 0.150033 -0.862115
vt 0.400032 -0.350000
vt 0.400032 -0.862115
vt 0.650032 -0.350000
vt 0.650031 -0.862115
vt 1.625637 1.008806
vt 1.625637 0.955929
vt 1.488419 0.899031
vt 1.742419 0.796336
vt 1.742419 0.667115
vt 1.150032 -0.350000
vt 0.900026 -0.862115
vt 1.150030 -0.862115
vt 1.400032 -0.862115
vt 1.650032 -0.862115
vt 1.900032 -0.862115
vt 2.150033 -0.862115
vt 2.400032 -0.862115
vt 2.650031 -0.862115
vt 1.488419 0.955929
vt 1.515863 0.899031
vt 1.515863 0.955929
vt 1.543306 0.899031
vt 1.543306 0.955929
vt 1.570750 0.899031
vt 1.570750 0.955929
vt 1.598194 1.008806
vt 1.406088 1.008806
vt 1.433532 1.008806
vt 1.460976 1.008806
vt 1.488419 1.008806
vt 1.515863 1.008806
vt 1.543306 1.008806
vt 1.570750 1.008806
vt 1.625637 0.899031
vt 1.804851 1.198694
vt 1.804851 1.265812
vn 0.000000 -1.000000 0.000000
vn 0.000000 -1.000000 0.000000
vn -0.000000 -1.000000 0.000000
vn -0.000000 -1.000000 0.000000
vn -0.000000 -1.000000 -0.000000
vn -0.000000 -1.000000 -0.000000
vn 0.000000 -1.000000 -0.000000
vn 0.000000 -1.000000 -0.000000
vn 0.000001 -1.000000 -0.000000
vn 0.000000 -1.000000 -0.000001
vn -0.000001 -1.000000 -0.000000
vn -0.000001 -1.000000 -0.000000
vn -0.000001 -1.000000 0.000000
vn -0.000000 -1.000000 0.000000
vn 0.000001 -1.000000 0.000000
vn 0.000001 -1.000000 0.000000
vn 0.691870 0.206473 -0.691870
vn 0.650203 0.393029 -0.650203
vn 0.000001 0.393029 -0.919526
vn 0.000001 0.206473 -0.978452
vn -0.650203 0.393029 -0.650203
vn -0.691870 0.206473 -0.691871
vn -0.919526 0.393029 -0.000000
vn -0.978452 0.206473 -0.000001
vn -0.650203 0.393029 0.650203
vn -0.691870 0.206473 0.691870
vn -0.000000 0.393029 0.919526
vn -0.000000 0.206473 0.978452
vn 0.650203 0.393029 0.650203
vn 0.691870 0.206473 0.691870
vn 0.919526 0.393029 0.000000
vn 0.978452 0.206473 0.000000
vn 0.689277 -0.223146 -0.689277
vn 0.000001 -0.223146 -0.974785
vn -0.689277 -0.223146 -0.689277
vn -0.974785 -0.223146 -0.000001
vn -0.689277 -0.223146 0.689277
vn -0.000000 -0.223146 0.974785
vn 0.689277 -0.223146 0.689277
vn 0.974785 -0.223146 0.000000
vn 0.572327 -0.587269 -0.572326
vn 0.000000 -0.587269 -0.809392
vn -0.572326 -0.587269 -0.572327
vn -0.809392 -0.587269 -0.000000
vn -0.572327 -0.587269 0.572326
vn -0.000000 -0.587269 0.809392
vn 0.572327 -0.587269 0.572327
vn 0.809392 -0.587269 0.000000
vn 0.524600 -0.670514 -0.524600
vn 0.000000 -0.670514 -0.741897
vn -0.524600 -0.670514 -0.524600
vn -0.741896 -0.670515 -0.000000
vn -0.524600 -0.670515 0.524600
vn -0.000000 -0.670514 0.741897
vn 0.524600 -0.670514 0.524600
vn 0.741897 -0.670514 0.000000
vn 0.000001 1.000000 -0.000001
vn 0.000001 1.000000 -0.000001
vn 0.000000 1.000000 -0.000002
vn 0.000000 1.000000 -0.000002
vn -0.000001 1.000000 -0.000001
vn -0.000001 1.000000 -0.000001
vn -0.000001 1.000000 -0.000000
vn -0.000001 1.000000 -0.000000
vn -0.000001 1.000000 0.000001
vn -0.000001 1.000000 0.000001
vn -0.000000 1.000000 0.000002
vn -0.000000 1.000000 0.000002
vn 0.000001 1.000000 0.000001
vn 0.000001 1.000000 0.000001
vn 0.000001 1.000000 0.000000
vn 0.000001 1.000000 0.000000
vn -0.364835 0.301800 0.880802
vn -0.364835 0.301800 0.880802
vn -0.364835 0.301800 0.880802
vn -0.364835 0.301800 0.880802
vn 0.364836 0.301802 0.880801
vn 0.364836 0.301802 0.880801
vn 0.364836 0.301802 0.880801
vn 0.364836 0.301802 0.880801
vn 0.880798 0.301798 0.364846
vn 0.880798 0.301798 0.364846
vn 0.880798 0.301798 0.364846
vn 0.880798 0.301798 0.364846
vn 0.880798 0.301798 -0.364845
vn 0.880798 0.301799 -0.364845
vn 0.880798 0.301798 -0.364845
vn 0.880798 0.301798 -0.364845
vn 0.364836 0.301802 -0.880801
vn 0.364836 0.301802 -0.880801
vn 0.364836 0.301802 -0.880801
vn 0.364836 0.301802 -0.880801
vn -0.364837 0.301801 -0.880801
vn -0.364837 0.301801 -0.880801
vn -0.364837 0.301801 -0.880801
vn -0.364837 0.301801 -0.880801
vn -0.880798 0.301799 -0.364846
vn -0.880798 0.301799 -0.364846
vn -0.880798 0.301799 -0.364846
vn -0.880798 0.301799 -0.364846
vn -0.880803 0.301796 0.364837
vn -0.880803 0.301796 0.364837
vn -0.880803 0.301796 0.364837
vn -0.880803 0.301796 0.364837
vn 0.000000 1.000000 0.000000
vn 0.000000 1.000000 0.000000
vn 0.000000 1.000000 0.000000
vn 0.000000 1.000000 0.000000
vn 0.000000 1.000000 0.000000
vn 0.000000 1.000000 0.000000
vn 0.000000 1.000000 0.000000
vn 0.000000 1.000000 0.000000
s 1
g pCylinder1
usemtl initialShadingGroup
f 8/8/1 7/7/2 6/6/3 5/5/4 4/4/5 3/3/6 2/2/7 1/1/8
f 9/9/9 1/1/8 2/2/7 10/10/10
f 10/10/10 2/2/7 3/3/6 11/11/11
f 11/11/11 3/3/6 4/4/5 12/12/12
f 12/12/12 4/4/5 5/5/4 13/13/13
f 13/13/13 5/5/4 6/6/3 14/14/14
f 14/14/14 6/6/3 7/7/2 15/15/15
f 15/15/15 7/7/2 8/8/1 16/16/16
f 16/16/16 8/8/1 1/1/8 9/9/9
s 2
f 17/17/17 9/18/18 10/92/19 18/91/20
f 18/20/20 10/19/19 11/21/21 19/22/22
f 19/22/22 11/21/21 12/23/23 20/24/24
f 20/24/24 12/23/23 13/25/25 21/26/26
f 21/26/26 13/25/25 14/27/27 22/28/28
f 22/28/28 14/27/27 15/29/29 23/30/30
f 23/30/30 15/29/29 16/31/31 24/32/32
f 24/32/32 16/31/31 9/18/18 17/17/17
f 25/33/33 17/34/17 18/117/20 26/89/34
f 26/36/34 18/35/20 19/37/22 27/38/35
f 27/38/35 19/37/22 20/39/24 28/40/36
f 28/40/36 20/39/24 21/90/26 29/102/37
f 29/102/37 21/90/26 22/103/28 30/104/38
f 30/104/38 22/103/28 23/105/30 31/106/39
f 31/106/39 23/105/30 24/107/32 32/108/40
f 32/108/40 24/107/32 17/34/17 25/33/33
f 33/109/41 25/33/33 26/89/34 34/88/42
f 34/110/42 26/36/34 27/38/35 35/111/43
f 35/111/43 27/38/35 28/40/36 36/112/44
f 36/112/44 28/40/36 29/102/37 37/113/45
f 37/113/45 29/102/37 30/104/38 38/114/46
f 38/114/46 30/104/38 31/106/39 39/115/47
f 39/115/47 31/106/39 32/108/40 40/116/48
f 40/116/48 32/108/40 25/33/33 33/109/41
f 41/41/49 33/42/41 34/118/42 42/119/50
f 42/44/50 34/43/42 35/45/43 43/46/51
f 43/46/51 35/45/43 36/47/44 44/48/52
f 44/48/52 36/47/44 37/49/45 45/50/53
f 45/50/53 37/49/45 38/51/46 46/52/54
f 46/52/54 38/51/46 39/53/47 47/54/55
f 47/54/55 39/53/47 40/55/48 48/56/56
f 48/56/56 40/55/48 33/42/41 41/41/49
s 3
f 49/71/57 41/63/58 42/62/59 50/70/60
f 50/70/60 42/62/59 43/61/61 51/69/62
f 51/69/62 43/61/61 44/60/63 52/68/64
f 52/68/64 44/60/63 45/59/65 53/67/66
f 53/67/66 45/59/65 46/58/67 54/66/68
f 54/66/68 46/58/67 47/57/69 55/65/70
f 55/65/70 47/57/69 48/64/71 56/72/72
f 56/72/72 48/64/71 41/63/58 49/71/57
s off
f 57/94/73 49/73/74 50/93/75 58/95/76
f 58/75/77 50/74/78 51/76/79 59/77/80
f 59/77/81 51/76/82 52/78/83 60/79/84
f 60/79/85 52/78/86 53/80/87 61/81/88
f 61/81/89 53/80/90 54/82/91 62/83/92
f 62/83/93 54/82/94 55/84/95 63/85/96
f 63/85/97 55/84/98 56/86/99 64/87/100
f 64/87/101 56/86/102 49/73/103 57/94/104
f 63/100/105 64/101/106 57/94/107 58/95/108 59/96/109 60/97/110 61/98/111 62/99/112
g default
v -20.435988 -7.645431 20.271735
v 19.564012 -7.645431 20.271735
v -20.435988 2.354569 20.271735
v 19.564012 2.354569 20.271735
v -20.435988 2.354569 -19.728265
v 19.564012 2.354569 -19.728265
v -20.435988 -7.645431 -19.728265
v 19.564012 -7.645431 -19.728265
vt 0.375000 0.000000
vt 0.625000 0.000000
vt 0.375000 0.250000
vt 0.625000 0.250000
vt 0.375000 0.500000
vt 0.625000 0.500000
vt 0.375000 0.750000
vt 0.625000 0.750000
vt 0.375000 1.000000
vt 0.625000 1.000000
vt 0.875000 0.000000
vt 0.875000 0.250000
vt 0.125000 0.000000
vt 0.125000 0.250000
vn 0.000000 0.000000 1.000000
vn 0.000000 0.000000 1.000000
vn 0.000000 0.000000 1.000000
vn 0.000000 0.000000 1.000000
vn 0.000000 1.000000 0.000000
vn 0.000000 1.000000 0.000000
vn 0.000000 1.000000 0.000000
vn 0.000000 1.000000 0.000000
vn 0.000000 0.000000 -1.000000
vn 0.000000 0.000000 -1.000000
vn 0.000000 0.000000 -1.000000
vn 0.000000 0.000000 -1.000000
vn 0.000000 -1.000000 0.000000
vn 0.000000 -1.000000 0.000000
vn 0.000000 -1.000000 0.000000
vn 0.000000 -1.000000 0.000000
vn 1.000000 0.000000 0.000000
vn 1.000000 0.000000 0.000000
vn 1.000000 0.000000 0.000000
vn 1.000000 0.000000 0.000000
vn -1.000000 0.000000 0.000000
vn -1.000000 0.000000 0.000000
vn -1.000000 0.000000 0.000000
vn -1.000000 0.000000 0.000000
s off
g pCube1
usemtl initialShadingGroup
f 65/120/113 66/121/114 68/123/115 67/122/116
f 67/122/117 68/123/118 70/125/119 69/124/120
f 69/124/121 70/125/122 72/127/123 71/126/124
f 71/126/125 72/127/126 66/129/127 65/128/128
f 66/121/129 72/130/130 70/131/131 68/123/132
f 71/132/133 65/120/134 67/122/135 69/133/136
g default
v -20.933463 -6.865552 10.320289
v -20.933463 1.651394 10.320289
v -20.933463 1.651394 -10.194544
v -20.933463 -6.865552 -10.194544
vt 0.375000 0.000000
vt 0.375000 0.250000
vt 0.125000 0.000000
vt 0.125000 0.250000
vn -1.000000 0.000000 0.000000
vn -1.000000 0.000000 0.000000
vn -1.000000 0.000000 0.000000
vn -1.000000 0.000000 0.000000
s off
g pCube2
usemtl initialShadingGroup
f 76/136/137 73/134/138 74/135/139 75/137/140
