# This file uses centimeters as units for non-parametric coordinates.

mtllib armario_separador.mtl
g default
v -0.159800 0.555978 0.159797
v 0.159800 0.555978 0.159797
v -0.159800 0.555978 -0.159797
v 0.159800 0.555978 -0.159797
v -0.159800 -0.555978 0.111863
v -0.159800 -0.549552 0.135829
v -0.159800 -0.532009 0.153374
v -0.159800 -0.508043 0.159797
v 0.159800 -0.555978 0.111863
v 0.159800 -0.508043 0.159797
v 0.159800 -0.532009 0.153374
v 0.159800 -0.549552 0.135829
v -0.159800 -0.555978 -0.111863
v -0.159800 -0.508043 -0.159797
v -0.159800 -0.532009 -0.153374
v -0.159800 -0.549552 -0.135829
v 0.159800 -0.555978 -0.111863
v 0.159800 -0.549552 -0.135829
v 0.159800 -0.532009 -0.153374
v 0.159800 -0.508043 -0.159797
vt 0.975684 0.980676
vt 0.024316 0.055419
vt 0.597517 0.978306
vt 0.402483 0.978306
vt 0.697763 0.980676
vt 0.697763 0.055419
vt 0.302237 0.055419
vt 0.402483 0.841779
vt 0.597517 0.841779
vt 0.975684 0.055419
vt 0.607207 0.805000
vt 0.302237 0.980676
vt 0.024316 0.980676
vt 0.381931 0.805000
vt 0.381931 0.054995
vt 0.607207 0.054995
vt 0.024316 0.034579
vt 0.597517 0.827154
vt 0.302237 0.034579
vt 0.024316 0.019324
vt 0.402483 0.827154
vt 0.302237 0.019324
vt 0.975684 0.019324
vt 0.597517 0.992931
vt 0.402483 0.992931
vt 0.386459 0.038102
vt 0.975684 0.034579
vt 0.602679 0.038102
vt 0.398826 0.025736
vt 0.590312 0.025736
vt 0.415719 0.021207
vt 0.573419 0.021207
vt 0.697763 0.034579
vt 0.697763 0.019324
vn 0.000000 -0.005904 0.999983
vn 0.000000 -0.005904 0.999983
vn 0.000000 0.000000 1.000000
vn 0.000000 0.000000 1.000000
vn 0.000000 0.000000 -1.000000
vn 0.000000 0.000000 -1.000000
vn 0.000000 -0.005904 -0.999983
vn 0.000000 -0.005904 -0.999983
vn 0.000000 -0.999664 -0.025934
vn 0.000000 -0.999664 -0.025934
vn 0.000000 -0.999664 0.025934
vn 0.000000 -0.999664 0.025934
vn 0.000000 -0.258890 0.965907
vn 0.000000 -0.258890 0.965907
vn 0.000000 -0.707144 0.707070
vn 0.000000 -0.707144 0.707070
vn 0.000000 -0.707144 0.707070
vn 0.000000 -0.707144 0.707070
vn 0.000000 -0.965885 0.258971
vn 0.000000 -0.965885 0.258971
vn 0.000000 -0.965885 -0.258971
vn 0.000000 -0.965885 -0.258971
vn 0.000000 -0.707144 -0.707070
vn 0.000000 -0.707144 -0.707070
vn 0.000000 -0.707144 -0.707070
vn 0.000000 -0.707144 -0.707070
vn 0.000000 -0.258883 -0.965909
vn 0.000000 -0.258883 -0.965909
vn 1.000000 0.000000 0.000000
vn 1.000000 0.000000 0.000000
vn 1.000000 -0.000000 0.000000
vn 1.000000 -0.000000 0.000000
vn 1.000000 -0.000002 0.000000
vn 1.000000 -0.000002 0.000000
vn 1.000000 -0.000003 0.000000
vn 1.000000 -0.000003 0.000000
vn 1.000000 0.000014 0.000000
vn 1.000000 0.000014 0.000000
s 1
g pCube29
usemtl initialShadingGroup
f 8/2/1 10/7/2 2/12/3 1/13/4
s 2
f 3/1/5 4/5/6 20/6/7 14/10/8
s 3
f 13/3/9 17/4/10 9/8/11 5/9/12
s 1
f 8/2/1 7/17/13 11/19/14 10/7/2
s off
f 7/17/15 6/20/16 12/22/17 11/19/18
s 3
f 6/18/19 5/9/12 9/8/11 12/21/20
f 13/3/9 16/24/21 18/25/22 17/4/10
s off
f 16/23/23 15/27/24 19/33/25 18/34/26
s 2
f 15/27/27 14/10/8 20/6/7 19/33/28
s 4
f 4/11/29 2/14/30 10/15/31 20/16/32
f 20/16/32 10/15/31 11/26/33 19/28/34
f 19/28/34 11/26/33 12/29/35 18/30/36
f 18/30/36 12/29/35 9/31/37 17/32/38
