# This file uses centimeters as units for non-parametric coordinates.

mtllib rueda.mtl
g default
v 0.000000 5.375071 1.986804
v -0.000000 -0.101628 1.986804
v 0.000000 5.375071 -3.005774
v -0.000000 -0.101628 -3.005774
v -0.000000 4.446663 1.986804
v 0.000000 4.446663 -3.005774
v 0.000000 5.375071 0.924813
v -0.000000 4.446663 0.924813
v -0.000000 -0.101628 0.924813
v 0.000000 5.375071 -1.942382
v 0.000000 4.446663 -1.942382
v -0.000000 -0.101628 -1.942382
vt 0.996201 0.003799
vt 0.996201 0.996201
vt 0.003799 0.996201
vt 0.003799 0.003799
vt 0.003799 0.881265
vt 0.996201 0.881265
vt 0.214897 0.996201
vt 0.214897 0.881265
vt 0.214897 0.003799
vt 0.784825 0.996201
vt 0.784825 0.881265
vt 0.784825 0.003799
vn 1.000000 -0.000000 0.000000
vn 1.000000 -0.000000 0.000000
vn 1.000000 -0.000000 0.000000
vn 1.000000 -0.000000 0.000000
vn 1.000000 -0.000000 0.000000
vn 1.000000 -0.000000 0.000000
vn 1.000000 -0.000000 0.000000
vn 1.000000 -0.000000 0.000000
vn 1.000000 -0.000000 0.000000
vn 1.000000 -0.000000 0.000000
vn 1.000000 -0.000000 0.000000
vn 1.000000 -0.000000 0.000000
s 1
g pPlane2
usemtl initialShadingGroup
f 10/10/1 11/11/2 6/6/3 3/2/4
f 4/1/5 6/6/3 11/11/2 12/12/6
f 5/5/7 8/8/8 7/7/9 1/3/10
f 9/9/11 8/8/8 5/5/7 2/4/12
f 7/7/9 8/8/8 11/11/2 10/10/1
