# This file uses centimeters as units for non-parametric coordinates.

mtllib prop_marco.mtl
g default
v -0.484537 -0.646050 -0.000000
v 0.484537 -0.646050 -0.000000
v -0.484537 0.646050 0.000000
v 0.484537 0.646050 0.000000
v -0.469544 -0.631455 0.023039
v 0.469544 -0.631455 0.023039
v 0.469544 0.631455 0.023039
v -0.469544 0.631455 0.023039
v -0.438437 -0.589623 0.023039
v 0.438438 -0.589623 0.023039
v 0.438438 0.589623 0.023039
v -0.438437 0.589623 0.023039
v -0.421908 -0.567393 -0.000000
v 0.421908 -0.567393 -0.000000
v 0.421908 0.567394 -0.000000
v -0.421908 0.567394 -0.000000
vt 0.016056 0.017283
vt 0.733944 0.017283
vt 0.710165 0.049262
vt 0.039836 0.049262
vt 0.004594 0.006126
vt 0.745406 0.006126
vt 0.733944 0.982717
vt 0.710165 0.950739
vt 0.697529 0.066255
vt 0.052471 0.066255
vt 0.016056 0.982717
vt 0.039836 0.950739
vt 0.745406 0.993874
vt 0.004594 0.993874
vt 0.697529 0.933745
vt 0.052471 0.933745
vn 0.000000 -0.844768 0.535132
vn 0.000000 -0.844768 0.535132
vn 0.000000 -0.844768 0.535132
vn 0.000000 -0.844768 0.535132
vn 0.838141 0.000000 0.545454
vn 0.838141 0.000000 0.545454
vn 0.838141 0.000000 0.545454
vn 0.838141 0.000000 0.545454
vn 0.000000 0.844769 0.535130
vn 0.000000 0.844769 0.535130
vn 0.000000 0.844769 0.535130
vn 0.000000 0.844769 0.535130
vn -0.838141 0.000000 0.545454
vn -0.838141 0.000000 0.545454
vn -0.838141 0.000000 0.545454
vn -0.838141 0.000000 0.545454
vn -0.000000 0.000000 1.000000
vn 0.000000 0.000000 1.000000
vn 0.000000 0.000000 1.000000
vn -0.000000 0.000000 1.000000
vn 0.000000 0.000000 1.000000
vn 0.000000 0.000000 1.000000
vn -0.000000 0.000000 1.000000
vn -0.000000 0.000000 1.000000
vn 0.000000 0.719638 0.694349
vn 0.000000 0.719638 0.694349
vn 0.000000 0.719638 0.694349
vn 0.000000 0.719638 0.694349
vn -0.812513 0.000000 0.582943
vn -0.812513 0.000000 0.582943
vn -0.812513 0.000000 0.582943
vn -0.812513 0.000000 0.582943
vn 0.000000 -0.719639 0.694349
vn 0.000000 -0.719639 0.694349
vn 0.000000 -0.719639 0.694349
vn 0.000000 -0.719639 0.694349
vn 0.812513 0.000000 0.582943
vn 0.812513 0.000000 0.582943
vn 0.812513 0.000000 0.582943
vn 0.812513 0.000000 0.582943
s off
g pPlane1
usemtl initialShadingGroup
f 1/5/1 2/6/2 6/2/3 5/1/4
f 2/6/5 4/13/6 7/7/7 6/2/8
f 4/13/9 3/14/10 8/11/11 7/7/12
f 3/14/13 1/5/14 5/1/15 8/11/16
s 1
f 5/1/17 6/2/18 10/3/19 9/4/20
f 6/2/18 7/7/21 11/8/22 10/3/19
f 7/7/21 8/11/23 12/12/24 11/8/22
f 8/11/23 5/1/17 9/4/20 12/12/24
s off
f 9/4/25 10/3/26 14/9/27 13/10/28
f 10/3/29 11/8/30 15/15/31 14/9/32
f 11/8/33 12/12/34 16/16/35 15/15/36
f 12/12/37 9/4/38 13/10/39 16/16/40
