# This file uses centimeters as units for non-parametric coordinates.

mtllib cards.mtl
g default
v -0.685460 -0.000000 0.500000
v -0.685460 0.000000 -0.218866
v 0.500000 0.000000 -0.218866
v -0.685460 -0.000000 0.395087
v 0.500000 -0.000000 0.395087
v -0.685460 -0.000000 0.291021
v 0.500000 -0.000000 0.291021
v -0.685460 -0.000000 0.195604
v 0.500000 -0.000000 0.195604
v 0.458981 -0.000000 0.460787
v 0.458981 -0.000000 0.395087
v 0.458981 -0.000000 0.291021
v 0.458981 -0.000000 0.195604
v 0.429933 -0.000000 0.478220
v 0.429933 -0.000000 0.395087
v 0.429933 -0.000000 0.291021
v 0.429933 -0.000000 0.195604
v 0.363724 -0.000000 0.500000
v 0.363724 -0.000000 0.395087
v 0.363724 -0.000000 0.291021
v 0.363724 -0.000000 0.195604
v 0.361563 0.000000 -0.218866
v 0.430782 0.000000 -0.218866
v 0.458469 0.000000 -0.218866
v -0.685460 0.013990 0.500000
v 0.363724 0.013990 0.500000
v 0.363724 0.013990 0.395087
v -0.685460 0.013990 0.395087
v 0.363724 0.013990 0.291021
v -0.685460 0.013990 0.291021
v 0.363724 0.013990 0.195604
v -0.685460 0.013990 0.195604
v 0.458981 0.013990 0.460787
v 0.458981 0.013990 0.395087
v 0.500000 0.013990 0.395087
v 0.458981 0.013990 0.291021
v 0.500000 0.013990 0.291021
v 0.458981 0.013990 0.195604
v 0.500000 0.013990 0.195604
v 0.429933 0.013990 0.478220
v 0.429933 0.013990 0.395087
v 0.429933 0.013990 0.291021
v 0.429933 0.013990 0.195604
v 0.361563 0.013990 -0.218866
v -0.685460 0.013990 -0.218866
v 0.430782 0.013990 -0.218866
v 0.458469 0.013990 -0.218866
v 0.500000 0.013990 -0.218866
vt 0.802458 0.977895
vt 0.104644 0.977895
vt 0.104644 0.908117
vt 0.802458 0.908117
vt 0.104644 0.838902
vt 0.802458 0.838903
vt 0.104644 0.775440
vt 0.802458 0.775440
vt 0.041289 0.908117
vt 0.041289 0.951814
vt 0.014007 0.908117
vt 0.041289 0.838902
vt 0.014007 0.838902
vt 0.041289 0.775440
vt 0.014007 0.775440
vt 0.060609 0.908117
vt 0.060609 0.963409
vt 0.060609 0.838902
vt 0.060609 0.775440
vt 0.106081 0.499776
vt 0.802458 0.499776
vt 0.060044 0.499776
vt 0.041629 0.499776
vt 0.014007 0.499776
vt 0.804842 0.013814
vt 0.804842 0.083592
vt 0.107029 0.083592
vt 0.107029 0.013814
vt 0.804842 0.152807
vt 0.107029 0.152807
vt 0.804842 0.216269
vt 0.107029 0.216269
vt 0.043673 0.083592
vt 0.016392 0.083592
vt 0.043673 0.039895
vt 0.043673 0.152807
vt 0.016392 0.152807
vt 0.043673 0.216269
vt 0.016392 0.216269
vt 0.062993 0.083592
vt 0.062993 0.028300
vt 0.062993 0.152807
vt 0.062993 0.216269
vt 0.804843 0.491933
vt 0.108466 0.491933
vt 0.062429 0.491933
vt 0.044014 0.491933
vt 0.016392 0.491933
vt 0.973518 0.184840
vt 0.973518 0.482649
vt 0.829993 0.482649
vt 0.829993 0.184840
vt 0.973518 0.163305
vt 0.829993 0.163305
vt 0.973518 0.139071
vt 0.829993 0.139070
vt 0.973518 0.114993
vt 0.829993 0.114992
vt 0.973518 0.504435
vt 0.973518 0.523003
vt 0.829993 0.523003
vt 0.829993 0.504435
vt 0.973518 0.547238
vt 0.829993 0.547238
vt 0.973518 0.571316
vt 0.829993 0.571316
vt 0.973518 0.497075
vt 0.829993 0.497075
vt 0.973518 0.688920
vt 0.973518 0.016563
vt 0.829993 0.016563
vt 0.829993 0.688920
vt 0.973518 0.678473
vt 0.829993 0.678473
vt 0.973518 0.674797
vt 0.829993 0.674797
vt 0.973518 0.669745
vt 0.829993 0.669745
vt 0.973518 0.986373
vt 0.829993 0.986373
vn -0.000000 1.000000 -0.000000
vn -0.000000 1.000000 -0.000000
vn -0.000000 1.000000 -0.000000
vn -0.000000 1.000000 -0.000000
vn 0.000000 1.000000 0.000000
vn 0.000000 1.000000 0.000000
vn 0.000000 1.000000 0.000000
vn 0.000000 1.000000 0.000000
vn -0.000000 1.000000 -0.000000
vn 0.000000 1.000000 -0.000000
vn -0.000000 1.000000 0.000000
vn -0.000000 1.000000 -0.000000
vn -0.000000 1.000000 -0.000000
vn -0.000000 1.000000 -0.000000
vn -0.000000 1.000000 -0.000000
vn 0.000000 1.000000 -0.000000
vn 0.000000 1.000000 -0.000000
vn 0.000000 1.000000 0.000000
vn 0.000000 1.000000 0.000000
vn 0.000000 1.000000 0.000000
vn 0.000000 1.000000 0.000000
vn 0.000000 1.000000 0.000000
vn 0.000000 1.000000 0.000000
vn 0.000000 1.000000 0.000000
vn 0.000000 -1.000000 -0.000000
vn 0.000000 -1.000000 -0.000000
vn -0.000000 -1.000000 -0.000000
vn -0.000000 -1.000000 -0.000000
vn 0.000000 -1.000000 -0.000000
vn 0.000000 -1.000000 -0.000000
vn 0.000000 -1.000000 -0.000000
vn 0.000000 -1.000000 -0.000000
vn -0.000000 -1.000000 -0.000000
vn 0.000000 -1.000000 -0.000000
vn -0.000000 -1.000000 -0.000000
vn 0.000000 -1.000000 -0.000000
vn 0.000000 -1.000000 -0.000000
vn 0.000000 -1.000000 -0.000000
vn 0.000000 -1.000000 -0.000000
vn -0.000000 -1.000000 -0.000000
vn -0.000000 -1.000000 -0.000000
vn 0.000000 -1.000000 -0.000000
vn 0.000000 -1.000000 -0.000000
vn 0.000000 -1.000000 -0.000000
vn 0.000000 -1.000000 -0.000000
vn 0.000000 -1.000000 -0.000000
vn 0.000000 -1.000000 -0.000000
vn 0.000000 -1.000000 -0.000000
vn 0.000000 0.000000 1.000000
vn 0.019523 0.000000 0.999809
vn 0.019523 0.000000 0.999809
vn 0.000000 0.000000 1.000000
vn -1.000000 0.000000 0.000000
vn -1.000000 0.000000 0.000000
vn -1.000000 0.000000 0.000000
vn -1.000000 0.000000 0.000000
vn -1.000000 0.000000 0.000000
vn -1.000000 0.000000 0.000000
vn -1.000000 0.000000 0.000000
vn -1.000000 0.000000 0.000000
vn 0.764635 0.000000 0.644464
vn 0.848249 0.000000 0.529598
vn 0.848249 0.000000 0.529598
vn 0.764635 0.000000 0.644464
vn 1.000000 0.000000 0.000000
vn 1.000000 0.000000 0.000000
vn 1.000000 0.000000 0.000000
vn 1.000000 0.000000 0.000000
vn 1.000000 0.000000 0.000000
vn 1.000000 0.000000 0.000000
vn 0.380667 0.000000 0.924712
vn 0.380667 0.000000 0.924712
vn 0.000000 0.000000 -1.000000
vn 0.000000 0.000000 -1.000000
vn 0.000000 0.000000 -1.000000
vn 0.000000 0.000000 -1.000000
vn -1.000000 0.000000 0.000001
vn -1.000000 0.000000 0.000001
vn 0.000000 0.000000 -1.000000
vn 0.000000 0.000000 -1.000000
vn 0.000000 0.000000 -1.000000
vn 0.000000 0.000000 -1.000000
vn 0.000000 0.000000 -1.000000
vn 0.000000 0.000000 -1.000000
vn 1.000000 0.000000 0.000000
vn 1.000000 0.000000 0.000000
s 1
g pPlane1
usemtl initialShadingGroup
f 25/1/1 26/2/2 27/3/3 28/4/4
f 28/4/4 27/3/3 29/5/5 30/6/6
f 30/6/6 29/5/5 31/7/7 32/8/8
f 34/9/9 33/10/10 35/11/11
f 36/12/12 34/9/9 35/11/11 37/13/13
f 38/14/14 36/12/12 37/13/13 39/15/15
f 41/16/16 40/17/17 33/10/10 34/9/9
f 42/18/18 41/16/16 34/9/9 36/12/12
f 43/19/19 42/18/18 36/12/12 38/14/14
f 27/3/3 26/2/2 40/17/17 41/16/16
f 29/5/5 27/3/3 41/16/16 42/18/18
f 31/7/7 29/5/5 42/18/18 43/19/19
f 31/7/7 44/20/20 45/21/21 32/8/8
f 43/19/19 46/22/22 44/20/20 31/7/7
f 38/14/14 47/23/23 46/22/22 43/19/19
f 48/24/24 47/23/23 38/14/14 39/15/15
s 3
f 1/25/25 4/26/26 19/27/27 18/28/28
f 4/26/26 6/29/29 20/30/30 19/27/27
f 6/29/29 8/31/31 21/32/32 20/30/30
f 11/33/33 5/34/34 10/35/35
f 12/36/36 7/37/37 5/34/34 11/33/33
f 13/38/38 9/39/39 7/37/37 12/36/36
f 15/40/40 11/33/33 10/35/35 14/41/41
f 16/42/42 12/36/36 11/33/33 15/40/40
f 17/43/43 13/38/38 12/36/36 16/42/42
f 19/27/27 15/40/40 14/41/41 18/28/28
f 20/30/30 16/42/42 15/40/40 19/27/27
f 21/32/32 17/43/43 16/42/42 20/30/30
f 21/32/32 8/31/31 2/44/44 22/45/45
f 17/43/43 21/32/32 22/45/45 23/46/46
f 13/38/38 17/43/43 23/46/46 24/47/47
f 3/48/48 9/39/39 13/38/38 24/47/47
s 5
f 1/49/49 18/50/50 26/51/51 25/52/52
s 6
f 4/53/53 1/49/54 25/52/55 28/54/56
f 6/55/57 4/53/53 28/54/56 30/56/58
f 8/57/59 6/55/57 30/56/58 32/58/60
s 5
f 10/59/61 5/60/62 35/61/63 33/62/64
s 8
f 5/60/65 7/63/66 37/64/67 35/61/68
f 7/63/66 9/65/69 39/66/70 37/64/67
s 5
f 14/67/71 10/59/61 33/62/64 40/68/72
f 18/50/50 14/67/71 40/68/72 26/51/51
s 9
f 22/69/73 2/79/74 45/80/75 44/72/76
s 6
f 2/70/77 8/57/59 32/58/60 45/71/78
s 9
f 23/73/79 22/69/73 44/72/76 46/74/80
f 24/75/81 23/73/79 46/74/80 47/76/82
f 3/77/83 24/75/81 47/76/82 48/78/84
s 8
f 9/65/69 3/77/85 48/78/86 39/66/70
