# This file uses centimeters as units for non-parametric coordinates.

mtllib cofre_low_1.mtl
g default
v -1.277225 -0.500000 0.250025
v -1.027250 -0.500000 0.500000
v -1.122911 -0.500000 0.480972
v -1.204010 -0.500000 0.426784
v -1.258197 -0.500000 0.345686
v 1.277223 -0.500000 0.250025
v 1.258195 -0.500000 0.345686
v 1.204007 -0.500000 0.426784
v 1.122910 -0.500000 0.480972
v 1.027248 -0.500000 0.500000
v -1.277225 -0.500000 -0.250025
v -1.258197 -0.500000 -0.345686
v -1.204010 -0.500000 -0.426784
v -1.122911 -0.500000 -0.480972
v -1.027250 -0.500000 -0.500000
v 1.277223 -0.500000 -0.250025
v 1.027248 -0.500000 -0.500000
v 1.122910 -0.500000 -0.480972
v 1.204007 -0.500000 -0.426784
v 1.258195 -0.500000 -0.345686
v -1.024992 0.500000 -0.477074
v 1.024990 0.500000 -0.477074
v -1.236601 0.500000 -0.336741
v -1.254300 0.500000 -0.247767
v -1.187481 0.500000 -0.410255
v -1.113966 0.500000 -0.459376
v 1.113965 0.500000 -0.459376
v 1.187479 0.500000 -0.410255
v 1.236600 0.500000 -0.336741
v 1.254297 0.500000 -0.247767
v -1.254449 0.500000 0.206018
v 1.254447 0.500000 0.206018
v -1.022191 0.500000 0.448637
v -1.102870 0.500000 0.432589
v 1.022190 0.500000 0.448637
v 1.102869 0.500000 0.432589
v -1.210842 0.500000 0.324118
v -1.166979 0.500000 0.389753
v 1.166976 0.500000 0.389753
v 1.210835 0.500000 0.324115
vt 0.936178 0.539795
vt 0.936178 0.369025
vt 0.929680 0.336357
vt 0.911174 0.308661
vt 0.883479 0.290156
vt 0.850810 0.283658
vt 0.149190 0.283658
vt 0.116521 0.290156
vt 0.088826 0.308661
vt 0.070321 0.336357
vt 0.063822 0.369025
vt 0.063822 0.539795
vt 0.070321 0.572463
vt 0.088826 0.600158
vt 0.116521 0.618664
vt 0.149190 0.625162
vt 0.850810 0.625162
vt 0.883479 0.618664
vt 0.911174 0.600158
vt 0.929680 0.572463
vt 0.040096 0.273091
vt 0.632699 0.273091
vt 0.046666 0.273091
vt 0.626129 0.273091
vt 0.065165 0.273091
vt 0.055303 0.273091
vt 0.075627 0.273091
vt 0.128465 0.273091
vt 0.617492 0.273091
vt 0.607630 0.273091
vt 0.597169 0.273091
vt 0.544330 0.273091
vt 0.143052 0.273091
vt 0.529744 0.273091
vt 0.165504 0.273091
vt 0.159629 0.273091
vt 0.507292 0.273091
vt 0.152029 0.273091
vt 0.513167 0.273091
vt 0.520766 0.273091
vt 0.037532 0.003330
vt 0.635263 0.003330
vt 0.075879 0.003330
vt 0.132975 0.003330
vt 0.064830 0.003330
vt 0.054121 0.003330
vt 0.044665 0.003330
vt 0.628131 0.003330
vt 0.618675 0.003330
vt 0.607965 0.003330
vt 0.596916 0.003330
vt 0.539820 0.003330
vt 0.164190 0.003330
vt 0.171322 0.003330
vt 0.501473 0.003330
vt 0.508606 0.003330
vt 0.144024 0.003330
vt 0.154733 0.003330
vt 0.518062 0.003330
vt 0.528771 0.003330
vt 0.909774 0.697669
vt 0.901870 0.946197
vt 0.924483 0.891204
vt 0.924533 0.737623
vt 0.918493 0.921318
vt 0.846880 0.968809
vt 0.873236 0.660959
vt 0.876991 0.962820
vt 0.894931 0.675456
vt 0.075467 0.737636
vt 0.075517 0.891206
vt 0.090224 0.697668
vt 0.081509 0.921277
vt 0.105069 0.675456
vt 0.123011 0.962828
vt 0.154068 0.655528
vt 0.153120 0.968809
vt 0.845932 0.655528
vt 0.098133 0.946185
vt 0.126764 0.660959
vt 0.967978 0.273091
vt 0.965414 0.003330
vn 0.000000 -1.000000 0.000000
vn 0.000000 -1.000000 0.000000
vn 0.000000 -1.000000 0.000000
vn 0.000000 -1.000000 0.000000
vn 0.000000 -1.000000 0.000000
vn 0.000000 -1.000000 0.000000
vn 0.000000 -1.000000 0.000000
vn 0.000000 -1.000000 0.000000
vn 0.000000 -1.000000 0.000000
vn 0.000000 -1.000000 0.000000
vn 0.000000 -1.000000 0.000000
vn 0.000000 -1.000000 0.000000
vn 0.000000 -1.000000 0.000000
vn 0.000000 -1.000000 0.000000
vn -0.008605 0.022938 -0.999700
vn 0.008605 0.022938 -0.999700
vn 0.008515 0.022938 -0.999701
vn -0.008515 0.022938 -0.999701
vn -0.382819 0.023369 -0.923528
vn -0.380067 0.023369 -0.924664
vn 0.382820 0.023369 -0.923527
vn 0.380068 0.023369 -0.924663
vn -0.924451 0.023369 -0.380584
vn -0.708045 0.023369 -0.705781
vn -0.705776 0.023369 -0.708049
vn -0.923738 0.023369 -0.382313
vn -0.999216 0.022915 -0.032300
vn -0.999211 0.022916 -0.032431
vn -0.998340 0.026623 0.051067
vn -0.998073 0.026976 0.055885
vn 0.708047 0.023369 -0.705779
vn 0.705778 0.023369 -0.708047
vn 0.924451 0.023369 -0.380585
vn 0.923737 0.023369 -0.382314
vn 0.999215 0.022915 -0.032299
vn 0.999211 0.022915 -0.032430
vn 0.998340 0.026624 0.051071
vn 0.998072 0.026977 0.055890
vn -0.913040 0.047059 0.405147
vn -0.911645 0.047158 0.408265
vn 0.913039 0.047063 0.405148
vn 0.911644 0.047161 0.408266
vn -0.008291 0.051336 0.998647
vn -0.382542 0.052298 0.922457
vn -0.376384 0.052297 0.924986
vn -0.008096 0.051335 0.998649
vn 0.008291 0.051336 0.998647
vn 0.008096 0.051335 0.998649
vn -0.709385 0.052295 0.702878
vn -0.704317 0.052296 0.707957
vn 0.382543 0.052298 0.922457
vn 0.376385 0.052297 0.924986
vn 0.709399 0.052297 0.702864
vn 0.704331 0.052297 0.707943
vn 0.000000 1.000000 0.000000
vn 0.000000 1.000000 0.000000
vn 0.000000 1.000000 0.000000
vn 0.000000 1.000000 0.000000
vn 0.000000 1.000000 0.000000
vn 0.000000 1.000000 0.000000
vn 0.000000 1.000000 0.000000
vn 0.000000 1.000000 0.000000
vn 0.000000 1.000000 0.000000
vn 0.000000 1.000000 0.000000
vn 0.000000 1.000000 0.000000
vn 0.000000 1.000000 0.000000
vn 0.000000 1.000000 0.000000
vn 0.000000 1.000000 0.000000
vn 0.000000 1.000000 0.000000
vn 0.000000 1.000000 0.000000
vn 0.000000 1.000000 0.000000
vn 0.000000 1.000000 0.000000
vn 0.000000 1.000000 0.000000
vn 0.000000 1.000000 0.000000
vn 0.000000 -1.000000 0.000000
vn 0.000000 -1.000000 0.000000
vn 0.000000 -1.000000 0.000000
vn 0.000000 -1.000000 0.000000
vn 0.000000 -1.000000 0.000000
vn 0.000000 -1.000000 0.000000
s 1
g Cofre_low
usemtl initialShadingGroup
f 15/16/1 2/7/2 3/8/3 14/15/4
f 18/18/5 9/5/6 10/6/7 17/17/8
f 20/20/9 7/3/10 8/4/11 19/19/12
f 19/19/12 8/4/11 9/5/6 18/18/5
f 16/1/13 6/2/14 7/3/10 20/20/9
s 4
f 21/81/15 22/22/16 17/42/17 15/82/18
f 26/23/19 21/21/15 15/41/18 14/47/20
f 22/22/16 27/24/21 18/48/22 17/42/17
f 23/25/23 25/26/24 13/46/25 12/45/26
f 24/27/27 23/25/23 12/45/26 11/43/28
f 31/28/29 24/27/27 11/43/28 1/44/30
f 25/26/24 26/23/19 14/47/20 13/46/25
f 27/24/21 28/29/31 19/49/32 18/48/22
f 28/29/31 29/30/33 20/50/34 19/49/32
f 29/30/33 30/31/35 16/51/36 20/50/34
f 30/31/35 32/32/37 6/52/38 16/51/36
f 37/33/39 31/28/29 1/44/30 5/57/40
f 32/32/37 40/34/41 7/60/42 6/52/38
f 33/35/43 34/36/44 3/53/45 2/54/46
f 35/37/47 33/35/43 2/54/46 10/55/48
f 34/36/44 38/38/49 4/58/50 3/53/45
f 36/39/51 35/37/47 10/55/48 9/56/52
f 39/40/53 36/39/51 9/56/52 8/59/54
f 38/38/49 37/33/39 5/57/40 4/58/50
f 40/34/41 39/40/53 8/59/54 7/60/42
s 6
f 34/80/55 26/75/56 25/79/57 38/74/58
f 35/78/59 22/66/60 21/77/61 33/76/62
f 33/76/62 21/77/61 26/75/56 34/80/55
f 38/74/58 25/79/57 23/73/63 37/72/64
f 37/72/64 23/73/63 24/71/65 31/70/66
f 39/69/67 28/62/68 27/68/69 36/67/70
f 36/67/70 27/68/69 22/66/60 35/78/59
f 29/65/71 40/61/72 32/64/73 30/63/74
f 29/65/71 28/62/68 39/69/67 40/61/72
s 1
f 17/17/8 10/6/7 2/7/2 15/16/1
f 13/14/75 4/9/76 5/10/77 1/11/78 11/12/79 12/13/80
f 14/15/4 3/8/3 4/9/76 13/14/75
