# This file uses centimeters as units for non-parametric coordinates.

mtllib final_pasillo.mtl
g default
v -0.267469 2.692132 0.436728
v 0.267469 2.692132 0.436728
v 0.267469 -2.692132 0.436728
v -0.267469 -2.692132 0.436728
v -0.053515 2.692132 -0.436728
v -0.053515 -2.692132 -0.436728
v 0.267469 -2.692132 -0.436728
v 0.267469 2.692132 -0.436728
v -0.267469 -2.692132 -0.222777
v -0.267469 2.692132 -0.222777
v -0.251183 -2.692132 -0.304654
v -0.251183 2.692132 -0.304654
v -0.204803 -2.692132 -0.374064
v -0.204803 2.692132 -0.374064
v -0.135392 -2.692132 -0.420441
v -0.135392 2.692132 -0.420441
vt 0.278261 0.004923
vt 0.278261 0.995077
vt 0.185112 0.995077
vt 0.185112 0.004923
vt 0.487620 0.004923
vt 0.544529 0.004923
vt 0.544529 0.995077
vt 0.487620 0.995077
vt 0.011992 0.995077
vt 0.011992 0.004923
vt 0.423682 0.995077
vt 0.423682 0.004923
vt 0.439516 0.004923
vt 0.439516 0.995077
vt 0.455498 0.004923
vt 0.455498 0.995077
vt 0.471550 0.004923
vt 0.471550 0.995077
vn 0.000000 0.000000 1.000000
vn 0.000000 0.000000 1.000000
vn 0.000000 0.000000 1.000000
vn 0.000000 0.000000 1.000000
vn -0.040396 0.000000 -0.999184
vn 0.000000 0.000000 -1.000000
vn 0.000000 0.000000 -1.000000
vn -0.040396 0.000000 -0.999184
vn 1.000000 0.000000 0.000000
vn 1.000000 0.000000 0.000000
vn 1.000000 0.000000 0.000000
vn 1.000000 0.000000 0.000000
vn -0.999759 0.000000 -0.021961
vn -1.000000 0.000000 0.000000
vn -1.000000 0.000000 0.000000
vn -0.999759 0.000000 -0.021961
vn -0.923879 0.000000 -0.382685
vn -0.923879 0.000000 -0.382685
vn -0.707096 0.000000 -0.707118
vn -0.707096 0.000000 -0.707118
vn -0.382677 0.000000 -0.923882
vn -0.382677 0.000000 -0.923882
s off
g polySurface4 pilares UVS
usemtl initialShadingGroup
f 1/1/1 4/2/2 3/3/3 2/4/4
s 1
f 5/5/5 8/6/6 7/7/7 6/8/8
s off
f 2/4/9 3/3/10 7/9/11 8/10/12
s 1
f 9/11/13 4/2/14 1/1/15 10/12/16
f 9/11/13 10/12/16 12/13/17 11/14/18
f 11/14/18 12/13/17 14/15/19 13/16/20
f 13/16/20 14/15/19 16/17/21 15/18/22
f 15/18/22 16/17/21 5/5/5 6/8/8
