# This file uses meters as units for non-parametric coordinates.

mtllib Modulo_final.mtl
g default
v -639.629517 -197.573334 -1212.646553
v -639.629517 -197.573334 -1112.646553
v -639.629517 295.189178 -1212.646553
v -639.629517 295.189178 -1112.646553
v -70.767609 295.189178 -1212.646553
v -70.767609 295.189178 -1112.646553
v -70.767609 -197.573334 -1212.646553
v -70.767609 -197.573334 -1112.646553
v -70.767609 -12.781235 -1177.004951
v -70.767609 110.397064 -1177.004951
v -639.629517 110.397064 -1177.004951
v -639.629517 -12.781235 -1177.004951
v -639.629517 110.397064 -1077.004951
v -639.629517 -12.781235 -1077.004951
v -70.767609 -12.781235 -1077.004951
v -70.767609 110.397064 -1077.004951
v -70.767609 -109.963776 -1212.646553
v -70.767609 -92.632782 -1211.508613
v -70.767609 -75.599365 -1208.114326
v -70.767609 -59.156006 -1202.521797
v -70.767609 -43.585052 -1194.827461
v -639.629517 -109.963776 -1212.646553
v -639.629517 -92.632782 -1211.508613
v -639.629517 -75.599365 -1208.114326
v -639.629517 -59.156006 -1202.521797
v -639.629517 -43.585052 -1194.827461
v -639.629517 -109.963776 -1112.646553
v -639.629517 -92.632782 -1111.508613
v -639.629517 -75.599365 -1108.114326
v -639.629517 -59.156006 -1102.521797
v -639.629517 -43.585052 -1094.827461
v -70.767609 -109.963776 -1112.646553
v -70.767609 -92.632782 -1111.508613
v -70.767609 -75.599365 -1108.114326
v -70.767609 -59.156006 -1102.521797
v -70.767609 -43.585052 -1094.827461
v -70.767609 207.579651 -1212.646553
v -70.767609 190.248657 -1211.508613
v -70.767609 173.215210 -1208.114326
v -70.767609 156.771851 -1202.521797
v -70.767609 141.200897 -1194.827461
v -639.629517 207.579651 -1212.646553
v -639.629517 190.248657 -1211.508613
v -639.629517 173.215210 -1208.114326
v -639.629517 156.771851 -1202.521797
v -639.629517 141.200897 -1194.827461
v -639.629517 207.579651 -1112.646553
v -639.629517 190.248657 -1111.508613
v -639.629517 173.215210 -1108.114326
v -639.629517 156.771851 -1102.521797
v -639.629517 141.200897 -1094.827461
v -70.767609 207.579651 -1112.646553
v -70.767609 190.248657 -1111.508613
v -70.767609 173.215210 -1108.114326
v -70.767609 156.771851 -1102.521797
v -70.767609 141.200897 -1094.827461
v -639.629517 251.384430 -1212.646553
v -639.629517 251.384430 -1112.646553
v -70.767609 251.384430 -1112.646553
v -70.767609 251.384430 -1212.646553
v -70.622681 295.189178 -1774.773872
v -70.622681 295.189178 -1874.773872
v -639.484619 295.189178 -1774.773872
v -639.484619 295.189178 -1874.773872
v -639.484619 251.384430 -1774.773872
v -639.484619 251.384430 -1874.773872
v -70.622681 251.384430 -1874.773872
v -70.622681 251.384430 -1774.773872
vt 0.375000 0.250000
vt 0.625000 0.250000
vt 0.625000 0.500000
vt 0.375000 0.500000
vt 0.375000 0.750000
vt 0.625000 0.750000
vt 0.625000 1.000000
vt 0.375000 1.000000
vt 0.375000 0.656247
vt 0.375000 0.593753
vt 0.506214 0.625000
vt 0.625000 0.656247
vt 0.125000 0.125000
vt 0.125000 0.093753
vt 0.375000 0.093753
vt 0.375000 0.156247
vt 0.625000 0.093753
vt 0.625000 0.156247
vt 0.875000 0.093753
vt 0.875000 0.156247
vt 0.375000 0.227776
vt 0.625000 0.227776
vt 0.625000 0.522224
vt 0.375000 0.522224
vt 0.875000 0.227776
vt 0.875000 0.250000
vt 0.125000 0.000000
vt 0.375000 0.000000
vt 0.375000 0.044448
vt 0.125000 0.044448
vt 0.625000 0.000000
vt 0.625000 0.044448
vt 0.875000 0.000000
vt 0.875000 0.044448
vt 0.375000 0.705552
vt 0.625000 0.705552
vt 0.125000 0.078125
vt 0.375000 0.078125
vt 0.625000 0.078125
vt 0.875000 0.078125
vt 0.625000 0.671875
vt 0.375000 0.671875
vt 0.125000 0.156247
vt 0.375000 0.171875
vt 0.125000 0.171875
vt 0.625000 0.171875
vt 0.875000 0.171875
vt 0.375000 0.578125
vt 0.625000 0.578125
vt 0.625000 0.593753
vt 0.375000 0.679688
vt 0.625000 0.679688
vt 0.375000 0.687500
vt 0.625000 0.687500
vt 0.375000 0.696526
vt 0.625000 0.696526
vt 0.125000 0.070313
vt 0.372963 0.070169
vt 0.125000 0.062500
vt 0.375000 0.062500
vt 0.125000 0.053474
vt 0.372818 0.053412
vt 0.623636 0.070687
vt 0.625000 0.062500
vt 0.624111 0.053619
vt 0.875000 0.070313
vt 0.875000 0.062500
vt 0.875000 0.053474
vt 0.125000 0.179687
vt 0.372911 0.179871
vt 0.125000 0.187500
vt 0.375000 0.187500
vt 0.125000 0.205552
vt 0.125000 0.196526
vt 0.372787 0.196593
vt 0.375000 0.205552
vt 0.623687 0.179273
vt 0.625000 0.187500
vt 0.624142 0.196376
vt 0.625000 0.205552
vt 0.875000 0.179687
vt 0.875000 0.187500
vt 0.875000 0.196526
vt 0.875000 0.205552
vt 0.375000 0.570313
vt 0.625000 0.570313
vt 0.375000 0.562500
vt 0.625000 0.562500
vt 0.375000 0.553474
vt 0.625000 0.553474
vt 0.375000 0.544448
vt 0.625000 0.544448
vt 0.125000 0.227776
vt 0.375000 0.250000
vt 0.625000 0.250000
vt 0.625000 0.500000
vt 0.375000 0.500000
vt 0.625000 0.227776
vt 0.375000 0.227776
vt 0.250000 0.375000
vt 0.750000 0.375000
vt 0.875000 0.250000
vn 0.000000 1.000000 0.000000
vn 0.000000 1.000000 0.000000
vn 0.000000 1.000000 0.000000
vn 0.000000 1.000000 0.000000
vn 0.000000 -1.000000 0.000000
vn 0.000000 -1.000000 0.000000
vn 0.000000 -1.000000 0.000000
vn 0.000000 -1.000000 0.000000
vn 1.000000 0.000000 0.000000
vn 1.000000 0.000000 0.000000
vn 1.000000 0.000000 0.000000
vn 1.000000 0.000000 0.000000
vn 0.000000 0.000000 -1.000000
vn 0.000000 0.000000 -1.000000
vn 0.000000 0.000000 -1.000000
vn 0.000000 0.000000 -1.000000
vn -1.000000 -0.000000 0.000000
vn -1.000000 0.000000 0.000000
vn -1.000000 0.000000 0.000000
vn -1.000000 -0.000000 0.000000
vn 0.000000 0.000000 1.000000
vn 0.000000 0.000000 1.000000
vn 0.000000 0.000000 1.000000
vn 0.000000 0.000000 1.000000
vn -1.000000 0.000000 0.000000
vn -1.000000 0.000000 0.000000
vn -1.000000 0.000000 0.000000
vn -1.000000 0.000000 0.000000
vn 1.000000 0.000000 0.000000
vn 1.000000 0.000000 0.000000
vn 1.000000 0.000000 0.000000
vn 1.000000 0.000000 0.000000
vn 0.000000 0.000000 1.000000
vn 0.000000 0.000000 1.000000
vn 0.000000 0.000000 1.000000
vn 0.000000 0.000000 1.000000
vn 0.000000 0.000000 -1.000000
vn 0.000000 0.000000 -1.000000
vn 0.000000 0.010843 -0.999941
vn 0.000000 0.010843 -0.999941
vn -1.000000 0.000000 0.000000
vn -1.000000 0.000000 0.000000
vn -1.000000 0.000000 0.000000
vn -1.000000 0.000000 0.000000
vn 0.000000 0.000000 1.000000
vn 0.000000 0.000000 1.000000
vn 0.000000 -0.010843 0.999941
vn 0.000000 -0.010843 0.999941
vn 1.000000 0.000000 0.000000
vn 1.000000 0.000000 0.000000
vn 1.000000 0.000000 0.000000
vn 1.000000 0.000000 0.000000
vn 0.000000 0.482074 -0.876130
vn 0.000000 0.482074 -0.876130
vn 0.000000 0.500799 -0.865564
vn 0.000000 0.500799 -0.865564
vn -1.000000 0.000000 0.000000
vn -1.000000 0.000000 0.000000
vn 0.000000 -0.482074 0.876130
vn 0.000000 -0.482074 0.876130
vn 0.000000 -0.500799 0.865564
vn 0.000000 -0.500799 0.865564
vn 1.000000 0.000000 0.000000
vn 1.000000 0.000000 0.000000
vn 0.000000 -0.500799 -0.865564
vn 0.000000 -0.500799 -0.865564
vn 0.000000 -0.482074 -0.876130
vn 0.000000 -0.482074 -0.876130
vn -1.000000 -0.000000 0.000000
vn -1.000000 -0.000000 0.000000
vn 0.000000 0.500799 0.865564
vn 0.000000 0.500799 0.865564
vn 0.000000 0.482074 0.876130
vn 0.000000 0.482074 0.876130
vn 1.000000 0.000000 0.000000
vn 1.000000 0.000000 0.000000
vn 1.000000 0.000000 0.000000
vn 1.000000 0.000000 0.000000
vn 1.000000 0.000000 0.000000
vn 1.000000 0.000000 0.000000
vn 1.000000 0.000000 0.000000
vn 1.000000 0.000000 0.000000
vn 0.000000 0.383326 -0.923613
vn 0.000000 0.383326 -0.923613
vn 0.000000 0.259270 -0.965805
vn 0.000000 0.259270 -0.965805
vn 0.000000 0.130755 -0.991415
vn 0.000000 0.130755 -0.991415
vn -1.000000 0.000000 0.000000
vn -1.000000 0.000000 0.000000
vn -1.000000 0.000000 0.000000
vn -1.000000 0.000000 0.000000
vn -1.000000 0.000000 0.000000
vn -1.000000 0.000000 0.000000
vn 0.000000 -0.383326 0.923613
vn 0.000000 -0.383326 0.923613
vn 0.000000 -0.259270 0.965805
vn 0.000000 -0.259270 0.965805
vn 0.000000 -0.130755 0.991415
vn 0.000000 -0.130755 0.991415
vn 0.000000 -0.383326 -0.923613
vn 0.000000 -0.383326 -0.923613
vn 0.000000 -0.259269 -0.965805
vn 0.000000 -0.259269 -0.965805
vn 0.000000 -0.018610 -0.999827
vn 0.000000 -0.130755 -0.991415
vn 0.000000 -0.130755 -0.991415
vn 0.000000 -0.018610 -0.999827
vn -1.000000 0.000000 0.000000
vn -1.000000 0.000000 0.000000
vn -1.000000 0.000000 0.000000
vn -1.000000 0.000000 0.000000
vn -1.000000 0.000000 0.000000
vn -1.000000 0.000000 0.000000
vn -1.000000 0.000000 0.000000
vn -1.000000 0.000000 0.000000
vn 0.000000 0.383326 0.923613
vn 0.000000 0.383326 0.923613
vn 0.000000 0.259269 0.965805
vn 0.000000 0.259269 0.965805
vn 0.000000 0.018610 0.999827
vn 0.000000 0.130755 0.991415
vn 0.000000 0.130755 0.991415
vn 0.000000 0.018610 0.999827
vn 1.000000 0.000000 0.000000
vn 1.000000 0.000000 0.000000
vn 1.000000 0.000000 0.000000
vn 1.000000 0.000000 0.000000
vn 1.000000 0.000000 0.000000
vn 1.000000 0.000000 0.000000
vn 1.000000 0.000000 0.000000
vn 1.000000 0.000000 0.000000
vn 0.000000 0.000000 -1.000000
vn 0.000000 0.000000 -1.000000
vn 0.000000 1.000000 0.000000
vn 0.000000 1.000000 0.000000
vn 0.000000 1.000000 0.000000
vn 0.000000 1.000000 0.000000
vn -1.000000 0.000000 0.000000
vn -1.000000 0.000000 0.000000
vn -1.000000 0.000000 0.000000
vn -1.000000 0.000000 0.000000
vn 0.000000 0.000000 -1.000000
vn 0.000000 0.000000 -1.000000
vn 0.000000 0.000000 -1.000000
vn 0.000000 0.000000 -1.000000
vn 1.000000 0.000000 0.000000
vn 1.000000 0.000000 0.000000
vn 1.000000 0.000000 0.000000
vn 1.000000 0.000000 0.000000
vn 1.000000 0.000000 0.000258
vn 1.000000 0.000000 0.000258
vn 1.000000 0.000000 0.000258
vn 1.000000 0.000000 0.000258
vn 0.000000 -1.000000 0.000000
vn 0.000000 -1.000000 0.000000
vn 0.000000 -1.000000 0.000000
vn 0.000000 -1.000000 0.000000
vn -1.000000 0.000000 -0.000258
vn -1.000000 0.000000 -0.000258
vn -1.000000 0.000000 -0.000258
vn -1.000000 0.000000 -0.000258
vn 0.000000 1.000000 -0.000000
vn 0.000000 1.000000 -0.000000
vn 0.000000 1.000000 -0.000000
vn 0.000000 1.000000 -0.000000
vn 0.000000 -1.000000 0.000000
vn 0.000000 -1.000000 0.000000
vn 0.000000 -1.000000 0.000000
vn 0.000000 -1.000000 0.000000
s off
g polySurface5 modulo_recto2
usemtl initialShadingGroup
f 3/1/1 4/2/2 6/3/3 5/4/4
f 7/5/5 8/6/6 2/7/7 1/8/8
s 1
f 9/9/9 10/10/10 16/11/11 15/12/12
s off
f 10/13/13 9/14/14 12/15/15 11/16/16
s 2
f 11/16/17 12/15/18 14/17/19 13/18/20
s off
f 13/18/21 14/17/22 15/19/23 16/20/24
s 2
f 57/21/25 58/22/26 4/2/27 3/1/28
s 1
f 5/4/29 6/3/30 59/23/31 60/24/32
s 5
f 58/22/33 59/25/34 6/26/35 4/2/36
s 6
f 7/27/37 1/28/38 22/29/39 17/30/40
s 2
f 1/28/41 2/31/42 27/32/43 22/29/44
s 8
f 2/31/45 8/33/46 32/34/47 27/32/48
s 1
f 17/35/49 32/36/50 8/6/51 7/5/52
s 6
f 21/37/53 26/38/54 12/15/55 9/14/56
s 2
f 26/38/57 31/39/58 14/17/19 12/15/18
s 8
f 31/39/59 36/40/60 15/19/61 14/17/62
s 1
f 9/9/9 15/12/12 36/41/63 21/42/64
s 12
f 10/43/65 11/16/66 46/44/67 41/45/68
s 2
f 11/16/17 13/18/20 51/46/69 46/44/70
s 5
f 13/18/71 16/20/72 56/47/73 51/46/74
s 1
f 41/48/75 56/49/76 16/50/11 10/10/10
f 20/51/77 21/42/64 36/41/63 35/52/78
f 19/53/79 20/51/77 35/52/78 34/54/80
f 17/35/49 18/55/81 33/56/82 32/36/50
f 18/55/81 19/53/79 34/54/80 33/56/82
s 6
f 21/37/53 20/57/83 25/58/84 26/38/54
f 20/57/83 19/59/85 24/60/86 25/58/84
f 19/59/85 18/61/87 23/62/88 24/60/86
f 18/61/87 17/30/40 22/29/39 23/62/88
s 2
f 26/38/57 25/58/89 30/63/90 31/39/58
f 25/58/89 24/60/91 29/64/92 30/63/90
f 24/60/91 23/62/93 28/65/94 29/64/92
f 23/62/93 22/29/44 27/32/43 28/65/94
s 8
f 31/39/59 30/63/95 35/66/96 36/40/60
f 30/63/95 29/64/97 34/67/98 35/66/96
f 29/64/97 28/65/99 33/68/100 34/67/98
f 28/65/99 27/32/48 32/34/47 33/68/100
s 12
f 40/69/101 41/45/68 46/44/67 45/70/102
f 39/71/103 40/69/101 45/70/102 44/72/104
f 37/73/105 38/74/106 43/75/107 42/76/108
f 38/74/106 39/71/103 44/72/104 43/75/107
s 2
f 45/70/109 46/44/70 51/46/69 50/77/110
f 44/72/111 45/70/109 50/77/110 49/78/112
f 42/76/113 43/75/114 48/79/115 47/80/116
f 43/75/114 44/72/111 49/78/112 48/79/115
s 5
f 50/77/117 51/46/74 56/47/73 55/81/118
f 49/78/119 50/77/117 55/81/118 54/82/120
f 47/80/121 48/79/122 53/83/123 52/84/124
f 48/79/122 49/78/119 54/82/120 53/83/123
s 1
f 41/48/75 40/85/125 55/86/126 56/49/76
f 40/85/125 39/87/127 54/88/128 55/86/126
f 39/87/127 38/89/129 53/90/130 54/88/128
f 38/89/129 37/91/131 52/92/132 53/90/130
s 2
f 42/76/113 47/80/116 58/22/26 57/21/25
s 5
f 47/80/121 52/84/124 59/25/34 58/22/33
s 1
f 60/24/32 59/23/31 52/92/132 37/91/131
s 12
f 37/73/105 42/76/108 57/21/133 60/93/134
s off
f 61/94/135 62/95/136 64/96/137 63/97/138
f 63/97/139 64/96/140 66/101/141 65/100/142
f 67/98/143 66/101/144 64/102/145 62/95/146
f 68/99/147 67/98/148 62/95/149 61/94/150
f 5/4/151 60/24/152 68/99/153 61/94/154
f 60/93/155 57/21/156 65/100/157 68/99/158
f 57/21/159 3/1/160 63/97/161 65/100/162
f 3/1/163 5/4/164 61/94/165 63/97/166
f 66/101/167 67/98/168 68/99/169 65/100/170
g default
v -640.410156 -295.189178 -1210.155708
v -71.461639 -295.189178 -1210.155708
v -640.410034 -195.189178 -1210.155708
v -71.461456 -195.189178 -1210.155708
v -640.410034 -195.189178 -1779.017677
v -71.461456 -195.189178 -1779.017677
v -640.410156 -295.189178 -1779.017677
v -71.461639 -295.189178 -1779.017677
vt 0.375000 0.000000
vt 0.625000 0.000000
vt 0.625000 0.250000
vt 0.375000 0.250000
vt 0.625000 0.500000
vt 0.375000 0.500000
vt 0.625000 0.750000
vt 0.375000 0.750000
vt 0.625000 1.000000
vt 0.375000 1.000000
vt 0.875000 0.000000
vt 0.875000 0.250000
vt 0.125000 0.000000
vt 0.125000 0.250000
vn 0.000000 0.000000 1.000000
vn 0.000000 0.000000 1.000000
vn 0.000000 0.000000 1.000000
vn 0.000000 0.000000 1.000000
vn 0.000000 1.000000 0.000000
vn 0.000000 1.000000 0.000000
vn 0.000000 1.000000 0.000000
vn 0.000000 1.000000 0.000000
vn 0.000000 0.000000 -1.000000
vn 0.000000 0.000000 -1.000000
vn 0.000000 0.000000 -1.000000
vn 0.000000 0.000000 -1.000000
vn 0.000000 -1.000000 0.000000
vn 0.000000 -1.000000 0.000000
vn 0.000000 -1.000000 0.000000
vn 0.000000 -1.000000 0.000000
vn 1.000000 -0.000002 0.000000
vn 1.000000 -0.000002 0.000000
vn 1.000000 -0.000002 0.000000
vn 1.000000 -0.000002 0.000000
vn -1.000000 0.000001 0.000000
vn -1.000000 0.000001 0.000000
vn -1.000000 0.000001 0.000000
vn -1.000000 0.000001 0.000000
s off
g modulo_recto2 polySurface4
usemtl initialShadingGroup
f 69/103/171 70/104/172 72/105/173 71/106/174
f 71/106/175 72/105/176 74/107/177 73/108/178
f 73/108/179 74/107/180 76/109/181 75/110/182
f 75/110/183 76/109/184 70/111/185 69/112/186
f 70/104/187 76/113/188 74/114/189 72/105/190
f 75/115/191 69/103/192 71/106/193 73/116/194
