# This file uses meters as units for non-parametric coordinates.

mtllib modulo_recto.mtl
g default
v -640.410156 -295.189178 855.484375
v -71.461639 -295.189178 855.484375
v -640.410034 -195.189178 855.484375
v -71.461456 -195.189178 855.484375
v -640.410034 -195.189178 286.622406
v -71.461456 -195.189178 286.622406
v -640.410156 -295.189178 286.622406
v -71.461639 -295.189178 286.622406
v -639.629517 -197.573334 852.993530
v -639.629517 -197.573334 952.993530
v -639.629517 295.189178 852.993530
v -639.629517 295.189178 952.993530
v -70.767609 295.189178 852.993530
v -70.767609 295.189178 952.993530
v -70.767609 -197.573334 852.993530
v -70.767609 -197.573334 952.993530
v -70.767609 -12.781235 888.635132
v -70.767609 110.397064 888.635132
v -639.629517 110.397064 888.635132
v -639.629517 -12.781235 888.635132
v -639.629517 110.397064 988.635132
v -639.629517 -12.781235 988.635132
v -70.767609 -12.781235 988.635132
v -70.767609 110.397064 988.635132
v -70.767609 -109.963776 852.993530
v -70.767609 -92.632782 854.131470
v -70.767609 -75.599365 857.525757
v -70.767609 -59.156006 863.118286
v -70.767609 -43.585052 870.812622
v -639.629517 -109.963776 852.993530
v -639.629517 -92.632782 854.131470
v -639.629517 -75.599365 857.525757
v -639.629517 -59.156006 863.118286
v -639.629517 -43.585052 870.812622
v -639.629517 -109.963776 952.993530
v -639.629517 -92.632782 954.131470
v -639.629517 -75.599365 957.525757
v -639.629517 -59.156006 963.118286
v -639.629517 -43.585052 970.812622
v -70.767609 -109.963776 952.993530
v -70.767609 -92.632782 954.131470
v -70.767609 -75.599365 957.525757
v -70.767609 -59.156006 963.118286
v -70.767609 -43.585052 970.812622
v -70.767609 207.579651 852.993530
v -70.767609 190.248657 854.131470
v -70.767609 173.215210 857.525757
v -70.767609 156.771851 863.118286
v -70.767609 141.200897 870.812622
v -639.629517 207.579651 852.993530
v -639.629517 190.248657 854.131470
v -639.629517 173.215210 857.525757
v -639.629517 156.771851 863.118286
v -639.629517 141.200897 870.812622
v -639.629517 207.579651 952.993530
v -639.629517 190.248657 954.131470
v -639.629517 173.215210 957.525757
v -639.629517 156.771851 963.118286
v -639.629517 141.200897 970.812622
v -70.767609 207.579651 952.993530
v -70.767609 190.248657 954.131470
v -70.767609 173.215210 957.525757
v -70.767609 156.771851 963.118286
v -70.767609 141.200897 970.812622
v -639.629517 251.384430 852.993530
v -639.629517 251.384430 952.993530
v -70.767609 251.384430 952.993530
v -70.767609 251.384430 852.993530
v -70.622681 -197.573334 290.866211
v -70.622681 -197.573334 190.866196
v -70.622681 295.189178 290.866211
v -70.622681 295.189178 190.866196
v -639.484619 295.189178 290.866211
v -639.484619 295.189178 190.866196
v -639.484619 -197.573334 290.866211
v -639.484619 -197.573334 190.866196
v -639.484619 -12.781235 255.224594
v -639.484619 110.397064 255.224594
v -70.622681 110.397064 255.224594
v -70.622681 -12.781235 255.224594
v -70.622681 110.397064 155.224594
v -70.622681 -12.781235 155.224594
v -639.484619 -12.781235 155.224594
v -639.484619 110.397064 155.224594
v -639.484619 -109.963776 290.866211
v -639.484619 -92.632782 289.728271
v -639.484619 -75.599365 286.333984
v -639.484619 -59.156006 280.741455
v -639.484619 -43.585052 273.047119
v -70.622681 -109.963776 290.866211
v -70.622681 -92.632782 289.728271
v -70.622681 -75.599365 286.333984
v -70.622681 -59.156006 280.741455
v -70.622681 -43.585052 273.047119
v -70.622681 -109.963776 190.866196
v -70.622681 -92.632782 189.728256
v -70.622681 -75.599365 186.333969
v -70.622681 -59.156006 180.741440
v -70.622681 -43.585052 173.047104
v -639.484619 -109.963776 190.866196
v -639.484619 -92.632782 189.728256
v -639.484619 -75.599365 186.333969
v -639.484619 -59.156006 180.741440
v -639.484619 -43.585052 173.047104
v -639.484619 207.579651 290.866211
v -639.484619 190.248657 289.728271
v -639.484619 173.215210 286.333984
v -639.484619 156.771851 280.741455
v -639.484619 141.200897 273.047119
v -70.622681 207.579651 290.866211
v -70.622681 190.248657 289.728271
v -70.622681 173.215210 286.333984
v -70.622681 156.771851 280.741455
v -70.622681 141.200897 273.047119
v -70.622681 207.579651 190.866196
v -70.622681 190.248657 189.728256
v -70.622681 173.215210 186.333969
v -70.622681 156.771851 180.741440
v -70.622681 141.200897 173.047104
v -639.484619 207.579651 190.866196
v -639.484619 190.248657 189.728256
v -639.484619 173.215210 186.333969
v -639.484619 156.771851 180.741440
v -639.484619 141.200897 173.047104
v -639.484619 251.384430 290.866211
v -639.484619 251.384430 190.866196
v -70.622681 251.384430 190.866196
v -70.622681 251.384430 290.866211
vt 0.375000 0.000000
vt 0.625000 0.000000
vt 0.375000 0.250000
vt 0.625000 0.250000
vt 0.375000 0.500000
vt 0.625000 0.500000
vt 0.375000 0.750000
vt 0.625000 0.750000
vt 0.375000 1.000000
vt 0.625000 1.000000
vt 0.875000 0.000000
vt 0.875000 0.250000
vt 0.125000 0.000000
vt 0.125000 0.250000
vt 0.375000 0.250000
vt 0.625000 0.250000
vt 0.625000 0.500000
vt 0.375000 0.500000
vt 0.375000 0.750000
vt 0.625000 0.750000
vt 0.625000 1.000000
vt 0.375000 1.000000
vt 0.375000 0.656247
vt 0.375000 0.593753
vt 0.506214 0.625000
vt 0.625000 0.656247
vt 0.125000 0.125000
vt 0.125000 0.093753
vt 0.375000 0.093753
vt 0.375000 0.156247
vt 0.625000 0.093753
vt 0.625000 0.156247
vt 0.875000 0.093753
vt 0.875000 0.156247
vt 0.375000 0.227776
vt 0.625000 0.227776
vt 0.625000 0.522224
vt 0.375000 0.522224
vt 0.875000 0.227776
vt 0.875000 0.250000
vt 0.125000 0.227776
vt 0.125000 0.000000
vt 0.375000 0.000000
vt 0.375000 0.044448
vt 0.125000 0.044448
vt 0.625000 0.000000
vt 0.625000 0.044448
vt 0.875000 0.000000
vt 0.875000 0.044448
vt 0.375000 0.705552
vt 0.625000 0.705552
vt 0.125000 0.078125
vt 0.375000 0.078125
vt 0.625000 0.078125
vt 0.875000 0.078125
vt 0.625000 0.671875
vt 0.375000 0.671875
vt 0.125000 0.156247
vt 0.375000 0.171875
vt 0.125000 0.171875
vt 0.625000 0.171875
vt 0.875000 0.171875
vt 0.375000 0.578125
vt 0.625000 0.578125
vt 0.625000 0.593753
vt 0.375000 0.679688
vt 0.625000 0.679688
vt 0.375000 0.687500
vt 0.625000 0.687500
vt 0.375000 0.696526
vt 0.625000 0.696526
vt 0.125000 0.070313
vt 0.372963 0.070169
vt 0.125000 0.062500
vt 0.375000 0.062500
vt 0.125000 0.053474
vt 0.372818 0.053412
vt 0.623636 0.070687
vt 0.625000 0.062500
vt 0.624111 0.053619
vt 0.875000 0.070313
vt 0.875000 0.062500
vt 0.875000 0.053474
vt 0.125000 0.179687
vt 0.372911 0.179871
vt 0.125000 0.187500
vt 0.375000 0.187500
vt 0.125000 0.205552
vt 0.125000 0.196526
vt 0.372787 0.196593
vt 0.375000 0.205552
vt 0.623687 0.179273
vt 0.625000 0.187500
vt 0.624142 0.196376
vt 0.625000 0.205552
vt 0.875000 0.179687
vt 0.875000 0.187500
vt 0.875000 0.196526
vt 0.875000 0.205552
vt 0.375000 0.570313
vt 0.625000 0.570313
vt 0.375000 0.562500
vt 0.625000 0.562500
vt 0.375000 0.553474
vt 0.625000 0.553474
vt 0.375000 0.544448
vt 0.625000 0.544448
vt 0.375000 0.250000
vt 0.625000 0.250000
vt 0.625000 0.500000
vt 0.375000 0.500000
vt 0.375000 0.750000
vt 0.625000 0.750000
vt 0.625000 1.000000
vt 0.375000 1.000000
vt 0.375000 0.656247
vt 0.375000 0.593753
vt 0.506214 0.625000
vt 0.625000 0.656247
vt 0.125000 0.125000
vt 0.125000 0.093753
vt 0.375000 0.093753
vt 0.375000 0.156247
vt 0.625000 0.093753
vt 0.625000 0.156247
vt 0.875000 0.093753
vt 0.875000 0.156247
vt 0.375000 0.205552
vt 0.625000 0.205552
vt 0.625000 0.227776
vt 0.375000 0.227776
vt 0.375000 0.522224
vt 0.625000 0.522224
vt 0.625000 0.544448
vt 0.375000 0.544448
vt 0.875000 0.205552
vt 0.875000 0.227776
vt 0.125000 0.205552
vt 0.125000 0.227776
vt 0.125000 0.000000
vt 0.375000 0.000000
vt 0.375000 0.044448
vt 0.125000 0.044448
vt 0.625000 0.000000
vt 0.625000 0.044448
vt 0.875000 0.000000
vt 0.875000 0.044448
vt 0.375000 0.705552
vt 0.625000 0.705552
vt 0.125000 0.078125
vt 0.375000 0.078125
vt 0.625000 0.078125
vt 0.875000 0.078125
vt 0.625000 0.671875
vt 0.375000 0.671875
vt 0.125000 0.156247
vt 0.375000 0.171875
vt 0.125000 0.171875
vt 0.625000 0.171875
vt 0.875000 0.171875
vt 0.375000 0.578125
vt 0.625000 0.578125
vt 0.625000 0.593753
vt 0.375000 0.679688
vt 0.625000 0.679688
vt 0.375000 0.687500
vt 0.625000 0.687500
vt 0.375000 0.696526
vt 0.625000 0.696526
vt 0.125000 0.070313
vt 0.372963 0.070169
vt 0.125000 0.062500
vt 0.375000 0.062500
vt 0.125000 0.053474
vt 0.372818 0.053412
vt 0.623636 0.070687
vt 0.625000 0.062500
vt 0.624111 0.053619
vt 0.875000 0.070313
vt 0.875000 0.062500
vt 0.875000 0.053474
vt 0.125000 0.179687
vt 0.372911 0.179871
vt 0.125000 0.187500
vt 0.375000 0.187500
vt 0.125000 0.196526
vt 0.372787 0.196593
vt 0.623687 0.179273
vt 0.625000 0.187500
vt 0.624142 0.196376
vt 0.875000 0.179687
vt 0.875000 0.187500
vt 0.875000 0.196526
vt 0.375000 0.570313
vt 0.625000 0.570313
vt 0.375000 0.562500
vt 0.625000 0.562500
vt 0.375000 0.553474
vt 0.625000 0.553474
vt 0.875000 0.250000
vn 0.000000 0.000000 1.000000
vn 0.000000 0.000000 1.000000
vn 0.000000 0.000000 1.000000
vn 0.000000 0.000000 1.000000
vn 0.000000 1.000000 0.000000
vn 0.000000 1.000000 0.000000
vn 0.000000 1.000000 0.000000
vn 0.000000 1.000000 0.000000
vn 0.000000 0.000000 -1.000000
vn 0.000000 0.000000 -1.000000
vn 0.000000 0.000000 -1.000000
vn 0.000000 0.000000 -1.000000
vn 0.000000 -1.000000 0.000000
vn 0.000000 -1.000000 0.000000
vn 0.000000 -1.000000 0.000000
vn 0.000000 -1.000000 0.000000
vn 1.000000 -0.000002 0.000000
vn 1.000000 -0.000002 0.000000
vn 1.000000 -0.000002 0.000000
vn 1.000000 -0.000002 0.000000
vn -1.000000 0.000001 0.000000
vn -1.000000 0.000001 0.000000
vn -1.000000 0.000001 0.000000
vn -1.000000 0.000001 0.000000
vn 0.000000 1.000000 0.000000
vn 0.000000 1.000000 0.000000
vn 0.000000 1.000000 0.000000
vn 0.000000 1.000000 0.000000
vn 0.000000 -1.000000 0.000000
vn 0.000000 -1.000000 0.000000
vn 0.000000 -1.000000 0.000000
vn 0.000000 -1.000000 0.000000
vn 1.000000 0.000000 0.000000
vn 1.000000 0.000000 0.000000
vn 1.000000 0.000000 0.000000
vn 1.000000 0.000000 0.000000
vn 0.000000 0.000000 -1.000000
vn 0.000000 0.000000 -1.000000
vn 0.000000 0.000000 -1.000000
vn 0.000000 0.000000 -1.000000
vn -1.000000 -0.000000 0.000000
vn -1.000000 0.000000 0.000000
vn -1.000000 0.000000 0.000000
vn -1.000000 -0.000000 0.000000
vn 0.000000 0.000000 1.000000
vn 0.000000 0.000000 1.000000
vn 0.000000 0.000000 1.000000
vn 0.000000 0.000000 1.000000
vn -1.000000 0.000000 0.000000
vn -1.000000 0.000000 0.000000
vn -1.000000 0.000000 0.000000
vn -1.000000 0.000000 0.000000
vn 1.000000 0.000000 0.000000
vn 1.000000 0.000000 0.000000
vn 1.000000 0.000000 0.000000
vn 1.000000 0.000000 0.000000
vn 0.000000 0.000000 1.000000
vn 0.000000 0.000000 1.000000
vn 0.000000 0.000000 1.000000
vn 0.000000 0.000000 1.000000
vn 0.000000 0.000000 -1.000000
vn 0.000000 0.000000 -1.000000
vn 0.000000 0.010843 -0.999941
vn 0.000000 0.010843 -0.999941
vn -1.000000 0.000000 0.000000
vn -1.000000 0.000000 0.000000
vn -1.000000 0.000000 0.000000
vn -1.000000 0.000000 0.000000
vn 0.000000 0.000000 1.000000
vn 0.000000 0.000000 1.000000
vn 0.000000 -0.010843 0.999941
vn 0.000000 -0.010843 0.999941
vn 1.000000 0.000000 0.000000
vn 1.000000 0.000000 0.000000
vn 1.000000 0.000000 0.000000
vn 1.000000 0.000000 0.000000
vn 0.000000 0.482074 -0.876130
vn 0.000000 0.482074 -0.876130
vn 0.000000 0.500799 -0.865564
vn 0.000000 0.500799 -0.865564
vn -1.000000 0.000000 0.000000
vn -1.000000 0.000000 0.000000
vn 0.000000 -0.482074 0.876130
vn 0.000000 -0.482074 0.876130
vn 0.000000 -0.500799 0.865564
vn 0.000000 -0.500799 0.865564
vn 1.000000 0.000000 0.000000
vn 1.000000 0.000000 0.000000
vn 0.000000 -0.500799 -0.865564
vn 0.000000 -0.500799 -0.865564
vn 0.000000 -0.482074 -0.876130
vn 0.000000 -0.482074 -0.876130
vn -1.000000 -0.000000 0.000000
vn -1.000000 -0.000000 0.000000
vn 0.000000 0.500799 0.865564
vn 0.000000 0.500799 0.865564
vn 0.000000 0.482074 0.876130
vn 0.000000 0.482074 0.876130
vn 1.000000 0.000000 0.000000
vn 1.000000 0.000000 0.000000
vn 1.000000 0.000000 0.000000
vn 1.000000 0.000000 0.000000
vn 1.000000 0.000000 0.000000
vn 1.000000 0.000000 0.000000
vn 1.000000 0.000000 0.000000
vn 1.000000 0.000000 0.000000
vn 0.000000 0.383326 -0.923613
vn 0.000000 0.383326 -0.923613
vn 0.000000 0.259270 -0.965805
vn 0.000000 0.259270 -0.965805
vn 0.000000 0.130755 -0.991415
vn 0.000000 0.130755 -0.991415
vn -1.000000 0.000000 0.000000
vn -1.000000 0.000000 0.000000
vn -1.000000 0.000000 0.000000
vn -1.000000 0.000000 0.000000
vn -1.000000 0.000000 0.000000
vn -1.000000 0.000000 0.000000
vn 0.000000 -0.383326 0.923613
vn 0.000000 -0.383326 0.923613
vn 0.000000 -0.259270 0.965805
vn 0.000000 -0.259270 0.965805
vn 0.000000 -0.130755 0.991415
vn 0.000000 -0.130755 0.991415
vn 0.000000 -0.383326 -0.923613
vn 0.000000 -0.383326 -0.923613
vn 0.000000 -0.259269 -0.965805
vn 0.000000 -0.259269 -0.965805
vn 0.000000 -0.018610 -0.999827
vn 0.000000 -0.130755 -0.991415
vn 0.000000 -0.130755 -0.991415
vn 0.000000 -0.018610 -0.999827
vn -1.000000 0.000000 0.000000
vn -1.000000 0.000000 0.000000
vn -1.000000 0.000000 0.000000
vn -1.000000 0.000000 0.000000
vn -1.000000 0.000000 0.000000
vn -1.000000 0.000000 0.000000
vn -1.000000 0.000000 0.000000
vn -1.000000 0.000000 0.000000
vn 0.000000 0.383326 0.923613
vn 0.000000 0.383326 0.923613
vn 0.000000 0.259269 0.965805
vn 0.000000 0.259269 0.965805
vn 0.000000 0.018610 0.999827
vn 0.000000 0.130755 0.991415
vn 0.000000 0.130755 0.991415
vn 0.000000 0.018610 0.999827
vn 1.000000 0.000000 0.000000
vn 1.000000 0.000000 0.000000
vn 1.000000 0.000000 0.000000
vn 1.000000 0.000000 0.000000
vn 1.000000 0.000000 0.000000
vn 1.000000 0.000000 0.000000
vn 1.000000 0.000000 0.000000
vn 1.000000 0.000000 0.000000
vn 0.000000 0.000000 -1.000000
vn 0.000000 0.000000 -1.000000
vn 0.000000 1.000000 0.000000
vn 0.000000 1.000000 0.000000
vn 0.000000 1.000000 0.000000
vn 0.000000 1.000000 0.000000
vn 0.000000 -1.000000 0.000000
vn 0.000000 -1.000000 0.000000
vn 0.000000 -1.000000 0.000000
vn 0.000000 -1.000000 0.000000
vn -1.000000 0.000000 0.000000
vn -1.000000 -0.000000 0.000000
vn -1.000000 -0.000000 0.000000
vn -1.000000 0.000000 0.000000
vn 0.000000 0.000000 1.000000
vn 0.000000 0.000000 1.000000
vn 0.000000 0.000000 1.000000
vn 0.000000 0.000000 1.000000
vn 1.000000 -0.000000 0.000000
vn 1.000000 0.000000 0.000000
vn 1.000000 0.000000 0.000000
vn 1.000000 -0.000000 0.000000
vn 0.000000 0.000000 -1.000000
vn 0.000000 0.000000 -1.000000
vn 0.000000 0.000000 -1.000000
vn 0.000000 0.000000 -1.000000
vn 1.000000 0.000000 0.000000
vn 1.000000 0.000000 0.000000
vn 1.000000 0.000000 0.000000
vn 1.000000 0.000000 0.000000
vn -1.000000 0.000000 0.000000
vn -1.000000 0.000000 0.000000
vn -1.000000 0.000000 0.000000
vn -1.000000 0.000000 0.000000
vn 0.000000 0.018610 -0.999827
vn 0.000000 0.018610 -0.999827
vn 0.000000 0.000000 -1.000000
vn 0.000000 0.000000 -1.000000
vn 0.000000 -0.018610 0.999827
vn 0.000000 -0.018610 0.999827
vn 0.000000 0.000000 1.000000
vn 0.000000 0.000000 1.000000
vn 0.000000 0.000000 1.000000
vn 0.000000 0.000000 1.000000
vn 0.000000 0.010843 0.999941
vn 0.000000 0.010843 0.999941
vn 1.000000 0.000000 0.000000
vn 1.000000 0.000000 0.000000
vn 1.000000 0.000000 0.000000
vn 1.000000 0.000000 0.000000
vn 0.000000 0.000000 -1.000000
vn 0.000000 0.000000 -1.000000
vn 0.000000 -0.010843 -0.999941
vn 0.000000 -0.010843 -0.999941
vn -1.000000 0.000000 0.000000
vn -1.000000 0.000000 0.000000
vn -1.000000 0.000000 0.000000
vn -1.000000 0.000000 0.000000
vn 0.000000 0.482074 0.876130
vn 0.000000 0.482074 0.876130
vn 0.000000 0.500799 0.865564
vn 0.000000 0.500799 0.865564
vn 1.000000 0.000000 0.000000
vn 1.000000 0.000000 0.000000
vn 0.000000 -0.482074 -0.876130
vn 0.000000 -0.482074 -0.876130
vn 0.000000 -0.500799 -0.865564
vn 0.000000 -0.500799 -0.865564
vn -1.000000 0.000000 0.000000
vn -1.000000 0.000000 0.000000
vn 0.000000 -0.500799 0.865564
vn 0.000000 -0.500799 0.865564
vn 0.000000 -0.482074 0.876130
vn 0.000000 -0.482074 0.876130
vn 1.000000 -0.000000 0.000000
vn 1.000000 -0.000000 0.000000
vn 0.000000 0.500799 -0.865564
vn 0.000000 0.500799 -0.865564
vn 0.000000 0.482074 -0.876130
vn 0.000000 0.482074 -0.876130
vn -1.000000 -0.000001 0.000000
vn -1.000000 -0.000001 0.000000
vn -1.000000 -0.000002 0.000000
vn -1.000000 -0.000001 0.000000
vn -1.000000 -0.000002 0.000000
vn -1.000000 -0.000002 0.000000
vn -1.000000 -0.000001 0.000000
vn -1.000000 -0.000001 0.000000
vn 0.000000 0.383326 0.923613
vn 0.000000 0.383326 0.923613
vn 0.000000 0.259270 0.965805
vn 0.000000 0.259270 0.965805
vn 0.000000 0.130755 0.991415
vn 0.000000 0.130755 0.991415
vn 1.000000 0.000000 0.000000
vn 1.000000 0.000000 0.000000
vn 1.000000 0.000000 0.000000
vn 1.000000 0.000000 0.000000
vn 1.000000 0.000000 0.000000
vn 1.000000 0.000000 0.000000
vn 0.000000 -0.383326 -0.923613
vn 0.000000 -0.383326 -0.923613
vn 0.000000 -0.259270 -0.965805
vn 0.000000 -0.259270 -0.965805
vn 0.000000 -0.130755 -0.991415
vn 0.000000 -0.130755 -0.991415
vn 0.000000 -0.383326 0.923613
vn 0.000000 -0.383326 0.923613
vn 0.000000 -0.259269 0.965805
vn 0.000000 -0.259269 0.965805
vn 0.000000 -0.130755 0.991415
vn 0.000000 -0.130755 0.991415
vn 1.000000 0.000000 0.000000
vn 1.000000 0.000000 0.000000
vn 1.000000 0.000000 0.000000
vn 1.000000 0.000000 0.000000
vn 1.000000 0.000000 0.000000
vn 1.000000 0.000000 0.000000
vn 0.000000 0.383326 -0.923613
vn 0.000000 0.383326 -0.923613
vn 0.000000 0.259269 -0.965805
vn 0.000000 0.259269 -0.965805
vn 0.000000 0.130755 -0.991415
vn 0.000000 0.130755 -0.991415
vn -1.000000 0.000000 0.000000
vn -1.000000 0.000000 0.000000
vn -1.000000 0.000000 0.000000
vn -1.000000 0.000000 0.000000
vn -1.000000 0.000000 0.000000
vn -1.000000 0.000000 0.000000
vn -1.000000 0.000000 0.000000
vn -1.000000 0.000000 0.000000
vn 0.000000 0.000000 -1.000000
vn 0.000000 0.000000 -1.000000
vn 1.000000 0.000000 0.000000
vn 1.000000 0.000000 0.000000
vn 1.000000 0.000000 0.000258
vn 1.000000 0.000000 0.000258
vn 1.000000 0.000000 0.000258
vn 1.000000 0.000000 0.000258
vn 0.000000 -1.000000 0.000000
vn 0.000000 -1.000000 0.000000
vn 0.000000 -1.000000 0.000000
vn 0.000000 -1.000000 0.000000
vn -1.000000 0.000000 -0.000258
vn -1.000000 0.000000 -0.000258
vn -1.000000 0.000000 -0.000258
vn -1.000000 0.000000 -0.000258
vn 0.000000 1.000000 -0.000000
vn 0.000000 1.000000 -0.000000
vn 0.000000 1.000000 -0.000000
vn 0.000000 1.000000 -0.000000
s off
g modulo_recto2
usemtl initialShadingGroup
f 1/1/1 2/2/2 4/4/3 3/3/4
f 3/3/5 4/4/6 6/6/7 5/5/8
f 5/5/9 6/6/10 8/8/11 7/7/12
f 7/7/13 8/8/14 2/10/15 1/9/16
f 2/2/17 8/11/18 6/12/19 4/4/20
f 7/13/21 1/1/22 3/3/23 5/14/24
f 11/15/25 12/16/26 14/17/27 13/18/28
f 15/19/29 16/20/30 10/21/31 9/22/32
s 1
f 17/23/33 18/24/34 24/25/35 23/26/36
s off
f 18/27/37 17/28/38 20/29/39 19/30/40
s 2
f 19/30/41 20/29/42 22/31/43 21/32/44
s off
f 21/32/45 22/31/46 23/33/47 24/34/48
s 2
f 65/35/49 66/36/50 12/16/51 11/15/52
s 1
f 13/18/53 14/17/54 67/37/55 68/38/56
s 5
f 66/36/57 67/39/58 14/40/59 12/16/60
s 6
f 15/42/61 9/43/62 30/44/63 25/45/64
s 2
f 9/43/65 10/46/66 35/47/67 30/44/68
s 8
f 10/46/69 16/48/70 40/49/71 35/47/72
s 1
f 25/50/73 40/51/74 16/20/75 15/19/76
s 6
f 29/52/77 34/53/78 20/29/79 17/28/80
s 2
f 34/53/81 39/54/82 22/31/43 20/29/42
s 8
f 39/54/83 44/55/84 23/33/85 22/31/86
s 1
f 17/23/33 23/26/36 44/56/87 29/57/88
s 12
f 18/58/89 19/30/90 54/59/91 49/60/92
s 2
f 19/30/41 21/32/44 59/61/93 54/59/94
s 5
f 21/32/95 24/34/96 64/62/97 59/61/98
s 1
f 49/63/99 64/64/100 24/65/35 18/24/34
f 28/66/101 29/57/88 44/56/87 43/67/102
f 27/68/103 28/66/101 43/67/102 42/69/104
f 25/50/73 26/70/105 41/71/106 40/51/74
f 26/70/105 27/68/103 42/69/104 41/71/106
s 6
f 29/52/77 28/72/107 33/73/108 34/53/78
f 28/72/107 27/74/109 32/75/110 33/73/108
f 27/74/109 26/76/111 31/77/112 32/75/110
f 26/76/111 25/45/64 30/44/63 31/77/112
s 2
f 34/53/81 33/73/113 38/78/114 39/54/82
f 33/73/113 32/75/115 37/79/116 38/78/114
f 32/75/115 31/77/117 36/80/118 37/79/116
f 31/77/117 30/44/68 35/47/67 36/80/118
s 8
f 39/54/83 38/78/119 43/81/120 44/55/84
f 38/78/119 37/79/121 42/82/122 43/81/120
f 37/79/121 36/80/123 41/83/124 42/82/122
f 36/80/123 35/47/72 40/49/71 41/83/124
s 12
f 48/84/125 49/60/92 54/59/91 53/85/126
f 47/86/127 48/84/125 53/85/126 52/87/128
f 45/88/129 46/89/130 51/90/131 50/91/132
f 46/89/130 47/86/127 52/87/128 51/90/131
s 2
f 53/85/133 54/59/94 59/61/93 58/92/134
f 52/87/135 53/85/133 58/92/134 57/93/136
f 50/91/137 51/90/138 56/94/139 55/95/140
f 51/90/138 52/87/135 57/93/136 56/94/139
s 5
f 58/92/141 59/61/98 64/62/97 63/96/142
f 57/93/143 58/92/141 63/96/142 62/97/144
f 55/95/145 56/94/146 61/98/147 60/99/148
f 56/94/146 57/93/143 62/97/144 61/98/147
s 1
f 49/63/99 48/100/149 63/101/150 64/64/100
f 48/100/149 47/102/151 62/103/152 63/101/150
f 47/102/151 46/104/153 61/105/154 62/103/152
f 46/104/153 45/106/155 60/107/156 61/105/154
s 2
f 50/91/137 55/95/140 66/36/50 65/35/49
s 5
f 55/95/145 60/99/148 67/39/58 66/36/57
s 1
f 68/38/56 67/37/55 60/107/156 45/106/155
s 12
f 45/88/129 50/91/132 65/35/157 68/41/158
s off
f 71/108/159 72/109/160 74/110/161 73/111/162
f 75/112/163 76/113/164 70/114/165 69/115/166
s 14
f 77/116/167 78/117/168 84/118/169 83/119/170
s off
f 78/120/171 77/121/172 80/122/173 79/123/174
s 15
f 79/123/175 80/122/176 82/124/177 81/125/178
s off
f 81/125/179 82/124/180 83/126/181 84/127/182
s 15
f 110/128/183 115/129/184 127/130/185 128/131/186
s 14
f 125/132/187 126/133/188 120/134/189 105/135/190
s 18
f 115/129/191 120/136/192 126/137/193 127/130/194
s 19
f 105/138/195 110/128/196 128/131/197 125/139/198
s 20
f 75/140/199 69/141/200 90/142/201 85/143/202
s 15
f 69/141/203 70/144/204 95/145/205 90/142/206
s 22
f 70/144/207 76/146/208 100/147/209 95/145/210
s 14
f 85/148/211 100/149/212 76/113/213 75/112/214
s 20
f 89/150/215 94/151/216 80/122/217 77/121/218
s 15
f 94/151/219 99/152/220 82/124/177 80/122/176
s 22
f 99/152/221 104/153/222 83/126/223 82/124/224
s 14
f 77/116/167 83/119/170 104/154/225 89/155/226
s 19
f 78/156/227 79/123/228 114/157/229 109/158/230
s 15
f 79/123/175 81/125/178 119/159/231 114/157/232
s 18
f 81/125/233 84/127/234 124/160/235 119/159/236
s 14
f 109/161/237 124/162/238 84/163/169 78/117/168
f 88/164/239 89/155/226 104/154/225 103/165/240
f 87/166/241 88/164/239 103/165/240 102/167/242
f 85/148/211 86/168/243 101/169/244 100/149/212
f 86/168/243 87/166/241 102/167/242 101/169/244
s 20
f 89/150/215 88/170/245 93/171/246 94/151/216
f 88/170/245 87/172/247 92/173/248 93/171/246
f 87/172/247 86/174/249 91/175/250 92/173/248
f 86/174/249 85/143/202 90/142/201 91/175/250
s 15
f 94/151/219 93/171/251 98/176/252 99/152/220
f 93/171/251 92/173/253 97/177/254 98/176/252
f 92/173/253 91/175/255 96/178/256 97/177/254
f 91/175/255 90/142/206 95/145/205 96/178/256
s 22
f 99/152/221 98/176/257 103/179/258 104/153/222
f 98/176/257 97/177/259 102/180/260 103/179/258
f 97/177/259 96/178/261 101/181/262 102/180/260
f 96/178/261 95/145/210 100/147/209 101/181/262
s 19
f 108/182/263 109/158/230 114/157/229 113/183/264
f 107/184/265 108/182/263 113/183/264 112/185/266
f 105/138/195 106/186/267 111/187/268 110/128/196
f 106/186/267 107/184/265 112/185/266 111/187/268
s 15
f 113/183/269 114/157/232 119/159/231 118/188/270
f 112/185/271 113/183/269 118/188/270 117/189/272
f 110/128/183 111/187/273 116/190/274 115/129/184
f 111/187/273 112/185/271 117/189/272 116/190/274
s 18
f 118/188/275 119/159/236 124/160/235 123/191/276
f 117/189/277 118/188/275 123/191/276 122/192/278
f 115/129/191 116/190/279 121/193/280 120/136/192
f 116/190/279 117/189/277 122/192/278 121/193/280
s 14
f 109/161/237 108/194/281 123/195/282 124/162/238
f 108/194/281 107/196/283 122/197/284 123/195/282
f 107/196/283 106/198/285 121/199/286 122/197/284
f 106/198/285 105/135/190 120/134/189 121/199/286
f 73/111/287 74/110/288 126/133/188 125/132/187
s 18
f 127/130/194 126/137/193 74/200/289 72/109/290
s 15
f 128/131/186 127/130/185 72/109/291 71/108/292
s off
f 13/18/293 68/38/294 128/131/295 71/108/296
f 68/41/297 65/35/298 125/139/299 128/131/300
f 65/35/301 11/15/302 73/111/303 125/132/304
f 11/15/305 13/18/306 71/108/307 73/111/308
