# This file uses centimeters as units for non-parametric coordinates.

mtllib Luces_1.mtl
g default
v -0.003188 0.070624 1.718977
v 4.113498 0.070624 1.718977
v -0.003188 0.571784 1.221248
v 4.113498 0.571784 1.221248
v -0.003188 0.571784 0.515843
v 4.113498 0.571784 0.515843
v -0.003188 0.070624 0.018115
v 4.113498 0.070624 0.018115
v 4.113498 0.571784 0.581680
v -0.003188 0.571784 0.581680
v -0.003188 0.070624 0.581680
v 4.113498 0.070624 0.581680
v 4.113498 0.571784 1.155412
v -0.003188 0.571784 1.155412
v -0.003188 0.070624 1.155412
v 4.113498 0.070624 1.155412
v 4.017995 0.070624 1.718977
v 4.017995 0.070624 1.155412
v 4.017995 0.070624 0.581680
v 4.017995 0.070624 0.018115
v 4.017995 0.571784 0.515843
v 4.017996 0.571784 0.581680
v 4.017996 0.571784 1.155411
v 4.017995 0.571784 1.221248
v 0.213780 0.070624 1.718977
v 0.213780 0.070624 1.155412
v 0.213780 0.070624 0.581680
v 0.213780 0.070624 0.018115
v 0.213780 0.571784 0.515843
v 0.213779 0.571784 0.581680
v 0.213779 0.571784 1.155412
v 0.213780 0.571784 1.221248
v 0.213780 0.397780 1.155412
v 0.213780 0.397780 0.581680
v 4.017995 0.397780 0.581680
v 4.017995 0.397780 1.155412
v 4.010247 0.251831 1.018425
v 4.010247 0.240844 0.996862
v 4.010247 0.223731 0.979749
v 4.010247 0.202167 0.968762
v 4.010247 0.178264 0.964976
v 4.010247 0.154361 0.968762
v 4.010247 0.132797 0.979749
v 4.010247 0.115684 0.996862
v 4.010247 0.104697 1.018425
v 4.010247 0.100911 1.042329
v 4.010247 0.104697 1.066232
v 4.010247 0.115684 1.087796
v 4.010247 0.132797 1.104909
v 4.010247 0.154361 1.115896
v 4.010247 0.178264 1.119682
v 4.010247 0.202167 1.115896
v 4.010247 0.223731 1.104909
v 4.010247 0.240844 1.087796
v 4.010247 0.251831 1.066232
v 4.010247 0.255617 1.042329
v 0.190471 0.251831 1.018425
v 0.190471 0.240844 0.996862
v 0.190471 0.223731 0.979749
v 0.190471 0.202167 0.968762
v 0.190471 0.178264 0.964976
v 0.190471 0.154361 0.968762
v 0.190471 0.132797 0.979749
v 0.190471 0.115684 0.996862
v 0.190471 0.104697 1.018425
v 0.190471 0.100911 1.042329
v 0.190471 0.104697 1.066232
v 0.190471 0.115684 1.087796
v 0.190471 0.132797 1.104909
v 0.190471 0.154361 1.115896
v 0.190471 0.178264 1.119682
v 0.190471 0.202167 1.115896
v 0.190471 0.223731 1.104909
v 0.190471 0.240844 1.087796
v 0.190471 0.251831 1.066232
v 0.190471 0.255617 1.042329
v 4.010247 0.178264 1.042329
v 0.190471 0.178264 1.042329
v 4.010247 0.251831 0.696585
v 4.010247 0.240844 0.675021
v 4.010247 0.223731 0.657908
v 4.010247 0.202167 0.646921
v 4.010247 0.178264 0.643135
v 4.010247 0.154361 0.646921
v 4.010247 0.132797 0.657908
v 4.010247 0.115684 0.675021
v 4.010247 0.104697 0.696585
v 4.010247 0.100911 0.720488
v 4.010247 0.104697 0.744391
v 4.010247 0.115684 0.765955
v 4.010247 0.132797 0.783068
v 4.010247 0.154361 0.794055
v 4.010247 0.178264 0.797841
v 4.010247 0.202167 0.794055
v 4.010247 0.223731 0.783068
v 4.010247 0.240844 0.765955
v 4.010247 0.251831 0.744391
v 4.010247 0.255617 0.720488
v 0.190471 0.251831 0.696585
v 0.190471 0.240844 0.675021
v 0.190471 0.223731 0.657908
v 0.190471 0.202167 0.646921
v 0.190471 0.178264 0.643135
v 0.190471 0.154361 0.646921
v 0.190471 0.132797 0.657908
v 0.190471 0.115684 0.675021
v 0.190471 0.104697 0.696585
v 0.190471 0.100911 0.720488
v 0.190471 0.104697 0.744391
v 0.190471 0.115684 0.765955
v 0.190471 0.132797 0.783068
v 0.190471 0.154361 0.794055
v 0.190471 0.178264 0.797841
v 0.190471 0.202167 0.794055
v 0.190471 0.223731 0.783068
v 0.190471 0.240844 0.765955
v 0.190471 0.251831 0.744391
v 0.190471 0.255617 0.720488
v 4.010247 0.178264 0.720488
v 0.190471 0.178264 0.720488
vt 0.375000 0.000000
vt 0.625000 0.000000
vt 0.375000 0.250000
vt 0.625000 0.250000
vt 0.375000 0.500000
vt 0.625000 0.500000
vt 0.375000 0.750000
vt 0.625000 0.750000
vt 0.375000 1.000000
vt 0.625000 1.000000
vt 0.875000 0.000000
vt 0.875000 0.250000
vt 0.125000 0.000000
vt 0.125000 0.250000
vt 0.625000 0.416667
vt 0.791667 0.250000
vt 0.208333 0.250000
vt 0.375000 0.416667
vt 0.208333 0.000000
vt 0.375000 0.833333
vt 0.625000 0.833333
vt 0.791667 0.000000
vt 0.625000 0.333333
vt 0.708333 0.250000
vt 0.291667 0.250000
vt 0.375000 0.333333
vt 0.291667 0.000000
vt 0.375000 0.916667
vt 0.625000 0.916667
vt 0.708333 0.000000
vt 0.619200 0.000000
vt 0.619200 1.000000
vt 0.619200 0.916667
vt 0.619200 0.833333
vt 0.619200 0.750000
vt 0.619200 0.500000
vt 0.619200 0.416667
vt 0.619200 0.333333
vt 0.619200 0.250000
vt 0.388176 0.000000
vt 0.388176 1.000000
vt 0.388176 0.916667
vt 0.388176 0.833333
vt 0.388176 0.750000
vt 0.388176 0.500000
vt 0.388176 0.416667
vt 0.388176 0.333333
vt 0.388176 0.250000
vt 0.388176 0.916667
vt 0.388176 0.833333
vt 0.619200 0.833333
vt 0.619200 0.916667
vt 0.375000 0.312500
vt 0.387500 0.312500
vt 0.387500 0.688440
vt 0.375000 0.688440
vt 0.400000 0.312500
vt 0.400000 0.688440
vt 0.412500 0.312500
vt 0.412500 0.688440
vt 0.425000 0.312500
vt 0.425000 0.688440
vt 0.437500 0.312500
vt 0.437500 0.688440
vt 0.450000 0.312500
vt 0.450000 0.688440
vt 0.462500 0.312500
vt 0.462500 0.688440
vt 0.475000 0.312500
vt 0.475000 0.688440
vt 0.487500 0.312500
vt 0.487500 0.688440
vt 0.500000 0.312500
vt 0.500000 0.688440
vt 0.512500 0.312500
vt 0.512500 0.688440
vt 0.525000 0.312500
vt 0.525000 0.688440
vt 0.537500 0.312500
vt 0.537500 0.688440
vt 0.550000 0.312500
vt 0.550000 0.688440
vt 0.562500 0.312500
vt 0.562500 0.688440
vt 0.575000 0.312500
vt 0.575000 0.688440
vt 0.587500 0.312500
vt 0.587500 0.688440
vt 0.600000 0.312500
vt 0.600000 0.688440
vt 0.612500 0.312500
vt 0.612500 0.688440
vt 0.625000 0.312500
vt 0.625000 0.688440
vt 0.626409 0.064408
vt 0.648603 0.107966
vt 0.500000 0.150000
vt 0.591842 0.029841
vt 0.548284 0.007647
vt 0.500000 -0.000000
vt 0.451716 0.007647
vt 0.408159 0.029841
vt 0.373591 0.064409
vt 0.351397 0.107966
vt 0.343750 0.156250
vt 0.351397 0.204534
vt 0.373591 0.248091
vt 0.408159 0.282659
vt 0.451716 0.304853
vt 0.500000 0.312500
vt 0.548284 0.304853
vt 0.591841 0.282659
vt 0.626409 0.248091
vt 0.648603 0.204534
vt 0.656250 0.156250
vt 0.648603 0.892034
vt 0.626409 0.935591
vt 0.500000 0.837500
vt 0.591841 0.970159
vt 0.548284 0.992353
vt 0.500000 1.000000
vt 0.451716 0.992353
vt 0.408159 0.970159
vt 0.373591 0.935591
vt 0.351397 0.892034
vt 0.343750 0.843750
vt 0.351397 0.795466
vt 0.373591 0.751909
vt 0.408159 0.717341
vt 0.451716 0.695147
vt 0.500000 0.687500
vt 0.548284 0.695147
vt 0.591842 0.717341
vt 0.626409 0.751908
vt 0.648603 0.795466
vt 0.656250 0.843750
vt 0.375000 0.312500
vt 0.387500 0.312500
vt 0.387500 0.688440
vt 0.375000 0.688440
vt 0.400000 0.312500
vt 0.400000 0.688440
vt 0.412500 0.312500
vt 0.412500 0.688440
vt 0.425000 0.312500
vt 0.425000 0.688440
vt 0.437500 0.312500
vt 0.437500 0.688440
vt 0.450000 0.312500
vt 0.450000 0.688440
vt 0.462500 0.312500
vt 0.462500 0.688440
vt 0.475000 0.312500
vt 0.475000 0.688440
vt 0.487500 0.312500
vt 0.487500 0.688440
vt 0.500000 0.312500
vt 0.500000 0.688440
vt 0.512500 0.312500
vt 0.512500 0.688440
vt 0.525000 0.312500
vt 0.525000 0.688440
vt 0.537500 0.312500
vt 0.537500 0.688440
vt 0.550000 0.312500
vt 0.550000 0.688440
vt 0.562500 0.312500
vt 0.562500 0.688440
vt 0.575000 0.312500
vt 0.575000 0.688440
vt 0.587500 0.312500
vt 0.587500 0.688440
vt 0.600000 0.312500
vt 0.600000 0.688440
vt 0.612500 0.312500
vt 0.612500 0.688440
vt 0.625000 0.312500
vt 0.625000 0.688440
vt 0.626409 0.064408
vt 0.648603 0.107966
vt 0.500000 0.150000
vt 0.591842 0.029841
vt 0.548284 0.007647
vt 0.500000 -0.000000
vt 0.451716 0.007647
vt 0.408159 0.029841
vt 0.373591 0.064409
vt 0.351397 0.107966
vt 0.343750 0.156250
vt 0.351397 0.204534
vt 0.373591 0.248091
vt 0.408159 0.282659
vt 0.451716 0.304853
vt 0.500000 0.312500
vt 0.548284 0.304853
vt 0.591841 0.282659
vt 0.626409 0.248091
vt 0.648603 0.204534
vt 0.656250 0.156250
vt 0.648603 0.892034
vt 0.626409 0.935591
vt 0.500000 0.837500
vt 0.591841 0.970159
vt 0.548284 0.992353
vt 0.500000 1.000000
vt 0.451716 0.992353
vt 0.408159 0.970159
vt 0.373591 0.935591
vt 0.351397 0.892034
vt 0.343750 0.843750
vt 0.351397 0.795466
vt 0.373591 0.751909
vt 0.408159 0.717341
vt 0.451716 0.695147
vt 0.500000 0.687500
vt 0.548284 0.695147
vt 0.591842 0.717341
vt 0.626409 0.751908
vt 0.648603 0.795466
vt 0.656250 0.843750
vn -0.000000 0.704674 0.709532
vn -0.000000 0.704674 0.709532
vn 0.000000 0.704673 0.709532
vn 0.000000 0.704673 0.709532
vn 0.000000 1.000000 0.000000
vn 0.000000 1.000000 0.000001
vn 0.000000 1.000000 0.000001
vn 0.000000 1.000000 0.000000
vn 0.000000 0.704674 -0.709532
vn 0.000000 0.704674 -0.709532
vn 0.000000 0.704673 -0.709532
vn 0.000000 0.704673 -0.709532
vn -0.000000 -1.000000 -0.000000
vn -0.000000 -1.000000 -0.000000
vn -0.000000 -1.000000 -0.000000
vn -0.000000 -1.000000 -0.000000
vn 1.000000 0.000001 0.000000
vn 1.000000 0.000000 0.000000
vn 1.000000 0.000000 0.000000
vn 1.000000 0.000001 0.000000
vn -1.000000 -0.000000 0.000000
vn -1.000000 -0.000000 0.000000
vn -1.000000 -0.000000 0.000000
vn -1.000000 -0.000000 0.000000
vn 0.000000 1.000000 -0.000001
vn 0.000000 1.000000 -0.000000
vn 0.000000 1.000000 -0.000000
vn 0.000000 1.000000 -0.000001
vn -1.000000 -0.000000 0.000000
vn -1.000000 -0.000000 0.000000
vn -1.000000 -0.000000 0.000000
vn -1.000000 -0.000000 0.000000
vn -0.000000 -1.000000 0.000000
vn -0.000000 -1.000000 0.000000
vn -0.000000 -1.000000 0.000000
vn -0.000000 -1.000000 0.000000
vn 1.000000 0.000000 0.000000
vn 1.000000 0.000000 0.000000
vn 1.000000 0.000001 0.000000
vn 1.000000 0.000001 0.000000
vn 0.000000 -1.000000 -0.000000
vn 0.000000 -1.000000 -0.000000
vn 0.000000 -1.000000 0.000000
vn 0.000000 -1.000000 0.000000
vn 0.000000 -1.000000 0.000000
vn 0.000000 -1.000000 0.000000
vn 0.000000 -1.000000 0.000000
vn 0.000000 -1.000000 0.000000
vn 0.000000 0.704674 -0.709532
vn 0.000000 0.704674 -0.709532
vn 0.000000 1.000000 -0.000001
vn 0.000000 1.000000 -0.000000
vn 0.000000 1.000000 0.000000
vn 0.000000 1.000000 0.000001
vn -0.000000 0.704674 0.709532
vn -0.000000 0.704674 0.709532
vn 0.000000 -1.000000 -0.000000
vn 0.000000 -1.000000 -0.000000
vn 0.000000 -1.000000 0.000000
vn 0.000000 -1.000000 0.000000
vn 0.000000 0.704674 -0.709532
vn 0.000000 0.704674 -0.709532
vn 0.000000 1.000000 0.000000
vn 0.000000 1.000000 0.000001
vn 0.000000 1.000000 -0.000000
vn 0.000000 1.000000 -0.000001
vn 0.000001 0.704674 0.709532
vn 0.000001 0.704674 0.709532
vn 1.000000 0.000000 0.000000
vn 1.000000 0.000000 0.000000
vn 1.000000 0.000000 0.000000
vn 1.000000 0.000000 0.000000
vn 0.000000 0.000000 1.000000
vn 0.000000 0.000000 1.000000
vn 0.000000 0.000000 1.000000
vn 0.000000 0.000000 1.000000
vn -1.000000 0.000000 0.000000
vn -1.000000 0.000000 0.000000
vn -1.000000 0.000000 0.000000
vn -1.000000 0.000000 0.000000
vn 0.000000 0.000000 -1.000000
vn 0.000000 0.000000 -1.000000
vn 0.000000 0.000000 -1.000000
vn 0.000000 0.000000 -1.000000
vn 0.000000 0.951057 -0.309017
vn 0.000000 0.809017 -0.587786
vn 0.000000 0.809017 -0.587786
vn 0.000000 0.951057 -0.309017
vn 0.000000 0.587786 -0.809016
vn 0.000000 0.587786 -0.809016
vn 0.000000 0.309017 -0.951056
vn 0.000000 0.309017 -0.951056
vn 0.000000 0.000000 -1.000000
vn 0.000000 0.000000 -1.000000
vn 0.000000 -0.309017 -0.951056
vn 0.000000 -0.309017 -0.951056
vn 0.000000 -0.587787 -0.809016
vn 0.000000 -0.587787 -0.809016
vn 0.000000 -0.809017 -0.587785
vn 0.000000 -0.809017 -0.587785
vn 0.000000 -0.951057 -0.309017
vn 0.000000 -0.951057 -0.309017
vn 0.000000 -1.000000 0.000000
vn 0.000000 -1.000000 0.000000
vn 0.000000 -0.951056 0.309017
vn 0.000000 -0.951056 0.309017
vn 0.000000 -0.809017 0.587786
vn 0.000000 -0.809017 0.587786
vn 0.000000 -0.587787 0.809016
vn 0.000000 -0.587787 0.809016
vn 0.000000 -0.309017 0.951056
vn 0.000000 -0.309017 0.951056
vn 0.000000 0.000000 1.000000
vn 0.000000 0.000000 1.000000
vn 0.000000 0.309017 0.951056
vn 0.000000 0.309017 0.951056
vn 0.000000 0.587787 0.809016
vn 0.000000 0.587787 0.809016
vn 0.000000 0.809017 0.587785
vn 0.000000 0.809017 0.587785
vn 0.000000 0.951056 0.309018
vn 0.000000 0.951056 0.309018
vn 0.000000 1.000000 0.000001
vn 0.000000 1.000000 0.000001
vn 1.000000 0.000000 0.000000
vn 1.000000 0.000000 0.000000
vn 1.000000 0.000000 0.000000
vn 1.000000 0.000000 0.000000
vn 1.000000 0.000000 0.000000
vn 1.000000 0.000000 0.000000
vn 1.000000 0.000000 0.000000
vn 1.000000 0.000000 0.000000
vn 1.000000 -0.000004 0.000000
vn 1.000000 -0.000004 0.000000
vn 1.000000 0.000000 0.000000
vn 1.000000 0.000000 0.000000
vn 1.000000 0.000000 0.000000
vn 1.000000 0.000000 0.000000
vn 1.000000 0.000000 0.000000
vn 1.000000 0.000000 0.000000
vn 1.000000 0.000000 0.000000
vn 1.000000 0.000000 0.000000
vn 1.000000 0.000004 0.000000
vn 1.000000 0.000004 0.000000
vn 1.000000 0.000000 0.000000
vn -1.000000 0.000000 0.000000
vn -1.000000 0.000000 0.000000
vn -1.000000 0.000000 0.000000
vn -1.000000 -0.000000 0.000000
vn -1.000000 -0.000000 0.000000
vn -1.000000 0.000000 0.000000
vn -1.000000 0.000000 0.000000
vn -1.000000 0.000000 0.000000
vn -1.000000 -0.000000 0.000000
vn -1.000000 0.000000 0.000000
vn -1.000000 0.000000 0.000000
vn -1.000000 0.000000 0.000000
vn -1.000000 -0.000000 0.000000
vn -1.000000 0.000000 0.000000
vn -1.000000 0.000000 0.000000
vn -1.000000 0.000000 0.000000
vn -1.000000 -0.000000 0.000000
vn -1.000000 -0.000000 0.000000
vn -1.000000 0.000000 0.000000
vn -1.000000 0.000000 0.000000
vn -1.000000 0.000000 0.000000
vn 0.000000 0.951057 -0.309017
vn 0.000000 0.809017 -0.587786
vn 0.000000 0.809017 -0.587786
vn 0.000000 0.951057 -0.309017
vn 0.000000 0.587786 -0.809016
vn 0.000000 0.587786 -0.809016
vn 0.000000 0.309017 -0.951056
vn 0.000000 0.309017 -0.951056
vn 0.000000 0.000000 -1.000000
vn 0.000000 0.000000 -1.000000
vn 0.000000 -0.309017 -0.951056
vn 0.000000 -0.309017 -0.951056
vn 0.000000 -0.587787 -0.809016
vn 0.000000 -0.587787 -0.809016
vn 0.000000 -0.809017 -0.587785
vn 0.000000 -0.809017 -0.587785
vn 0.000000 -0.951057 -0.309017
vn 0.000000 -0.951057 -0.309017
vn 0.000000 -1.000000 0.000000
vn 0.000000 -1.000000 0.000000
vn 0.000000 -0.951056 0.309017
vn 0.000000 -0.951056 0.309017
vn 0.000000 -0.809017 0.587786
vn 0.000000 -0.809017 0.587786
vn 0.000000 -0.587787 0.809016
vn 0.000000 -0.587787 0.809016
vn 0.000000 -0.309017 0.951056
vn 0.000000 -0.309017 0.951056
vn 0.000000 0.000000 1.000000
vn 0.000000 0.000000 1.000000
vn 0.000000 0.309017 0.951056
vn 0.000000 0.309017 0.951056
vn 0.000000 0.587787 0.809016
vn 0.000000 0.587787 0.809016
vn 0.000000 0.809017 0.587785
vn 0.000000 0.809017 0.587785
vn 0.000000 0.951056 0.309018
vn 0.000000 0.951056 0.309018
vn 0.000000 1.000000 0.000001
vn 0.000000 1.000000 0.000001
vn 1.000000 0.000000 0.000000
vn 1.000000 0.000000 0.000000
vn 1.000000 0.000000 0.000000
vn 1.000000 0.000000 0.000000
vn 1.000000 0.000000 0.000000
vn 1.000000 0.000000 0.000000
vn 1.000000 0.000000 0.000000
vn 1.000000 0.000000 0.000000
vn 1.000000 -0.000004 0.000000
vn 1.000000 -0.000004 0.000000
vn 1.000000 0.000000 0.000000
vn 1.000000 0.000000 0.000000
vn 1.000000 0.000000 0.000000
vn 1.000000 0.000000 0.000000
vn 1.000000 0.000000 0.000000
vn 1.000000 0.000000 0.000000
vn 1.000000 0.000000 0.000000
vn 1.000000 0.000000 0.000000
vn 1.000000 0.000004 0.000000
vn 1.000000 0.000004 0.000000
vn 1.000000 0.000000 0.000000
vn -1.000000 0.000000 0.000000
vn -1.000000 0.000000 0.000000
vn -1.000000 -0.000000 0.000000
vn -1.000000 -0.000000 0.000000
vn -1.000000 -0.000000 0.000000
vn -1.000000 0.000000 0.000000
vn -1.000000 0.000000 0.000000
vn -1.000000 -0.000000 0.000000
vn -1.000000 -0.000000 0.000000
vn -1.000000 0.000000 0.000000
vn -1.000000 0.000000 0.000000
vn -1.000000 0.000000 0.000000
vn -1.000000 -0.000000 0.000000
vn -1.000000 0.000000 0.000000
vn -1.000000 0.000000 0.000000
vn -1.000000 0.000000 0.000000
vn -1.000000 -0.000000 0.000000
vn -1.000000 -0.000000 0.000000
vn -1.000000 0.000000 0.000000
vn -1.000000 0.000000 0.000000
vn -1.000000 0.000000 0.000000
s 1
g pCube2
usemtl initialShadingGroup
f 24/39/1 17/31/2 2/2/3 4/4/4
s 2
f 23/38/5 24/39/6 4/4/7 13/23/8
s 3
f 20/35/9 21/36/10 6/6/11 8/8/12
s 4
f 17/32/13 18/33/14 16/29/15 2/10/16
s 5
f 2/2/17 16/30/18 13/24/19 4/4/20
s 6
f 15/27/21 1/1/22 3/3/23 14/25/24
s 2
f 21/36/25 22/37/26 9/15/27 6/6/28
s 6
f 7/13/29 11/19/30 10/17/31 5/14/32
s 4
f 19/34/33 20/35/34 8/8/35 12/21/36
s 5
f 9/16/37 12/22/38 8/11/39 6/12/40
s 2
f 22/37/26 23/38/5 13/23/8 9/15/27
s 6
f 11/19/30 15/27/21 14/25/24 10/17/31
s 4
f 18/33/14 19/34/33 12/21/36 16/29/15
s 5
f 13/24/19 16/30/18 12/22/38 9/16/37
s 4
f 25/41/41 26/42/42 18/33/14 17/32/13
s off
f 33/49/43 34/50/44 35/51/45 36/52/46
s 4
f 27/43/47 28/44/48 20/35/34 19/34/33
s 3
f 28/44/49 29/45/50 21/36/10 20/35/9
s 2
f 29/45/51 30/46/52 22/37/26 21/36/25
f 30/46/52 31/47/53 23/38/5 22/37/26
f 31/47/53 32/48/54 24/39/6 23/38/5
s 1
f 32/48/55 25/40/56 17/31/2 24/39/1
s 4
f 15/28/57 26/42/42 25/41/41 1/9/58
f 11/20/59 27/43/47 26/42/42 15/28/57
f 7/7/60 28/44/48 27/43/47 11/20/59
s 3
f 5/5/61 29/45/50 28/44/49 7/7/62
s 2
f 10/18/63 30/46/52 29/45/51 5/5/64
f 14/26/65 31/47/53 30/46/52 10/18/63
f 3/3/66 32/48/54 31/47/53 14/26/65
s 1
f 1/1/67 25/40/56 32/48/55 3/3/68
s off
f 26/42/69 27/43/70 34/50/71 33/49/72
f 27/43/73 19/34/74 35/51/75 34/50/76
f 19/34/77 18/33/78 36/52/79 35/51/80
f 18/33/81 26/42/82 33/49/83 36/52/84
s 9
f 37/53/85 38/54/86 58/55/87 57/56/88
f 38/54/86 39/57/89 59/58/90 58/55/87
f 39/57/89 40/59/91 60/60/92 59/58/90
f 40/59/91 41/61/93 61/62/94 60/60/92
f 41/61/93 42/63/95 62/64/96 61/62/94
f 42/63/95 43/65/97 63/66/98 62/64/96
f 43/65/97 44/67/99 64/68/100 63/66/98
f 44/67/99 45/69/101 65/70/102 64/68/100
f 45/69/101 46/71/103 66/72/104 65/70/102
f 46/71/103 47/73/105 67/74/106 66/72/104
f 47/73/105 48/75/107 68/76/108 67/74/106
f 48/75/107 49/77/109 69/78/110 68/76/108
f 49/77/109 50/79/111 70/80/112 69/78/110
f 50/79/111 51/81/113 71/82/114 70/80/112
f 51/81/113 52/83/115 72/84/116 71/82/114
f 52/83/115 53/85/117 73/86/118 72/84/116
f 53/85/117 54/87/119 74/88/120 73/86/118
f 54/87/119 55/89/121 75/90/122 74/88/120
f 55/89/121 56/91/123 76/92/124 75/90/122
f 56/91/123 37/93/85 57/94/88 76/92/124
s 10
f 38/95/125 37/96/126 77/97/127
f 39/98/128 38/95/125 77/97/127
f 40/99/129 39/98/128 77/97/127
f 41/100/130 40/99/129 77/97/127
f 42/101/131 41/100/130 77/97/127
f 43/102/132 42/101/131 77/97/127
f 44/103/133 43/102/132 77/97/127
f 45/104/134 44/103/133 77/97/127
f 46/105/135 45/104/134 77/97/127
f 47/106/136 46/105/135 77/97/127
f 48/107/137 47/106/136 77/97/127
f 49/108/138 48/107/137 77/97/127
f 50/109/139 49/108/138 77/97/127
f 51/110/140 50/109/139 77/97/127
f 52/111/141 51/110/140 77/97/127
f 53/112/142 52/111/141 77/97/127
f 54/113/143 53/112/142 77/97/127
f 55/114/144 54/113/143 77/97/127
f 56/115/145 55/114/144 77/97/127
f 37/96/126 56/115/145 77/97/127
s 11
f 57/116/146 58/117/147 78/118/148
f 58/117/147 59/119/149 78/118/148
f 59/119/149 60/120/150 78/118/148
f 60/120/150 61/121/151 78/118/148
f 61/121/151 62/122/152 78/118/148
f 62/122/152 63/123/153 78/118/148
f 63/123/153 64/124/154 78/118/148
f 64/124/154 65/125/155 78/118/148
f 65/125/155 66/126/156 78/118/148
f 66/126/156 67/127/157 78/118/148
f 67/127/157 68/128/158 78/118/148
f 68/128/158 69/129/159 78/118/148
f 69/129/159 70/130/160 78/118/148
f 70/130/160 71/131/161 78/118/148
f 71/131/161 72/132/162 78/118/148
f 72/132/162 73/133/163 78/118/148
f 73/133/163 74/134/164 78/118/148
f 74/134/164 75/135/165 78/118/148
f 75/135/165 76/136/166 78/118/148
f 76/136/166 57/116/146 78/118/148
s 12
f 79/137/167 80/138/168 100/139/169 99/140/170
f 80/138/168 81/141/171 101/142/172 100/139/169
f 81/141/171 82/143/173 102/144/174 101/142/172
f 82/143/173 83/145/175 103/146/176 102/144/174
f 83/145/175 84/147/177 104/148/178 103/146/176
f 84/147/177 85/149/179 105/150/180 104/148/178
f 85/149/179 86/151/181 106/152/182 105/150/180
f 86/151/181 87/153/183 107/154/184 106/152/182
f 87/153/183 88/155/185 108/156/186 107/154/184
f 88/155/185 89/157/187 109/158/188 108/156/186
f 89/157/187 90/159/189 110/160/190 109/158/188
f 90/159/189 91/161/191 111/162/192 110/160/190
f 91/161/191 92/163/193 112/164/194 111/162/192
f 92/163/193 93/165/195 113/166/196 112/164/194
f 93/165/195 94/167/197 114/168/198 113/166/196
f 94/167/197 95/169/199 115/170/200 114/168/198
f 95/169/199 96/171/201 116/172/202 115/170/200
f 96/171/201 97/173/203 117/174/204 116/172/202
f 97/173/203 98/175/205 118/176/206 117/174/204
f 98/175/205 79/177/167 99/178/170 118/176/206
s 13
f 80/179/207 79/180/208 119/181/209
f 81/182/210 80/179/207 119/181/209
f 82/183/211 81/182/210 119/181/209
f 83/184/212 82/183/211 119/181/209
f 84/185/213 83/184/212 119/181/209
f 85/186/214 84/185/213 119/181/209
f 86/187/215 85/186/214 119/181/209
f 87/188/216 86/187/215 119/181/209
f 88/189/217 87/188/216 119/181/209
f 89/190/218 88/189/217 119/181/209
f 90/191/219 89/190/218 119/181/209
f 91/192/220 90/191/219 119/181/209
f 92/193/221 91/192/220 119/181/209
f 93/194/222 92/193/221 119/181/209
f 94/195/223 93/194/222 119/181/209
f 95/196/224 94/195/223 119/181/209
f 96/197/225 95/196/224 119/181/209
f 97/198/226 96/197/225 119/181/209
f 98/199/227 97/198/226 119/181/209
f 79/180/208 98/199/227 119/181/209
s 14
f 99/200/228 100/201/229 120/202/230
f 100/201/229 101/203/231 120/202/230
f 101/203/231 102/204/232 120/202/230
f 102/204/232 103/205/233 120/202/230
f 103/205/233 104/206/234 120/202/230
f 104/206/234 105/207/235 120/202/230
f 105/207/235 106/208/236 120/202/230
f 106/208/236 107/209/237 120/202/230
f 107/209/237 108/210/238 120/202/230
f 108/210/238 109/211/239 120/202/230
f 109/211/239 110/212/240 120/202/230
f 110/212/240 111/213/241 120/202/230
f 111/213/241 112/214/242 120/202/230
f 112/214/242 113/215/243 120/202/230
f 113/215/243 114/216/244 120/202/230
f 114/216/244 115/217/245 120/202/230
f 115/217/245 116/218/246 120/202/230
f 116/218/246 117/219/247 120/202/230
f 117/219/247 118/220/248 120/202/230
f 118/220/248 99/200/228 120/202/230
