# This file uses centimeters as units for non-parametric coordinates.

mtllib panel_publicidad.mtl
g default
v -1.675402 3.091002 0.069088
v -1.875501 2.935057 0.069088
v -2.009204 2.701670 0.069088
v -2.056153 2.426370 0.069088
v -1.439369 3.145762 0.069088
v 2.009203 2.701670 0.069088
v 1.875501 2.935057 0.069088
v 1.675402 3.091002 0.069088
v 1.439369 3.145762 0.069088
v 2.056153 2.426370 0.069088
v -2.009204 -2.701670 0.069088
v -1.875501 -2.935057 0.069088
v -1.675402 -3.091002 0.069088
v -1.439369 -3.145763 0.069088
v -2.056154 -2.426370 0.069088
v 1.675402 -3.091002 0.069088
v 1.875501 -2.935057 0.069088
v 2.009203 -2.701670 0.069088
v 2.056153 -2.426370 0.069088
v 1.439369 -3.145763 0.069088
v -1.473269 3.441882 -0.452797
v -1.473269 3.441882 0.069088
v 1.473269 3.441882 0.069088
v 1.473269 3.441882 -0.452797
v -1.473269 -3.441882 0.069088
v -1.473269 -3.441882 -0.452797
v 1.473269 -3.441882 -0.452797
v 1.473269 -3.441882 0.069088
v 2.354019 -2.451587 0.069088
v 2.354018 -2.451587 -0.452797
v 2.354018 2.451587 -0.452797
v 2.354018 2.451587 0.069088
v -2.354019 -2.451587 -0.452797
v -2.354019 -2.451587 0.069088
v -2.354019 2.451587 0.069088
v -2.354019 2.451587 -0.452797
v -2.287223 2.801450 0.069088
v -2.287223 2.801450 -0.452797
v -2.097862 3.127933 0.069088
v -2.097863 3.127933 -0.452797
v -1.801508 3.355434 0.069088
v -1.801508 3.355434 -0.452797
v 1.801508 3.355434 0.069088
v 1.801508 3.355434 -0.452797
v 2.097862 3.127933 0.069088
v 2.097862 3.127933 -0.452797
v 2.287224 2.801450 0.069088
v 2.287224 2.801450 -0.452797
v -1.801508 -3.355435 0.069088
v -1.801508 -3.355435 -0.452797
v -2.097863 -3.127934 0.069088
v -2.097863 -3.127934 -0.452797
v -2.287224 -2.801450 0.069088
v -2.287224 -2.801450 -0.452797
v 2.287224 -2.801449 0.069088
v 2.287224 -2.801449 -0.452797
v 2.097863 -3.127934 0.069088
v 2.097863 -3.127934 -0.452797
v 1.801508 -3.355435 0.069088
v 1.801508 -3.355435 -0.452797
v -1.439369 3.145762 0.452797
v 1.439369 3.145762 0.452797
v 1.473269 3.441882 0.452797
v -1.473269 3.441882 0.452797
v -1.439369 -3.145763 0.452797
v 1.439369 -3.145763 0.452797
v -1.473269 -3.441882 0.452797
v 1.473269 -3.441882 0.452797
v 2.056153 -2.426370 0.452797
v 2.056153 2.426370 0.452797
v 2.354018 -2.451587 0.452797
v 2.354018 2.451587 0.452797
v -2.056153 -2.426370 0.452797
v -2.056153 2.426370 0.452797
v -2.354019 2.451587 0.452797
v -2.354019 -2.451587 0.452797
v -2.009204 2.701670 0.452797
v -2.287223 2.801450 0.452797
v -1.875501 2.935057 0.452797
v -2.097862 3.127933 0.452797
v -1.675402 3.091002 0.452797
v -1.801508 3.355434 0.452797
v 1.675402 3.091002 0.452797
v 1.801508 3.355434 0.452797
v 1.875501 2.935057 0.452797
v 2.097862 3.127933 0.452797
v 2.009203 2.701670 0.452797
v 2.287224 2.801450 0.452797
v -1.675402 -3.091002 0.452797
v -1.801508 -3.355435 0.452797
v -1.875501 -2.935057 0.452797
v -2.097863 -3.127934 0.452797
v -2.009204 -2.701670 0.452797
v -2.287224 -2.801450 0.452797
v 2.009203 -2.701670 0.452797
v 2.287224 -2.801449 0.452797
v 1.875501 -2.935057 0.452797
v 2.097863 -3.127934 0.452797
v 1.675402 -3.091002 0.452797
v 1.801508 -3.355435 0.452797
v 1.439368 2.935057 0.069088
v 1.439369 2.701670 0.069088
v 1.439369 2.426370 0.069088
v -1.439367 2.935057 0.069088
v -1.439368 2.701669 0.069088
v -1.439368 2.426370 0.069088
v -1.439369 -2.426373 0.069088
v 1.439369 -2.426373 0.069088
v -1.439369 -2.701670 0.069088
v 1.439369 -2.701670 0.069088
v -1.439369 -2.938687 0.069088
v 1.439369 -2.962647 0.069088
v 1.835866 -2.965947 0.069088
vt 0.855923 0.002692
vt 0.855958 0.861451
vt 0.809850 0.002691
vt 0.855958 0.499999
vt 0.855923 0.364141
vt 0.809849 0.364143
vt 0.809883 0.500001
vt 0.628055 0.951517
vt 0.628054 0.921274
vt 0.855965 0.818097
vt 0.855965 0.543353
vt 0.809891 0.543354
vt 0.809891 0.818096
vt 0.855916 0.320787
vt 0.855915 0.046046
vt 0.809842 0.046044
vt 0.809841 0.320789
vt 0.855916 0.035987
vt 0.690654 0.921274
vt 0.809843 0.035986
vt 0.661933 0.943657
vt 0.855918 0.024772
vt 0.809844 0.024770
vt 0.855919 0.013390
vt 0.809846 0.013388
vt 0.883234 0.991191
vt 0.920213 0.991193
vt 0.920192 0.141271
vt 0.920213 0.629024
vt 0.883234 0.629026
vt 0.883213 0.503441
vt 0.920192 0.503439
vt 0.920186 0.447445
vt 0.883207 0.447446
vt 0.883207 0.197263
vt 0.920186 0.197265
vt 0.883241 0.685020
vt 0.920219 0.685018
vt 0.920219 0.935199
vt 0.883241 0.935197
vt 0.920219 0.947684
vt 0.883240 0.947682
vt 0.920217 0.962263
vt 0.883239 0.962261
vt 0.920215 0.977487
vt 0.855961 0.850753
vt 0.809887 0.850752
vt 0.214864 0.951517
vt 0.628055 0.951517
vt 0.855963 0.839371
vt 0.809889 0.839370
vt 0.632920 0.994020
vt 0.209998 0.994020
vt 0.855964 0.828156
vt 0.809890 0.828155
vt 0.628055 0.048483
vt 0.214864 0.048483
vt 0.855920 0.353443
vt 0.809846 0.353445
vt 0.209998 0.005980
vt 0.632920 0.005980
vt 0.855918 0.342061
vt 0.716583 0.848261
vt 0.809844 0.342063
vt 0.716583 0.151739
vt 0.855917 0.330846
vt 0.759336 0.148119
vt 0.809842 0.330848
vt 0.759336 0.851881
vt 0.855965 0.533294
vt 0.126335 0.151739
vt 0.809890 0.533295
vt 0.126335 0.848261
vt 0.855963 0.522079
vt 0.083582 0.851881
vt 0.809888 0.522081
vt 0.083582 0.148119
vt 0.855962 0.519808
vt 0.855961 0.510697
vt 0.133073 0.887776
vt 0.093170 0.902097
vt 0.809886 0.510698
vt 0.152265 0.921274
vt 0.947401 0.015687
vt 0.120349 0.948958
vt 0.920213 0.015685
vt 0.883234 0.015683
vt 0.180986 0.943657
vt 0.162885 0.981612
vt 0.883237 0.977485
vt 0.920190 0.154977
vt 0.883211 0.154975
vt 0.920187 0.170201
vt 0.883209 0.170199
vt 0.920186 0.184780
vt 0.883208 0.184779
vt 0.920215 0.642730
vt 0.883237 0.642732
vt 0.920217 0.657954
vt 0.883239 0.657956
vt 0.920219 0.672534
vt 0.883240 0.672536
vt 0.920186 0.459929
vt 0.883208 0.459931
vt 0.920187 0.474509
vt 0.883209 0.474510
vt 0.920190 0.489733
vt 0.883211 0.489734
vt 0.947401 0.991194
vt 0.947380 0.141272
vt 0.947380 0.503437
vt 0.947401 0.629023
vt 0.947374 0.197266
vt 0.947374 0.447444
vt 0.947407 0.685017
vt 0.947407 0.935200
vt 0.947407 0.947685
vt 0.947405 0.962264
vt 0.947403 0.977488
vt 0.947377 0.154978
vt 0.947375 0.170202
vt 0.947374 0.184782
vt 0.947403 0.642729
vt 0.947405 0.657953
vt 0.947407 0.672532
vt 0.947374 0.459928
vt 0.947375 0.474508
vt 0.947378 0.489731
vt 0.661933 0.056343
vt 0.883213 0.141269
vt 0.628055 0.048483
vt 0.661932 0.943657
vt 0.680033 0.981612
vt 0.690654 0.921274
vt 0.722570 0.948958
vt 0.709844 0.887776
vt 0.749749 0.902097
vt 0.180986 0.056343
vt 0.162885 0.018388
vt 0.152265 0.078726
vt 0.120349 0.051042
vt 0.133073 0.112224
vt 0.093170 0.097903
vt 0.709844 0.112224
vt 0.749749 0.097903
vt 0.690654 0.078726
vt 0.722570 0.051042
vt 0.661932 0.056343
vt 0.680033 0.018388
vt 0.628055 0.151738
vt 0.716583 0.151739
vt 0.716583 0.848261
vt 0.628055 0.848261
vt 0.628055 0.887776
vt 0.709844 0.887776
vt 0.214864 0.951517
vt 0.214864 0.921274
vt 0.214864 0.887776
vt 0.214864 0.848261
vt 0.214864 0.151738
vt 0.152265 0.921274
vt 0.180986 0.943657
vt 0.133073 0.887776
vt 0.126335 0.848261
vt 0.126335 0.151739
vt 0.133073 0.112224
vt 0.214864 0.112224
vt 0.628055 0.112224
vt 0.709844 0.112224
vt 0.152265 0.078726
vt 0.214864 0.078205
vt 0.628055 0.074766
vt 0.684965 0.074292
vt 0.690654 0.078726
vt 0.214864 0.048483
vt 0.180986 0.056343
vt 0.855923 0.997309
vt 0.809882 0.861449
vt 0.809850 0.997307
vn -0.026389 0.999652 0.000000
vn -0.026389 0.999652 0.000000
vn 0.026389 0.999652 0.000000
vn 0.026389 0.999652 0.000000
vn -0.026389 -0.999652 -0.000000
vn -0.026389 -0.999652 0.000000
vn 0.026389 -0.999652 0.000000
vn 0.026389 -0.999652 -0.000000
vn 0.999919 -0.012714 -0.000000
vn 0.999919 -0.012714 -0.000000
vn 0.999919 0.012714 -0.000000
vn 0.999919 0.012714 0.000000
vn -0.999919 -0.012714 0.000000
vn -0.999919 -0.012714 0.000000
vn -0.999919 0.012715 0.000000
vn -0.999919 0.012715 0.000000
vn -0.935175 0.354184 0.000000
vn -0.935176 0.354184 0.000000
vn -0.751918 0.659257 0.000000
vn -0.751918 0.659257 0.000001
vn -0.449103 0.893480 0.000000
vn -0.449103 0.893480 0.000000
vn 0.449102 0.893480 0.000000
vn 0.449102 0.893480 0.000000
vn 0.751918 0.659257 0.000000
vn 0.751918 0.659257 0.000000
vn 0.935176 0.354184 0.000000
vn 0.935176 0.354184 0.000000
vn -0.449102 -0.893480 -0.000000
vn -0.449102 -0.893480 0.000000
vn -0.751918 -0.659257 0.000000
vn -0.751918 -0.659257 0.000000
vn -0.935176 -0.354184 0.000000
vn -0.935176 -0.354184 0.000000
vn 0.935176 -0.354184 -0.000000
vn 0.935176 -0.354184 -0.000000
vn 0.751918 -0.659257 0.000000
vn 0.751918 -0.659257 0.000000
vn 0.449102 -0.893480 0.000000
vn 0.449102 -0.893481 0.000000
vn 0.000000 0.000000 1.000000
vn 0.000000 0.000000 1.000000
vn 0.000000 0.000000 1.000000
vn 0.000000 0.000000 1.000000
vn -0.000000 0.000000 1.000000
vn 0.000000 0.000000 1.000000
vn 0.000000 0.000000 1.000000
vn -0.000000 0.000000 1.000000
vn 0.000000 0.000000 1.000000
vn 0.000000 0.000000 1.000000
vn 0.000000 0.000000 1.000000
vn 0.000000 0.000000 1.000000
vn 0.000000 0.000000 1.000000
vn 0.000000 0.000000 1.000000
vn 0.000000 0.000000 1.000000
vn 0.000000 0.000000 1.000000
vn -0.000000 0.000000 1.000000
vn -0.000000 0.000000 1.000000
vn -0.000000 0.000000 1.000000
vn -0.000000 0.000000 1.000000
vn -0.000000 0.000000 1.000000
vn -0.000000 0.000000 1.000000
vn -0.000000 0.000000 1.000000
vn -0.000000 0.000000 1.000000
vn -0.000000 0.000000 1.000000
vn -0.000000 0.000000 1.000000
vn 0.000000 0.000000 1.000000
vn 0.000000 0.000000 1.000000
vn 0.000000 0.000000 1.000000
vn 0.000000 0.000000 1.000000
vn 0.000000 0.000000 1.000000
vn 0.000000 0.000000 1.000000
vn 0.000000 0.000000 1.000000
vn 0.000000 0.000000 1.000000
vn 0.000000 0.000000 1.000000
vn 0.000000 0.000000 1.000000
vn 0.000000 0.000000 1.000000
vn 0.000000 0.000000 1.000000
vn 0.000000 0.000000 1.000000
vn 0.000000 0.000000 1.000000
vn 0.000000 0.000000 1.000000
vn 0.000000 0.000000 1.000000
vn 0.000000 0.000000 1.000000
vn 0.000000 0.000000 1.000000
vn 0.017578 -0.999845 0.000000
vn -0.017578 -0.999845 0.000000
vn -0.017578 -0.999845 0.000000
vn 0.017578 -0.999845 0.000000
vn -0.026389 0.999652 0.000000
vn 0.026389 0.999652 0.000000
vn -0.017578 0.999845 0.000000
vn 0.017578 0.999845 0.000000
vn 0.017578 0.999845 0.000000
vn -0.017578 0.999845 0.000000
vn 0.026389 -0.999652 -0.000000
vn -0.026389 -0.999652 -0.000000
vn -0.999958 -0.009155 0.000000
vn -0.999958 0.009155 0.000000
vn -0.999958 0.009155 0.000000
vn -0.999958 -0.009155 0.000000
vn 0.999919 0.012714 0.000000
vn 0.999919 -0.012714 0.000000
vn 0.999958 0.009155 -0.000001
vn 0.999958 -0.009155 -0.000001
vn 0.999958 -0.009155 -0.000001
vn 0.999958 0.009155 -0.000001
vn -0.999919 -0.012714 0.000000
vn -0.999919 0.012715 0.000000
vn 0.942340 -0.334656 0.000000
vn 0.942340 -0.334656 0.000000
vn -0.935176 0.354185 0.000000
vn 0.759172 -0.650890 -0.000000
vn 0.759172 -0.650890 -0.000000
vn -0.751918 0.659256 0.000000
vn 0.435015 -0.900423 -0.000000
vn 0.435015 -0.900423 -0.000000
vn -0.449103 0.893480 0.000000
vn -0.435015 -0.900423 0.000000
vn -0.435015 -0.900423 0.000000
vn 0.449102 0.893480 0.000000
vn -0.759172 -0.650890 0.000000
vn -0.759172 -0.650890 0.000000
vn 0.751918 0.659257 0.000000
vn -0.942340 -0.334657 0.000000
vn -0.942340 -0.334657 0.000000
vn 0.935176 0.354184 0.000000
vn 0.435015 0.900423 0.000000
vn 0.435015 0.900423 0.000000
vn -0.449102 -0.893480 -0.000000
vn 0.759172 0.650890 0.000000
vn 0.759172 0.650890 0.000000
vn -0.751918 -0.659257 0.000000
vn 0.942340 0.334657 -0.000000
vn 0.942340 0.334657 -0.000000
vn -0.935176 -0.354184 0.000000
vn -0.942340 0.334657 0.000000
vn -0.942340 0.334657 0.000000
vn 0.935176 -0.354184 0.000000
vn -0.759172 0.650890 0.000000
vn -0.759172 0.650890 0.000000
vn 0.751918 -0.659257 0.000000
vn -0.614706 0.788756 0.000000
vn -0.435015 0.900423 0.000000
vn -0.435015 0.900423 0.000000
vn 0.449102 -0.893481 0.000000
vn 0.000000 0.000000 1.000000
vn 0.000000 0.000000 1.000000
vn 0.000000 0.000000 1.000000
vn 0.000000 0.000000 1.000000
vn 0.000000 0.000000 1.000000
vn 0.000000 0.000000 1.000000
vn 0.000000 0.000000 1.000000
vn 0.000000 0.000000 1.000000
vn 0.000000 0.000000 1.000000
vn 0.000000 0.000000 1.000000
vn 0.000000 0.000000 1.000000
vn 0.000000 0.000000 1.000000
vn 0.000000 0.000000 1.000000
vn 0.000000 0.000000 1.000000
vn 0.000000 0.000000 1.000000
vn 0.000000 0.000000 1.000000
vn 0.000000 0.000000 1.000000
vn 0.000000 0.000000 1.000000
vn 0.000000 0.000000 1.000000
vn 0.000000 0.000000 1.000000
vn 0.000000 0.000000 1.000000
vn 0.000000 0.000000 1.000000
vn 0.000000 0.000000 1.000000
vn 0.000000 0.000000 1.000000
vn 0.000000 0.000000 1.000000
vn 0.000000 0.000000 1.000000
vn 0.000000 0.000000 1.000000
vn 0.000000 0.000000 1.000000
vn 0.000000 0.000000 1.000000
s 1
g pCube1
usemtl initialShadingGroup
f 21/87/1 22/86/2 23/28/3 24/130/4
f 25/29/5 26/30/6 27/31/7 28/32/8
f 29/33/9 30/34/10 31/35/11 32/36/12
f 33/37/13 34/38/14 35/39/15 36/40/16
f 35/39/15 37/41/17 38/42/18 36/40/16
f 37/41/17 39/43/19 40/44/20 38/42/18
f 39/43/19 41/45/21 42/90/22 40/44/20
f 41/45/21 22/27/2 21/26/1 42/90/22
f 23/28/3 43/91/23 44/92/24 24/130/4
f 43/91/23 45/93/25 46/94/26 44/92/24
f 45/93/25 47/95/27 48/96/28 46/94/26
f 47/95/27 32/36/12 31/35/11 48/96/28
f 25/29/5 49/97/29 50/98/30 26/30/6
f 49/97/29 51/99/31 52/100/32 50/98/30
f 51/99/31 53/101/33 54/102/34 52/100/32
f 53/101/33 34/38/14 33/37/13 54/102/34
f 29/33/9 55/103/35 56/104/36 30/34/10
f 55/103/35 57/105/37 58/106/38 56/104/36
f 57/105/37 59/107/39 60/108/40 58/106/38
f 59/107/39 28/32/8 27/31/7 60/108/40
s 5
f 9/8/41 101/9/42 7/19/43 8/21/44
s 6
f 61/48/45 62/49/46 63/52/47 64/53/48
f 66/56/49 65/57/50 67/60/51 68/61/52
f 70/63/53 69/65/54 71/67/55 72/69/56
f 73/71/57 74/73/58 75/75/59 76/77/60
f 74/73/58 77/80/61 78/81/62 75/75/59
f 77/80/61 79/83/63 80/85/64 78/81/62
f 79/83/63 81/88/65 82/89/66 80/85/64
f 81/88/65 61/48/45 64/53/48 82/89/66
f 62/49/46 83/132/67 84/133/68 63/52/47
f 83/132/67 85/134/69 86/135/70 84/133/68
f 85/134/69 87/136/71 88/137/72 86/135/70
f 87/136/71 70/63/53 72/69/56 88/137/72
f 65/57/50 89/138/73 90/139/74 67/60/51
f 89/138/73 91/140/75 92/141/76 90/139/74
f 91/140/75 93/142/77 94/143/78 92/141/76
f 93/142/77 73/71/57 76/77/60 94/143/78
f 69/65/54 95/144/79 96/145/80 71/67/55
f 95/144/79 97/146/81 98/147/82 96/145/80
f 97/146/81 99/148/83 100/149/84 98/147/82
f 99/148/83 66/56/49 68/61/52 100/149/84
s 10
f 5/177/85 9/2/86 62/178/87 61/179/88
s 1
f 23/28/3 22/86/2 64/84/89 63/110/90
s 10
f 20/4/91 14/5/92 65/6/93 66/7/94
s 1
f 25/29/5 28/32/8 68/111/95 67/112/96
s 10
f 10/10/97 19/11/98 69/12/99 70/13/100
s 1
f 29/33/9 32/36/12 72/113/101 71/114/102
s 10
f 15/14/103 4/15/104 74/16/105 73/17/106
s 1
f 35/39/15 34/38/14 76/115/107 75/116/108
s 10
f 4/15/104 3/18/109 77/20/110 74/16/105
s 1
f 37/41/17 35/39/15 75/116/108 78/117/111
s 10
f 3/18/109 2/22/112 79/23/113 77/20/110
s 1
f 39/43/19 37/41/17 78/117/111 80/118/114
s 10
f 2/22/112 1/24/115 81/25/116 79/23/113
s 1
f 41/45/21 39/43/19 80/118/114 82/119/117
s 10
f 1/24/115 5/1/85 61/3/88 81/25/116
s 1
f 22/27/2 41/45/21 82/119/117 64/109/89
s 10
f 9/2/86 8/46/118 83/47/119 62/178/87
s 1
f 43/91/23 23/28/3 63/110/90 84/120/120
s 10
f 8/46/118 7/50/121 85/51/122 83/47/119
s 1
f 45/93/25 43/91/23 84/120/120 86/121/123
s 10
f 7/50/121 6/54/124 87/55/125 85/51/122
s 1
f 47/95/27 45/93/25 86/121/123 88/122/126
s 10
f 6/54/124 10/10/97 70/13/100 87/55/125
s 1
f 32/36/12 47/95/27 88/122/126 72/113/101
s 10
f 14/5/92 13/58/127 89/59/128 65/6/93
s 1
f 49/97/29 25/29/5 67/112/96 90/123/129
s 10
f 13/58/127 12/62/130 91/64/131 89/59/128
s 1
f 51/99/31 49/97/29 90/123/129 92/124/132
s 10
f 12/62/130 11/66/133 93/68/134 91/64/131
s 1
f 53/101/33 51/99/31 92/124/132 94/125/135
s 10
f 11/66/133 15/14/103 73/17/106 93/68/134
s 1
f 34/38/14 53/101/33 94/125/135 76/115/107
s 10
f 19/11/98 18/70/136 95/72/137 69/12/99
s 1
f 55/103/35 29/33/9 71/114/102 96/126/138
s 10
f 18/70/136 17/74/139 97/76/140 95/72/137
s 1
f 57/105/37 55/103/35 96/126/138 98/127/141
s 10
f 17/74/139 113/78/142 16/79/143 99/82/144 97/76/140
s 1
f 59/107/39 57/105/37 98/127/141 100/128/145
s 10
f 16/79/143 20/4/91 66/7/94 99/82/144
s 1
f 28/32/8 59/107/39 100/128/145 68/111/95
s 5
f 108/150/146 19/151/147 10/152/148 103/153/149
f 102/154/150 103/153/149 10/152/148 6/155/151
f 101/9/42 102/154/150 6/155/151 7/19/43
f 5/156/152 104/157/153 101/9/42 9/8/41
f 104/157/153 105/158/154 102/154/150 101/9/42
f 105/158/154 106/159/155 103/153/149 102/154/150
f 107/160/156 108/150/146 103/153/149 106/159/155
f 2/161/157 104/157/153 5/156/152 1/162/158
f 3/163/159 105/158/154 104/157/153 2/161/157
f 4/164/160 106/159/155 105/158/154 3/163/159
f 15/165/161 107/160/156 106/159/155 4/164/160
f 11/166/162 109/167/163 107/160/156 15/165/161
f 109/167/163 110/168/164 108/150/146 107/160/156
f 110/168/164 18/169/165 19/151/147 108/150/146
f 12/170/166 111/171/167 109/167/163 11/166/162
f 111/171/167 112/172/168 110/168/164 109/167/163
f 112/172/168 113/173/169 17/174/170 18/169/165 110/168/164
f 14/175/171 111/171/167 12/170/166 13/176/172
f 20/131/173 112/172/168 111/171/167 14/175/171
f 16/129/174 113/173/169 112/172/168 20/131/173
