# This file uses centimeters as units for non-parametric coordinates.

mtllib mini_horno.mtl
g default
v -0.572055 -0.885623 0.500000
v 0.427945 -0.885623 0.500000
v -0.572055 0.885623 0.500000
v 0.427945 0.885623 0.500000
v -0.572055 0.885623 -0.500000
v 0.427945 0.885623 -0.500000
v -0.572055 -0.885623 -0.500000
v 0.427945 -0.885623 -0.500000
v -0.572055 0.358098 0.500000
v 0.427945 0.358098 0.500000
v 0.427945 0.358098 -0.500000
v -0.572055 0.358098 -0.500000
v -0.572055 -0.602578 0.500000
v 0.427945 -0.602578 0.500000
v 0.427945 -0.602578 -0.500000
v -0.572055 -0.602578 -0.500000
v -0.572055 0.885623 0.412269
v 0.427945 0.885623 0.412269
v 0.427945 0.358098 0.412269
v 0.427945 -0.602578 0.412269
v 0.427945 -0.885623 0.412269
v 0.427945 -0.885623 -0.461119
v 0.427945 -0.602578 -0.461119
v 0.427945 0.358098 -0.461119
v 0.427945 0.885623 -0.461119
v -0.572055 0.885623 -0.461119
v 0.477197 0.358098 0.412269
v 0.477197 -0.602578 0.412269
v 0.477197 -0.602578 -0.461119
v 0.477197 0.358098 -0.461119
v 0.372814 0.582195 0.383075
v 0.372814 0.764483 0.383075
v 0.372814 0.764483 0.360908
v 0.372814 0.582195 0.360908
v 0.517374 0.764483 0.383075
v 0.572055 0.709802 0.383075
v 0.572055 0.709802 0.360908
v 0.517374 0.764483 0.360908
v 0.572055 0.636876 0.383075
v 0.517374 0.582195 0.383075
v 0.517374 0.582195 0.360908
v 0.572055 0.636876 0.360908
v 0.463659 0.630093 0.372559
v 0.444863 0.655962 0.372559
v 0.444863 0.687938 0.372559
v 0.463659 0.713807 0.372559
v 0.494070 0.723688 0.372559
v 0.524481 0.713807 0.372559
v 0.543276 0.687938 0.372559
v 0.543276 0.655962 0.372559
v 0.524481 0.630093 0.372559
v 0.494070 0.620211 0.372559
v 0.463659 0.630093 -0.416742
v 0.444863 0.655962 -0.416742
v 0.444863 0.687938 -0.416742
v 0.463659 0.713807 -0.416742
v 0.494070 0.723688 -0.416742
v 0.524481 0.713807 -0.416742
v 0.543276 0.687938 -0.416742
v 0.543276 0.655962 -0.416742
v 0.524481 0.630093 -0.416742
v 0.494070 0.620211 -0.416742
v 0.372814 0.582195 -0.405919
v 0.372814 0.764483 -0.405919
v 0.372814 0.764483 -0.428086
v 0.372814 0.582195 -0.428086
v 0.517374 0.764483 -0.405919
v 0.572055 0.709802 -0.405919
v 0.572055 0.709802 -0.428086
v 0.517374 0.764483 -0.428086
v 0.572055 0.636876 -0.405919
v 0.517374 0.582195 -0.405919
v 0.517374 0.582195 -0.428086
v 0.572055 0.636876 -0.428086
vt 0.005271 0.453440
vt 0.317050 0.453440
vt 0.345541 0.963158
vt 0.340852 0.641314
vt 0.627968 0.641314
vt 0.624874 0.963158
vt 0.317266 0.641314
vt 0.005271 0.639296
vt 0.950878 0.639296
vt 0.638204 0.641314
vt 0.639099 0.453440
vt 0.336162 0.453440
vt 0.631061 0.453440
vt 0.005271 0.114977
vt 0.317482 0.963158
vt 0.317050 0.114977
vt 0.983446 0.009909
vt 0.983446 0.258876
vt 0.345773 0.453440
vt 0.345773 0.114977
vt 0.958937 0.258877
vt 0.958937 0.009908
vt 0.621305 0.114977
vt 0.637309 0.963158
vt 0.983490 0.479414
vt 0.958980 0.479415
vt 0.983490 0.728382
vt 0.958980 0.728382
vt 0.621305 0.453440
vt 0.639099 0.114977
vt 0.005271 0.015255
vt 0.317050 0.015255
vt 0.336162 0.114977
vt 0.336162 0.015255
vt 0.631061 0.015255
vt 0.631061 0.114977
vt 0.950878 0.015255
vt 0.950878 0.453440
vt 0.950878 0.114977
vt 0.639099 0.015255
vt 0.983446 0.948920
vt 0.958937 0.948920
vt 0.642676 0.751968
vt 0.729075 0.751968
vt 0.761756 0.784649
vt 0.761756 0.828235
vt 0.729075 0.860916
vt 0.642676 0.860916
vt 0.862388 0.660016
vt 0.809504 0.660005
vt 0.809505 0.644318
vt 0.862388 0.644328
vt 0.860680 0.784038
vt 0.774281 0.784038
vt 0.741600 0.748317
vt 0.741600 0.700678
vt 0.774281 0.664958
vt 0.860680 0.664958
vt 0.665238 0.644328
vt 0.718122 0.644318
vt 0.718123 0.660005
vt 0.665239 0.660016
vt 0.749406 0.660002
vt 0.749405 0.644314
vt 0.778221 0.644314
vt 0.778221 0.660002
vt 0.005545 0.979086
vt 0.005545 0.968208
vt 0.310916 0.968208
vt 0.310916 0.979086
vt 0.005545 0.957330
vt 0.310916 0.957330
vt 0.005545 0.946453
vt 0.310916 0.946453
vt 0.005545 0.935575
vt 0.310916 0.935575
vt 0.005545 0.924697
vt 0.310916 0.924697
vt 0.005545 0.913820
vt 0.310916 0.913820
vt 0.005545 0.902942
vt 0.310916 0.902942
vt 0.005545 0.892064
vt 0.310916 0.892064
vt 0.005545 0.881187
vt 0.310916 0.881187
vt 0.005545 0.870309
vt 0.310916 0.870309
vt 0.760498 0.894094
vt 0.840507 0.894094
vt 0.870772 0.924358
vt 0.870772 0.964721
vt 0.840507 0.994985
vt 0.760498 0.994985
vt 0.954675 0.807845
vt 0.905702 0.807835
vt 0.905703 0.793308
vt 0.954676 0.793318
vt 0.954063 0.923792
vt 0.874054 0.923792
vt 0.843790 0.890713
vt 0.843790 0.846597
vt 0.874054 0.813519
vt 0.954063 0.813519
vt 0.772105 0.793318
vt 0.821078 0.793308
vt 0.821079 0.807835
vt 0.772106 0.807845
vt 0.850048 0.807832
vt 0.850048 0.793305
vt 0.876733 0.793305
vt 0.876733 0.807832
vn 0.000000 0.000000 1.000000
vn 0.000000 0.000000 1.000000
vn 0.000000 0.000000 1.000000
vn 0.000000 0.000000 1.000000
vn 0.000000 1.000000 0.000000
vn 0.000000 1.000000 0.000000
vn 0.000000 1.000000 0.000000
vn 0.000000 1.000000 0.000000
vn 0.000000 0.000000 -1.000000
vn 0.000000 0.000000 -1.000000
vn 0.000000 0.000000 -1.000000
vn 0.000000 0.000000 -1.000000
vn 1.000000 0.000000 0.000000
vn 1.000000 0.000000 0.000000
vn 1.000000 0.000000 0.000000
vn 1.000000 0.000000 0.000000
vn 0.000000 0.000000 1.000000
vn 0.000000 0.000000 1.000000
vn 1.000000 0.000000 0.000000
vn 1.000000 0.000000 0.000000
vn 1.000000 0.000000 0.000000
vn 1.000000 0.000000 0.000000
vn 0.000000 0.000000 -1.000000
vn 0.000000 0.000000 -1.000000
vn 0.000000 0.000000 1.000000
vn 0.000000 0.000000 1.000000
vn 1.000000 -0.000000 0.000000
vn 1.000000 -0.000000 0.000000
vn 1.000000 -0.000000 0.000000
vn 1.000000 -0.000000 0.000000
vn 0.000000 0.000000 -1.000000
vn 0.000000 0.000000 -1.000000
vn 0.000000 1.000000 0.000000
vn 0.000000 1.000000 0.000000
vn 1.000000 0.000000 0.000000
vn 1.000000 0.000000 0.000000
vn 1.000000 0.000000 0.000000
vn 1.000000 0.000000 0.000000
vn 1.000000 0.000000 0.000000
vn 1.000000 0.000000 0.000000
vn 1.000000 0.000000 0.000000
vn 1.000000 0.000000 0.000000
vn 0.000000 1.000000 0.000000
vn 0.000000 1.000000 0.000000
vn 0.000000 0.000000 1.000000
vn 0.000000 0.000000 1.000000
vn 0.000000 0.000000 1.000000
vn 0.000000 0.000000 1.000000
vn 0.000000 -1.000000 0.000000
vn 0.000000 -1.000000 0.000000
vn 0.000000 -1.000000 0.000000
vn 0.000000 -1.000000 0.000000
vn 0.000000 0.000000 -1.000000
vn 0.000000 0.000000 -1.000000
vn 0.000000 0.000000 -1.000000
vn 0.000000 0.000000 -1.000000
vn 0.000000 1.000000 0.000000
vn 0.000000 1.000000 0.000000
vn 0.000000 1.000000 0.000000
vn 0.000000 1.000000 0.000000
vn 0.000000 0.000000 1.000000
vn 0.000000 0.000000 1.000000
vn 0.000000 0.000000 1.000000
vn 0.000000 0.000000 1.000000
vn 0.000000 0.000000 1.000000
vn 0.000000 0.000000 1.000000
vn 0.000000 1.000000 0.000000
vn 0.000000 1.000000 0.000000
vn 0.000000 1.000000 0.000000
vn 0.000000 1.000000 0.000000
vn 0.000002 0.000000 -1.000000
vn 0.000002 0.000000 -1.000000
vn 0.000002 0.000000 -1.000000
vn 0.000002 0.000000 -1.000000
vn 0.000002 0.000000 -1.000000
vn 0.000002 0.000000 -1.000000
vn 0.000000 -1.000000 0.000000
vn 0.000000 -1.000000 0.000000
vn 0.000000 -1.000000 0.000000
vn 0.000000 -1.000000 0.000000
vn 1.000000 0.000000 0.000000
vn 1.000000 0.000000 0.000000
vn 1.000000 0.000000 0.000000
vn 1.000000 0.000000 0.000000
vn 0.707110 0.707104 0.000000
vn 0.707110 0.707104 0.000000
vn 0.707110 0.707104 0.000000
vn 0.707110 0.707104 0.000000
vn 0.707110 -0.707104 0.000000
vn 0.707110 -0.707104 0.000000
vn 0.707110 -0.707104 0.000000
vn 0.707110 -0.707104 0.000000
vn -0.809017 -0.587785 0.000000
vn -0.809017 -0.587785 0.000000
vn -0.809017 -0.587785 0.000000
vn -0.809017 -0.587785 0.000000
vn -1.000000 0.000000 0.000000
vn -1.000000 0.000000 0.000000
vn -1.000000 0.000000 0.000000
vn -1.000000 0.000000 0.000000
vn -0.809017 0.587785 0.000000
vn -0.809017 0.587785 0.000000
vn -0.809017 0.587785 0.000000
vn -0.809017 0.587785 0.000000
vn -0.309017 0.951057 0.000000
vn -0.309017 0.951057 0.000000
vn -0.309017 0.951057 0.000000
vn -0.309017 0.951057 0.000000
vn 0.309017 0.951057 0.000000
vn 0.309017 0.951057 0.000000
vn 0.309017 0.951057 0.000000
vn 0.309017 0.951057 0.000000
vn 0.809017 0.587785 0.000000
vn 0.809017 0.587785 0.000000
vn 0.809017 0.587785 0.000000
vn 0.809017 0.587785 0.000000
vn 1.000000 0.000000 0.000000
vn 1.000000 0.000000 0.000000
vn 1.000000 0.000000 0.000000
vn 1.000000 0.000000 0.000000
vn 0.809017 -0.587785 0.000000
vn 0.809017 -0.587785 0.000000
vn 0.809017 -0.587785 0.000000
vn 0.809017 -0.587785 0.000000
vn 0.309017 -0.951057 0.000000
vn 0.309017 -0.951057 0.000000
vn 0.309017 -0.951057 0.000000
vn 0.309017 -0.951057 0.000000
vn -0.309017 -0.951057 0.000000
vn -0.309017 -0.951057 0.000000
vn -0.309017 -0.951057 0.000000
vn -0.309017 -0.951057 0.000000
vn 0.000000 0.000000 1.000000
vn 0.000000 0.000000 1.000000
vn 0.000000 0.000000 1.000000
vn 0.000000 0.000000 1.000000
vn 0.000000 0.000000 1.000000
vn 0.000000 0.000000 1.000000
vn 0.000000 1.000000 0.000000
vn 0.000000 1.000000 0.000000
vn 0.000000 1.000000 0.000000
vn 0.000000 1.000000 0.000000
vn 0.000000 0.000000 -1.000000
vn 0.000000 0.000000 -1.000000
vn 0.000000 0.000000 -1.000000
vn 0.000000 0.000000 -1.000000
vn 0.000000 0.000000 -1.000000
vn 0.000000 0.000000 -1.000000
vn 0.000000 -1.000000 0.000000
vn 0.000000 -1.000000 0.000000
vn 0.000000 -1.000000 0.000000
vn 0.000000 -1.000000 0.000000
vn 1.000000 0.000000 0.000000
vn 1.000000 0.000000 0.000000
vn 1.000000 0.000000 0.000000
vn 1.000000 0.000000 0.000000
vn 0.707105 0.707108 0.000000
vn 0.707105 0.707108 0.000000
vn 0.707105 0.707108 0.000000
vn 0.707105 0.707108 0.000000
vn 0.707105 -0.707108 0.000000
vn 0.707105 -0.707108 0.000000
vn 0.707105 -0.707108 0.000000
vn 0.707105 -0.707108 0.000000
s 1
g group3
usemtl initialShadingGroup
f 9/1/1 10/2/2 4/7/3 3/8/4
s 2
f 17/3/5 18/4/6 25/5/7 26/6/8
s 3
f 5/9/9 6/10/10 11/11/11 12/38/12
s 4
f 18/4/13 19/12/14 24/13/15 25/5/16
s 1
f 13/14/17 14/16/18 10/2/2 9/1/1
s off
f 27/19/19 28/20/20 29/23/21 30/29/22
s 3
f 12/38/12 11/11/11 15/30/23 16/39/24
s 1
f 1/31/25 2/32/26 14/16/18 13/14/17
s 4
f 20/33/27 21/34/28 22/35/29 23/36/30
s 3
f 16/39/24 15/30/23 8/40/31 7/37/32
s 2
f 3/15/33 4/7/34 18/4/6 17/3/5
s 4
f 10/2/35 19/12/14 18/4/13 4/7/36
f 14/16/37 20/33/27 19/12/14 10/2/35
f 2/32/38 21/34/28 20/33/27 14/16/37
f 23/36/30 22/35/29 8/40/39 15/30/40
f 24/13/15 23/36/30 15/30/40 11/11/41
f 25/5/16 24/13/15 11/11/41 6/10/42
s 2
f 26/6/8 25/5/7 6/10/43 5/24/44
s off
f 19/17/45 20/18/46 28/21/47 27/22/48
f 20/18/49 23/25/50 29/26/51 28/21/52
f 23/25/53 24/27/54 30/28/55 29/26/56
f 24/27/57 19/41/58 27/42/59 30/28/60
g textureEditorIsolateSelectSet group3
f 31/43/61 40/44/62 39/45/63 36/46/64 35/47/65 32/48/66
g group3
f 32/49/67 35/50/68 38/51/69 33/52/70
f 33/53/71 38/54/72 37/55/73 42/56/74 41/57/75 34/58/76
f 34/59/77 41/60/78 40/61/79 31/62/80
f 39/63/81 42/64/82 37/65/83 36/66/84
f 35/50/85 36/66/86 37/65/87 38/51/88
f 39/63/89 40/61/90 41/60/91 42/64/92
f 43/67/93 44/68/94 54/69/95 53/70/96
f 44/68/97 45/71/98 55/72/99 54/69/100
f 45/71/101 46/73/102 56/74/103 55/72/104
f 46/73/105 47/75/106 57/76/107 56/74/108
f 47/75/109 48/77/110 58/78/111 57/76/112
f 48/77/113 49/79/114 59/80/115 58/78/116
f 49/79/117 50/81/118 60/82/119 59/80/120
f 50/81/121 51/83/122 61/84/123 60/82/124
f 51/83/125 52/85/126 62/86/127 61/84/128
f 52/85/129 43/87/130 53/88/131 62/86/132
f 63/89/133 72/90/134 71/91/135 68/92/136 67/93/137 64/94/138
f 64/95/139 67/96/140 70/97/141 65/98/142
f 65/99/143 70/100/144 69/101/145 74/102/146 73/103/147 66/104/148
f 66/105/149 73/106/150 72/107/151 63/108/152
f 71/109/153 74/110/154 69/111/155 68/112/156
f 67/96/157 68/112/158 69/111/159 70/97/160
f 71/109/161 72/107/162 73/106/163 74/110/164
