# This file uses centimeters as units for non-parametric coordinates.

mtllib armario_superior.mtl
g default
v -0.530621 -0.500000 -0.500000
v -0.530621 -0.500000 0.450005
v -0.530621 -0.493302 0.475003
v -0.530621 -0.475002 0.493302
v -0.530621 -0.450005 0.500000
v 0.469379 -0.500000 0.450005
v 0.469379 -0.450005 0.500000
v 0.469379 -0.475002 0.493302
v 0.469379 -0.493302 0.475003
v -0.530621 0.500000 0.450005
v -0.530621 0.450005 0.500000
v -0.530621 0.475002 0.493302
v -0.530621 0.493302 0.475003
v 0.469379 0.500000 0.450005
v 0.469379 0.493302 0.475003
v 0.469379 0.475002 0.493302
v 0.469379 0.450005 0.500000
v 0.469379 0.500000 -0.405009
v 0.374388 0.500000 -0.500000
v 0.469379 -0.500000 -0.405009
v 0.374388 -0.500000 -0.500000
v -0.530621 -0.500000 -0.502114
v -0.530621 -0.500000 -1.452119
v -0.530621 -0.493302 -1.477116
v -0.530621 -0.475002 -1.495416
v -0.530621 -0.450005 -1.502114
v 0.469379 -0.500000 -1.452119
v 0.469379 -0.450005 -1.502114
v 0.469379 -0.475002 -1.495416
v 0.469379 -0.493302 -1.477116
v -0.530621 0.500000 -1.452119
v -0.530621 0.450005 -1.502114
v -0.530621 0.475002 -1.495416
v -0.530621 0.493302 -1.477116
v 0.469379 0.500000 -1.452119
v 0.469379 0.493302 -1.477116
v 0.469379 0.475002 -1.495416
v 0.469379 0.450005 -1.502114
v 0.469379 0.500000 -0.597105
v 0.374388 0.500000 -0.502114
v 0.469379 -0.500000 -0.597105
v 0.374388 -0.500000 -0.502114
vt 0.004551 0.334271
vt 0.723939 0.998570
vt 0.321876 0.334271
vt 0.321876 0.621793
vt 0.004551 0.621793
vt 0.004551 0.326285
vt 0.398274 0.998570
vt 0.321876 0.326285
vt 0.364092 0.963511
vt 0.004551 0.320439
vt 0.321876 0.320439
vt 0.004551 0.637764
vt 0.364092 0.647948
vt 0.723939 0.647948
vt 0.021127 0.998814
vt 0.723939 0.638722
vt 0.004551 0.635624
vt 0.321876 0.635624
vt 0.321876 0.637764
vt 0.021127 0.641832
vt 0.326352 0.641832
vt 0.326352 0.998814
vt 0.360262 0.998814
vt 0.004551 0.629778
vt 0.321876 0.629778
vt 0.360262 0.641832
vt 0.364092 0.638722
vt 0.012204 0.996423
vt 0.012204 0.644223
vt 0.003280 0.659680
vt 0.005671 0.650756
vt 0.005671 0.989890
vt 0.003280 0.980966
vt 0.689202 0.588779
vt 0.987618 0.588779
vt 0.987618 0.318390
vt 0.689202 0.318390
vt 0.683523 0.276790
vt 0.357857 0.276790
vt 0.323675 0.311849
vt 0.323675 0.627412
vt 0.683523 0.627412
vt 0.689202 0.596288
vt 0.987618 0.596288
vt 0.689202 0.601786
vt 0.987618 0.601786
vt 0.683523 0.636638
vt 0.323675 0.636638
vt 0.689202 0.303370
vt 0.689202 0.305383
vt 0.987618 0.305383
vt 0.987618 0.303370
vt 0.689202 0.310880
vt 0.987618 0.310880
vt 0.315848 0.020000
vt 0.003972 0.020000
vt 0.003972 0.286659
vt 0.315848 0.286659
vt 0.315848 0.316284
vt 0.003972 0.316284
vt 0.313759 0.012204
vt 0.006061 0.012204
vt 0.019564 0.004408
vt 0.011768 0.006497
vt 0.308052 0.006497
vt 0.300256 0.004408
vn 0.000000 -0.007241 0.999974
vn 0.000000 -0.007241 0.999974
vn 0.000000 0.007241 0.999974
vn 0.000000 0.007241 0.999974
vn 0.000000 -1.000000 0.000000
vn 0.000000 -1.000000 0.000000
vn 0.000000 -1.000000 0.000000
vn 0.000000 -0.999976 0.006902
vn 0.000000 -0.999976 0.006902
vn 0.000000 -0.500001 0.866025
vn 0.000000 -0.500001 0.866025
vn 0.000000 -0.866023 0.500004
vn 0.000000 -0.866023 0.500004
vn 0.000000 0.965925 0.258822
vn 0.000000 0.866023 0.500004
vn 0.000000 0.866023 0.500004
vn 0.000000 0.965925 0.258822
vn 0.000000 0.500001 0.866025
vn 0.000000 0.500001 0.866025
vn 1.000000 0.000000 0.000000
vn 1.000000 0.000000 0.000000
vn 1.000000 0.000000 0.000000
vn 1.000000 0.000000 0.000000
vn 0.707107 0.000000 -0.707107
vn 0.707107 0.000000 -0.707107
vn 0.707107 0.000000 -0.707107
vn 0.707107 0.000000 -0.707107
vn 1.000000 0.000000 0.000000
vn 1.000000 0.000000 0.000000
vn 1.000000 0.000000 0.000000
vn 1.000000 0.000000 0.000000
vn 1.000000 0.000000 0.000000
vn 1.000000 0.000000 0.000000
vn 0.000000 -0.007241 -0.999974
vn 0.000000 0.007241 -0.999974
vn 0.000000 0.007241 -0.999974
vn 0.000000 -0.007241 -0.999974
vn 0.000000 -1.000000 0.000000
vn 0.000000 -0.999976 -0.006902
vn 0.000000 -0.999976 -0.006902
vn 0.000000 -1.000000 0.000000
vn 0.000000 -1.000000 0.000000
vn 0.000000 -0.500001 -0.866025
vn 0.000000 -0.500001 -0.866025
vn 0.000000 -0.866023 -0.500004
vn 0.000000 -0.866023 -0.500004
vn 0.000000 0.965925 -0.258822
vn 0.000000 0.965925 -0.258822
vn 0.000000 0.866023 -0.500004
vn 0.000000 0.866023 -0.500004
vn 0.000000 0.500001 -0.866025
vn 0.000000 0.500001 -0.866025
vn 1.000000 0.000000 0.000000
vn 1.000000 0.000000 0.000000
vn 1.000000 0.000000 0.000000
vn 1.000000 0.000000 0.000000
vn 0.707107 0.000000 0.707107
vn 0.707107 0.000000 0.707107
vn 0.707107 0.000000 0.707107
vn 0.707107 0.000000 0.707107
vn 1.000000 0.000000 0.000000
vn 1.000000 0.000000 0.000000
vn 1.000000 0.000000 0.000000
vn 1.000000 0.000000 0.000000
vn 1.000000 0.000000 0.000000
vn 1.000000 0.000000 0.000000
s 1
g pCube42
usemtl initialShadingGroup
f 5/1/1 7/3/2 17/4/3 11/5/4
f 1/2/5 21/7/6 20/9/7 6/13/8 2/14/9
f 5/1/1 4/6/10 8/8/11 7/3/2
f 4/6/10 3/10/12 9/11/13 8/8/11
f 3/16/12 2/14/9 6/13/8 9/27/13
f 10/12/14 13/17/15 15/18/16 14/19/17
f 13/17/15 12/24/18 16/25/19 15/18/16
f 12/24/18 11/5/4 17/4/3 16/25/19
s 4
f 14/15/20 6/20/21 20/21/22 18/22/23
s off
f 19/23/24 18/22/25 20/21/26 21/26/27
s 4
f 15/28/28 9/29/29 6/20/21 14/15/20
f 7/30/30 8/31/31 16/32/32 17/33/33
f 16/32/32 8/31/31 9/29/29 15/28/28
s 5
f 26/34/34 32/37/35 38/36/36 28/35/37
f 22/38/38 23/42/39 27/41/40 41/40/41 42/39/42
f 26/34/34 28/35/37 29/44/43 25/43/44
f 25/43/44 29/44/43 30/46/45 24/45/46
f 24/47/46 30/48/45 27/41/40 23/42/39
f 31/49/47 35/52/48 36/51/49 34/50/50
f 34/50/50 36/51/49 37/54/51 33/53/52
f 33/53/52 37/54/51 38/36/36 32/37/35
s 8
f 35/55/53 39/58/54 41/57/55 27/56/56
s off
f 40/59/57 42/60/58 41/57/59 39/58/60
s 8
f 36/61/61 35/55/53 27/56/56 30/62/62
f 28/63/63 38/66/64 37/65/65 29/64/66
f 37/65/65 36/61/61 30/62/62 29/64/66
