# This file uses centimeters as units for non-parametric coordinates.

mtllib hologram_base.mtl
g default
v -0.400396 -0.500000 0.388625
v -0.363005 -0.500000 0.426016
v -0.400396 0.500000 0.388625
v -0.363005 0.500000 0.426016
v 0.400396 -0.500000 0.388625
v 0.363005 -0.500000 0.426016
v 0.400396 0.500000 0.388625
v 0.363005 0.500000 0.426016
v -0.400396 0.500000 -0.284485
v -0.363005 0.500000 -0.321876
v -0.400396 -0.500000 -0.284485
v -0.363005 -0.500000 -0.321876
v 0.363005 0.500000 -0.321875
v 0.400396 0.500000 -0.284485
v 0.400396 -0.500000 -0.284485
v 0.363005 -0.500000 -0.321875
v 0.037491 -0.387323 -0.324958
v 0.000000 -0.387323 -0.340487
v -0.037491 -0.387323 -0.324958
v -0.053020 -0.387323 -0.287467
v 0.053020 -0.387323 -0.287467
v 0.069274 -0.357290 -0.356742
v 0.000000 -0.357290 -0.385436
v -0.069274 -0.357290 -0.356742
v -0.097969 -0.357290 -0.287467
v 0.097969 -0.357290 -0.287467
v 0.090511 -0.312341 -0.377979
v 0.000000 -0.312341 -0.415470
v -0.090511 -0.312341 -0.377979
v -0.128003 -0.312341 -0.287467
v 0.128003 -0.312341 -0.287467
v 0.097969 -0.259321 -0.385436
v 0.000000 -0.259321 -0.426016
v -0.097969 -0.259321 -0.385436
v -0.138549 -0.259321 -0.287467
v 0.138549 -0.259321 -0.287467
v 0.090511 -0.206300 -0.377979
v 0.000000 -0.206300 -0.415470
v -0.090511 -0.206300 -0.377979
v -0.128003 -0.206300 -0.287467
v 0.128003 -0.206300 -0.287467
v 0.069274 -0.161352 -0.356742
v 0.000000 -0.161352 -0.385436
v -0.069274 -0.161352 -0.356742
v -0.097969 -0.161352 -0.287467
v 0.097969 -0.161352 -0.287467
v 0.037491 -0.131318 -0.324958
v 0.000000 -0.131318 -0.340487
v -0.037491 -0.131318 -0.324958
v -0.053020 -0.131318 -0.287467
v 0.053020 -0.131318 -0.287467
v 0.000000 -0.397870 -0.287467
v 0.000000 -0.120772 -0.287467
v 0.037491 0.145195 -0.324958
v 0.000000 0.145195 -0.340487
v -0.037491 0.145195 -0.324958
v -0.053020 0.145195 -0.287467
v 0.053020 0.145195 -0.287467
v 0.069274 0.175228 -0.356742
v 0.000000 0.175228 -0.385436
v -0.069274 0.175228 -0.356742
v -0.097969 0.175228 -0.287467
v 0.097969 0.175228 -0.287467
v 0.090511 0.220177 -0.377979
v 0.000000 0.220177 -0.415470
v -0.090511 0.220177 -0.377979
v -0.128003 0.220177 -0.287467
v 0.128003 0.220177 -0.287467
v 0.097969 0.273197 -0.385436
v 0.000000 0.273197 -0.426016
v -0.097969 0.273197 -0.385436
v -0.138549 0.273197 -0.287467
v 0.138549 0.273197 -0.287467
v 0.090511 0.326218 -0.377979
v 0.000000 0.326218 -0.415470
v -0.090511 0.326218 -0.377979
v -0.128003 0.326218 -0.287467
v 0.128003 0.326218 -0.287467
v 0.069274 0.371166 -0.356742
v 0.000000 0.371166 -0.385436
v -0.069274 0.371166 -0.356742
v -0.097969 0.371166 -0.287467
v 0.097969 0.371166 -0.287467
v 0.037491 0.401200 -0.324958
v 0.000000 0.401200 -0.340487
v -0.037491 0.401200 -0.324958
v -0.053020 0.401200 -0.287467
v 0.053020 0.401200 -0.287467
v 0.000000 0.134648 -0.287467
v 0.000000 0.411746 -0.287467
vt 0.515145 0.765365
vt 0.487002 1.000961
vt 0.268052 1.000961
vt 0.005970 0.763419
vt 0.758226 0.462082
vt 0.757716 0.229234
vt 0.976667 0.229234
vt 0.972179 0.461972
vt 0.756397 0.762779
vt 0.519478 0.774846
vt 0.540678 0.461424
vt 0.745057 0.452465
vt 0.527953 0.461773
vt 0.005970 0.461839
vt 0.208966 0.461839
vt 0.232871 0.775054
vt 0.743675 0.763003
vt 0.259811 0.765467
vt 0.976793 0.762554
vt 0.987943 0.240510
vt 0.222583 0.461981
vt 0.988006 0.452241
vt 0.746440 0.240510
vt 0.498279 0.989685
vt 0.256776 0.989685
vt 0.988069 0.762554
vt 0.652140 0.125752
vt 0.652140 0.219839
vt 0.560508 0.219839
vt 0.560508 0.125752
vt 0.652140 0.311471
vt 0.560508 0.311471
vt 0.652140 0.403102
vt 0.560508 0.403102
vt 0.652140 0.031666
vt 0.560508 0.031666
vt 0.468877 0.219839
vt 0.468877 0.125752
vt 0.468877 0.311471
vt 0.468877 0.403102
vt 0.468877 0.031666
vt 0.377244 0.219839
vt 0.377244 0.125752
vt 0.377245 0.311471
vt 0.377245 0.403102
vt 0.377245 0.031666
vt 0.285613 0.219839
vt 0.285613 0.125752
vt 0.285613 0.311471
vt 0.285613 0.403102
vt 0.285613 0.031666
vt 0.193981 0.219839
vt 0.193981 0.125752
vt 0.193981 0.311471
vt 0.193981 0.403102
vt 0.193981 0.031666
vt 0.102349 0.219839
vt 0.102349 0.125752
vt 0.102349 0.311471
vt 0.102349 0.403102
vt 0.102349 0.031666
vt 0.743772 0.174023
vt 0.743772 0.265655
vt 0.743772 0.357286
vt 0.743772 0.077482
vt 0.010717 0.174023
vt 0.010717 0.265655
vt 0.010717 0.357286
vt 0.010717 0.077482
vt 0.652159 0.125752
vt 0.652159 0.219839
vt 0.560527 0.219839
vt 0.560527 0.125752
vt 0.652159 0.311471
vt 0.560527 0.311471
vt 0.652159 0.403102
vt 0.560527 0.403102
vt 0.652159 0.031666
vt 0.560527 0.031666
vt 0.468895 0.219839
vt 0.468895 0.125752
vt 0.468895 0.311471
vt 0.468895 0.403102
vt 0.468895 0.031666
vt 0.377264 0.219839
vt 0.377264 0.125752
vt 0.377263 0.311471
vt 0.377263 0.403102
vt 0.377263 0.031666
vt 0.285631 0.219839
vt 0.285631 0.125752
vt 0.285631 0.311471
vt 0.285631 0.403102
vt 0.285631 0.031666
vt 0.194000 0.219839
vt 0.194000 0.125752
vt 0.194000 0.311471
vt 0.194000 0.403102
vt 0.194000 0.031666
vt 0.102368 0.219839
vt 0.102368 0.125752
vt 0.102368 0.311471
vt 0.102368 0.403102
vt 0.102368 0.031666
vt 0.743791 0.174023
vt 0.743791 0.265655
vt 0.743791 0.357287
vt 0.743791 0.077482
vt 0.010736 0.174023
vt 0.010736 0.265655
vt 0.010736 0.357287
vt 0.010736 0.077482
vn -0.000001 0.000000 1.000000
vn -0.000001 0.000000 1.000000
vn -0.000001 0.000000 1.000000
vn -0.000001 0.000000 1.000000
vn 0.000001 0.000000 -1.000000
vn 0.000001 0.000000 -1.000000
vn 0.000001 0.000000 -1.000000
vn 0.000001 0.000000 -1.000000
vn 1.000000 0.000000 0.000000
vn 1.000000 0.000000 0.000000
vn 1.000000 0.000000 0.000000
vn 1.000000 0.000000 0.000000
vn -1.000000 0.000000 0.000000
vn -1.000000 0.000000 0.000000
vn -1.000000 0.000000 0.000000
vn -1.000000 0.000000 0.000000
vn 0.000000 1.000000 0.000000
vn 0.000000 1.000000 0.000000
vn 0.000000 1.000000 0.000000
vn 0.000000 1.000000 0.000000
vn 0.000000 -1.000000 0.000000
vn 0.000000 -1.000000 0.000000
vn 0.000000 -1.000000 0.000000
vn 0.000000 -1.000000 0.000000
vn -0.707107 0.000000 0.707107
vn -0.707107 0.000000 0.707107
vn -0.707107 0.000000 0.707107
vn -0.707107 0.000000 0.707107
vn 0.707107 0.000000 0.707107
vn 0.707107 0.000000 0.707107
vn 0.707107 0.000000 0.707107
vn 0.707107 0.000000 0.707107
vn -0.707107 0.000000 -0.707107
vn -0.707107 0.000000 -0.707107
vn -0.707107 0.000000 -0.707107
vn -0.707107 0.000000 -0.707107
vn 0.707107 0.000000 -0.707106
vn 0.707107 0.000000 -0.707106
vn 0.707107 0.000000 -0.707106
vn 0.707107 0.000000 -0.707106
vn 0.000000 -1.000000 0.000000
vn 0.000000 -1.000000 0.000000
vn 0.000000 -1.000000 0.000000
vn 0.000000 -1.000000 0.000000
vn 0.000000 1.000000 0.000000
vn 0.000000 1.000000 0.000000
vn 0.000000 1.000000 0.000000
vn 0.000000 1.000000 0.000000
vn 0.224263 -0.810291 -0.541419
vn 0.224263 -0.810291 -0.541419
vn 0.224263 -0.810291 -0.541419
vn 0.224263 -0.810291 -0.541419
vn -0.224263 -0.810291 -0.541419
vn -0.224263 -0.810291 -0.541419
vn -0.224263 -0.810291 -0.541419
vn -0.224263 -0.810291 -0.541419
vn -0.541419 -0.810291 -0.224263
vn -0.541419 -0.810291 -0.224263
vn -0.541419 -0.810291 -0.224263
vn -0.541419 -0.810291 -0.224263
vn 0.541419 -0.810291 -0.224263
vn 0.541419 -0.810291 -0.224263
vn 0.541419 -0.810291 -0.224263
vn 0.541419 -0.810291 -0.224263
vn 0.325634 -0.525289 -0.786151
vn 0.325634 -0.525289 -0.786151
vn 0.325634 -0.525289 -0.786151
vn 0.325634 -0.525289 -0.786151
vn -0.325634 -0.525289 -0.786151
vn -0.325634 -0.525289 -0.786151
vn -0.325634 -0.525289 -0.786151
vn -0.325634 -0.525289 -0.786151
vn -0.786151 -0.525289 -0.325634
vn -0.786151 -0.525289 -0.325634
vn -0.786151 -0.525289 -0.325634
vn -0.786151 -0.525289 -0.325634
vn 0.786151 -0.525289 -0.325634
vn 0.786151 -0.525289 -0.325634
vn 0.786151 -0.525289 -0.325634
vn 0.786151 -0.525289 -0.325634
vn 0.376381 -0.180744 -0.908663
vn 0.376381 -0.180744 -0.908663
vn 0.376381 -0.180744 -0.908663
vn 0.376381 -0.180744 -0.908663
vn -0.376381 -0.180744 -0.908663
vn -0.376381 -0.180744 -0.908663
vn -0.376381 -0.180744 -0.908663
vn -0.376381 -0.180744 -0.908663
vn -0.908663 -0.180744 -0.376381
vn -0.908663 -0.180744 -0.376381
vn -0.908663 -0.180744 -0.376381
vn -0.908663 -0.180744 -0.376381
vn 0.908663 -0.180744 -0.376381
vn 0.908663 -0.180744 -0.376381
vn 0.908663 -0.180744 -0.376381
vn 0.908663 -0.180744 -0.376381
vn 0.376381 0.180744 -0.908663
vn 0.376381 0.180744 -0.908663
vn 0.376381 0.180744 -0.908663
vn 0.376381 0.180744 -0.908663
vn -0.376381 0.180744 -0.908663
vn -0.376381 0.180744 -0.908663
vn -0.376381 0.180744 -0.908663
vn -0.376381 0.180744 -0.908663
vn -0.908663 0.180744 -0.376381
vn -0.908663 0.180744 -0.376381
vn -0.908663 0.180744 -0.376381
vn -0.908663 0.180744 -0.376381
vn 0.908663 0.180745 -0.376381
vn 0.908663 0.180745 -0.376381
vn 0.908663 0.180745 -0.376381
vn 0.908663 0.180745 -0.376381
vn 0.325635 0.525289 -0.786151
vn 0.325635 0.525289 -0.786151
vn 0.325635 0.525289 -0.786151
vn 0.325635 0.525289 -0.786151
vn -0.325635 0.525289 -0.786151
vn -0.325635 0.525289 -0.786151
vn -0.325635 0.525289 -0.786151
vn -0.325635 0.525289 -0.786151
vn -0.786151 0.525289 -0.325634
vn -0.786151 0.525289 -0.325634
vn -0.786151 0.525289 -0.325634
vn -0.786151 0.525289 -0.325634
vn 0.786151 0.525289 -0.325635
vn 0.786151 0.525289 -0.325635
vn 0.786151 0.525289 -0.325635
vn 0.786151 0.525289 -0.325635
vn 0.224263 0.810291 -0.541419
vn 0.224263 0.810291 -0.541419
vn 0.224263 0.810291 -0.541419
vn 0.224263 0.810291 -0.541419
vn -0.224263 0.810291 -0.541419
vn -0.224263 0.810291 -0.541419
vn -0.224263 0.810291 -0.541419
vn -0.224263 0.810291 -0.541419
vn -0.541419 0.810291 -0.224263
vn -0.541419 0.810291 -0.224263
vn -0.541419 0.810291 -0.224263
vn -0.541419 0.810291 -0.224263
vn 0.541419 0.810291 -0.224263
vn 0.541419 0.810291 -0.224263
vn 0.541419 0.810291 -0.224263
vn 0.541419 0.810291 -0.224263
vn 0.080547 -0.977599 -0.194456
vn 0.080547 -0.977599 -0.194456
vn 0.080547 -0.977599 -0.194456
vn -0.080547 -0.977599 -0.194456
vn -0.080547 -0.977599 -0.194456
vn -0.080547 -0.977599 -0.194456
vn -0.194457 -0.977599 -0.080545
vn -0.194457 -0.977599 -0.080545
vn -0.194457 -0.977599 -0.080545
vn 0.194457 -0.977599 -0.080547
vn 0.194457 -0.977599 -0.080547
vn 0.194457 -0.977599 -0.080547
vn 0.080546 0.977599 -0.194456
vn 0.080547 0.977599 -0.194457
vn 0.080547 0.977599 -0.194457
vn -0.080547 0.977599 -0.194457
vn -0.080546 0.977599 -0.194456
vn -0.080547 0.977599 -0.194457
vn -0.194457 0.977599 -0.080547
vn -0.194457 0.977599 -0.080547
vn -0.194457 0.977599 -0.080547
vn 0.194457 0.977599 -0.080547
vn 0.194457 0.977599 -0.080547
vn 0.194457 0.977599 -0.080547
vn 0.224263 -0.810291 -0.541419
vn 0.224263 -0.810291 -0.541419
vn 0.224263 -0.810291 -0.541419
vn 0.224263 -0.810291 -0.541419
vn -0.224263 -0.810291 -0.541419
vn -0.224263 -0.810291 -0.541419
vn -0.224263 -0.810291 -0.541419
vn -0.224263 -0.810291 -0.541419
vn -0.541419 -0.810291 -0.224263
vn -0.541419 -0.810291 -0.224263
vn -0.541419 -0.810291 -0.224263
vn -0.541419 -0.810291 -0.224263
vn 0.541419 -0.810291 -0.224263
vn 0.541419 -0.810291 -0.224263
vn 0.541419 -0.810291 -0.224263
vn 0.541419 -0.810291 -0.224263
vn 0.325635 -0.525289 -0.786151
vn 0.325635 -0.525289 -0.786151
vn 0.325635 -0.525289 -0.786151
vn 0.325635 -0.525289 -0.786151
vn -0.325635 -0.525289 -0.786151
vn -0.325635 -0.525289 -0.786151
vn -0.325635 -0.525289 -0.786151
vn -0.325635 -0.525289 -0.786151
vn -0.786151 -0.525289 -0.325634
vn -0.786151 -0.525289 -0.325634
vn -0.786151 -0.525289 -0.325634
vn -0.786151 -0.525289 -0.325634
vn 0.786151 -0.525289 -0.325635
vn 0.786151 -0.525289 -0.325635
vn 0.786151 -0.525289 -0.325635
vn 0.786151 -0.525289 -0.325635
vn 0.376381 -0.180744 -0.908663
vn 0.376381 -0.180744 -0.908663
vn 0.376381 -0.180744 -0.908663
vn 0.376381 -0.180744 -0.908663
vn -0.376381 -0.180744 -0.908663
vn -0.376381 -0.180744 -0.908663
vn -0.376381 -0.180744 -0.908663
vn -0.376381 -0.180744 -0.908663
vn -0.908663 -0.180744 -0.376381
vn -0.908663 -0.180744 -0.376381
vn -0.908663 -0.180744 -0.376381
vn -0.908663 -0.180744 -0.376381
vn 0.908663 -0.180745 -0.376381
vn 0.908663 -0.180745 -0.376381
vn 0.908663 -0.180745 -0.376381
vn 0.908663 -0.180745 -0.376381
vn 0.376381 0.180744 -0.908664
vn 0.376381 0.180744 -0.908663
vn 0.376381 0.180744 -0.908663
vn 0.376381 0.180744 -0.908664
vn -0.376381 0.180744 -0.908663
vn -0.376381 0.180744 -0.908664
vn -0.376381 0.180744 -0.908664
vn -0.376381 0.180744 -0.908663
vn -0.908663 0.180744 -0.376381
vn -0.908663 0.180744 -0.376381
vn -0.908663 0.180744 -0.376381
vn -0.908663 0.180744 -0.376381
vn 0.908663 0.180744 -0.376381
vn 0.908663 0.180744 -0.376381
vn 0.908663 0.180744 -0.376381
vn 0.908663 0.180744 -0.376381
vn 0.325634 0.525289 -0.786151
vn 0.325634 0.525289 -0.786151
vn 0.325634 0.525290 -0.786151
vn 0.325634 0.525289 -0.786151
vn -0.325634 0.525290 -0.786151
vn -0.325634 0.525289 -0.786151
vn -0.325634 0.525289 -0.786151
vn -0.325634 0.525290 -0.786151
vn -0.786151 0.525289 -0.325634
vn -0.786151 0.525289 -0.325634
vn -0.786151 0.525289 -0.325634
vn -0.786151 0.525289 -0.325634
vn 0.786151 0.525289 -0.325635
vn 0.786151 0.525289 -0.325634
vn 0.786151 0.525289 -0.325635
vn 0.786151 0.525289 -0.325634
vn 0.224263 0.810291 -0.541419
vn 0.224263 0.810291 -0.541419
vn 0.224263 0.810291 -0.541419
vn 0.224263 0.810291 -0.541419
vn -0.224263 0.810291 -0.541419
vn -0.224263 0.810291 -0.541419
vn -0.224263 0.810291 -0.541419
vn -0.224263 0.810291 -0.541419
vn -0.541419 0.810291 -0.224263
vn -0.541419 0.810291 -0.224263
vn -0.541419 0.810291 -0.224263
vn -0.541419 0.810291 -0.224263
vn 0.541419 0.810291 -0.224263
vn 0.541419 0.810291 -0.224263
vn 0.541419 0.810291 -0.224263
vn 0.541419 0.810291 -0.224263
vn 0.080547 -0.977599 -0.194457
vn 0.080546 -0.977599 -0.194456
vn 0.080547 -0.977599 -0.194457
vn -0.080546 -0.977599 -0.194456
vn -0.080547 -0.977599 -0.194457
vn -0.080547 -0.977599 -0.194457
vn -0.194457 -0.977599 -0.080547
vn -0.194457 -0.977599 -0.080547
vn -0.194457 -0.977599 -0.080547
vn 0.194457 -0.977599 -0.080547
vn 0.194457 -0.977599 -0.080547
vn 0.194457 -0.977599 -0.080547
vn 0.080546 0.977598 -0.194457
vn 0.080546 0.977598 -0.194457
vn 0.080546 0.977598 -0.194457
vn -0.080546 0.977598 -0.194457
vn -0.080546 0.977598 -0.194457
vn -0.080546 0.977598 -0.194457
vn -0.194457 0.977599 -0.080547
vn -0.194457 0.977599 -0.080547
vn -0.194457 0.977599 -0.080547
vn 0.194457 0.977599 -0.080547
vn 0.194457 0.977599 -0.080547
vn 0.194457 0.977599 -0.080547
s off
g high1
usemtl initialShadingGroup
f 4/9/1 2/5/2 6/8/3 8/19/4
f 12/13/5 10/1/6 13/18/7 16/21/8
f 7/4/9 5/14/10 15/15/11 14/16/12
f 9/10/13 11/11/14 1/12/15 3/17/16
s 1
f 10/1/17 4/2/18 8/3/19 13/18/20
s 2
f 2/5/21 12/6/22 16/7/23 6/8/24
s off
f 1/12/25 2/5/26 4/9/27 3/17/28
f 6/8/29 5/22/30 7/26/31 8/19/32
f 9/10/33 10/1/34 12/13/35 11/11/36
f 13/18/37 14/16/38 15/15/39 16/21/40
s 2
f 6/8/24 16/7/23 15/20/41 5/22/42
f 11/23/43 12/6/22 2/5/21 1/12/44
s 1
f 9/10/45 3/24/46 4/2/18 10/1/17
f 13/18/20 8/3/19 7/25/47 14/16/48
s off
f 17/27/49 18/28/50 23/29/51 22/30/52
f 18/28/53 19/31/54 24/32/55 23/29/56
f 19/31/57 20/33/58 25/34/59 24/32/60
f 21/35/61 17/27/62 22/30/63 26/36/64
f 22/30/65 23/29/66 28/37/67 27/38/68
f 23/29/69 24/32/70 29/39/71 28/37/72
f 24/32/73 25/34/74 30/40/75 29/39/76
f 26/36/77 22/30/78 27/38/79 31/41/80
f 27/38/81 28/37/82 33/42/83 32/43/84
f 28/37/85 29/39/86 34/44/87 33/42/88
f 29/39/89 30/40/90 35/45/91 34/44/92
f 31/41/93 27/38/94 32/43/95 36/46/96
f 32/43/97 33/42/98 38/47/99 37/48/100
f 33/42/101 34/44/102 39/49/103 38/47/104
f 34/44/105 35/45/106 40/50/107 39/49/108
f 36/46/109 32/43/110 37/48/111 41/51/112
f 37/48/113 38/47/114 43/52/115 42/53/116
f 38/47/117 39/49/118 44/54/119 43/52/120
f 39/49/121 40/50/122 45/55/123 44/54/124
f 41/51/125 37/48/126 42/53/127 46/56/128
f 42/53/129 43/52/130 48/57/131 47/58/132
f 43/52/133 44/54/134 49/59/135 48/57/136
f 44/54/137 45/55/138 50/60/139 49/59/140
f 46/56/141 42/53/142 47/58/143 51/61/144
f 18/28/145 17/27/146 52/62/147
f 19/31/148 18/28/149 52/63/150
f 20/33/151 19/31/152 52/64/153
f 17/27/154 21/35/155 52/65/156
f 47/58/157 48/57/158 53/66/159
f 48/57/160 49/59/161 53/67/162
f 49/59/163 50/60/164 53/68/165
f 51/61/166 47/58/167 53/69/168
f 54/70/169 55/71/170 60/72/171 59/73/172
f 55/71/173 56/74/174 61/75/175 60/72/176
f 56/74/177 57/76/178 62/77/179 61/75/180
f 58/78/181 54/70/182 59/73/183 63/79/184
f 59/73/185 60/72/186 65/80/187 64/81/188
f 60/72/189 61/75/190 66/82/191 65/80/192
f 61/75/193 62/77/194 67/83/195 66/82/196
f 63/79/197 59/73/198 64/81/199 68/84/200
f 64/81/201 65/80/202 70/85/203 69/86/204
f 65/80/205 66/82/206 71/87/207 70/85/208
f 66/82/209 67/83/210 72/88/211 71/87/212
f 68/84/213 64/81/214 69/86/215 73/89/216
f 69/86/217 70/85/218 75/90/219 74/91/220
f 70/85/221 71/87/222 76/92/223 75/90/224
f 71/87/225 72/88/226 77/93/227 76/92/228
f 73/89/229 69/86/230 74/91/231 78/94/232
f 74/91/233 75/90/234 80/95/235 79/96/236
f 75/90/237 76/92/238 81/97/239 80/95/240
f 76/92/241 77/93/242 82/98/243 81/97/244
f 78/94/245 74/91/246 79/96/247 83/99/248
f 79/96/249 80/95/250 85/100/251 84/101/252
f 80/95/253 81/97/254 86/102/255 85/100/256
f 81/97/257 82/98/258 87/103/259 86/102/260
f 83/99/261 79/96/262 84/101/263 88/104/264
f 55/71/265 54/70/266 89/105/267
f 56/74/268 55/71/269 89/106/270
f 57/76/271 56/74/272 89/107/273
f 54/70/274 58/78/275 89/108/276
f 84/101/277 85/100/278 90/109/279
f 85/100/280 86/102/281 90/110/282
f 86/102/283 87/103/284 90/111/285
f 88/104/286 84/101/287 90/112/288
