# This file uses centimeters as units for non-parametric coordinates.

mtllib Pared_exterior.mtl
g default
v 24.983619 -0.500000 -25.684345
v 24.983619 -0.500000 26.007913
v 24.983619 8.108566 -25.684345
v 24.983619 8.108566 26.007913
vt 0.991389 0.728056
vt 0.008611 0.728056
vt 0.008611 0.991070
vt 0.991389 0.991070
vn -1.000000 0.000000 0.000000
vn -1.000000 0.000000 0.000000
vn -1.000000 0.000000 0.000000
vn -1.000000 0.000000 0.000000
s off
g pared1
usemtl initialShadingGroup
f 1/1/1 2/2/2 4/3/3 3/4/4
